G04 EAGLE Gerber RS-274X export*
G75*
%MOMM*%
%FSLAX34Y34*%
%LPD*%
%INTop Copper*%
%IPPOS*%
%AMOC8*
5,1,8,0,0,1.08239X$1,22.5*%
G01*
%ADD10C,1.879600*%
%ADD11C,1.524000*%
%ADD12C,3.302000*%
%ADD13P,1.924489X8X112.500000*%
%ADD14C,1.308000*%
%ADD15C,2.184400*%
%ADD16P,1.814519X8X22.500000*%
%ADD17C,0.756400*%
%ADD18C,1.270000*%
%ADD19C,0.609600*%
%ADD20C,0.152400*%

G36*
X589098Y10164D02*
X589098Y10164D01*
X589117Y10162D01*
X589219Y10184D01*
X589321Y10200D01*
X589338Y10210D01*
X589358Y10214D01*
X589447Y10267D01*
X589538Y10316D01*
X589552Y10330D01*
X589569Y10340D01*
X589636Y10419D01*
X589708Y10494D01*
X589716Y10512D01*
X589729Y10527D01*
X589768Y10623D01*
X589811Y10717D01*
X589813Y10737D01*
X589821Y10755D01*
X589839Y10922D01*
X589839Y28237D01*
X589832Y28284D01*
X589833Y28332D01*
X589812Y28405D01*
X589800Y28480D01*
X589777Y28522D01*
X589763Y28568D01*
X589720Y28630D01*
X589684Y28697D01*
X589650Y28730D01*
X589622Y28769D01*
X589561Y28814D01*
X589506Y28867D01*
X589463Y28887D01*
X589424Y28915D01*
X589352Y28938D01*
X589283Y28970D01*
X589235Y28975D01*
X589190Y28990D01*
X589114Y28989D01*
X589039Y28997D01*
X588992Y28987D01*
X588944Y28986D01*
X588872Y28961D01*
X588798Y28945D01*
X588757Y28920D01*
X588712Y28904D01*
X588652Y28858D01*
X588587Y28819D01*
X588556Y28782D01*
X588518Y28753D01*
X588442Y28649D01*
X588427Y28632D01*
X588425Y28626D01*
X588419Y28618D01*
X587174Y26461D01*
X582489Y21776D01*
X576752Y18464D01*
X570352Y16749D01*
X563728Y16749D01*
X557328Y18464D01*
X551591Y21776D01*
X546906Y26461D01*
X543594Y32198D01*
X541879Y38598D01*
X541879Y45222D01*
X543594Y51622D01*
X546906Y57359D01*
X551591Y62044D01*
X557328Y65356D01*
X563728Y67071D01*
X570352Y67071D01*
X576752Y65356D01*
X582489Y62044D01*
X587174Y57359D01*
X588419Y55202D01*
X588449Y55165D01*
X588472Y55123D01*
X588526Y55071D01*
X588575Y55012D01*
X588615Y54986D01*
X588650Y54953D01*
X588719Y54922D01*
X588783Y54881D01*
X588830Y54870D01*
X588873Y54850D01*
X588948Y54842D01*
X589022Y54824D01*
X589070Y54828D01*
X589117Y54823D01*
X589192Y54839D01*
X589267Y54846D01*
X589311Y54865D01*
X589358Y54875D01*
X589423Y54914D01*
X589492Y54944D01*
X589528Y54977D01*
X589569Y55001D01*
X589618Y55059D01*
X589674Y55110D01*
X589698Y55152D01*
X589729Y55188D01*
X589757Y55258D01*
X589794Y55325D01*
X589803Y55372D01*
X589821Y55416D01*
X589835Y55545D01*
X589839Y55566D01*
X589838Y55573D01*
X589839Y55583D01*
X589839Y399078D01*
X589836Y399098D01*
X589838Y399117D01*
X589816Y399219D01*
X589800Y399321D01*
X589790Y399338D01*
X589786Y399358D01*
X589733Y399447D01*
X589684Y399538D01*
X589670Y399552D01*
X589660Y399569D01*
X589581Y399636D01*
X589506Y399708D01*
X589488Y399716D01*
X589473Y399729D01*
X589377Y399768D01*
X589283Y399811D01*
X589263Y399813D01*
X589245Y399821D01*
X589078Y399839D01*
X10922Y399839D01*
X10902Y399836D01*
X10883Y399838D01*
X10781Y399816D01*
X10679Y399800D01*
X10662Y399790D01*
X10642Y399786D01*
X10553Y399733D01*
X10462Y399684D01*
X10448Y399670D01*
X10431Y399660D01*
X10364Y399581D01*
X10292Y399506D01*
X10284Y399488D01*
X10271Y399473D01*
X10232Y399377D01*
X10189Y399283D01*
X10187Y399263D01*
X10179Y399245D01*
X10161Y399078D01*
X10161Y10922D01*
X10164Y10902D01*
X10162Y10883D01*
X10184Y10781D01*
X10200Y10679D01*
X10210Y10662D01*
X10214Y10642D01*
X10267Y10553D01*
X10316Y10462D01*
X10330Y10448D01*
X10340Y10431D01*
X10419Y10364D01*
X10494Y10292D01*
X10512Y10284D01*
X10527Y10271D01*
X10623Y10232D01*
X10717Y10189D01*
X10737Y10187D01*
X10755Y10179D01*
X10922Y10161D01*
X589078Y10161D01*
X589098Y10164D01*
G37*
%LPC*%
G36*
X107524Y38353D02*
X107524Y38353D01*
X102949Y40248D01*
X99448Y43749D01*
X97553Y48324D01*
X97553Y53276D01*
X99448Y57851D01*
X102949Y61352D01*
X104957Y62184D01*
X105057Y62245D01*
X105157Y62305D01*
X105161Y62310D01*
X105166Y62313D01*
X105240Y62402D01*
X105317Y62492D01*
X105319Y62498D01*
X105323Y62503D01*
X105365Y62611D01*
X105409Y62720D01*
X105410Y62728D01*
X105411Y62732D01*
X105412Y62751D01*
X105427Y62887D01*
X105427Y90991D01*
X105413Y91081D01*
X105405Y91172D01*
X105393Y91201D01*
X105388Y91233D01*
X105345Y91314D01*
X105309Y91398D01*
X105283Y91430D01*
X105272Y91451D01*
X105249Y91473D01*
X105204Y91529D01*
X92563Y104170D01*
X92489Y104223D01*
X92419Y104283D01*
X92389Y104295D01*
X92363Y104314D01*
X92276Y104341D01*
X92191Y104375D01*
X92150Y104379D01*
X92128Y104386D01*
X92096Y104385D01*
X92025Y104393D01*
X84796Y104393D01*
X78993Y110196D01*
X78993Y118404D01*
X84796Y124207D01*
X93094Y124207D01*
X93139Y124214D01*
X93185Y124212D01*
X93260Y124234D01*
X93337Y124246D01*
X93377Y124268D01*
X93422Y124281D01*
X93486Y124325D01*
X93554Y124362D01*
X93586Y124395D01*
X93624Y124421D01*
X93670Y124484D01*
X93724Y124540D01*
X93743Y124582D01*
X93770Y124618D01*
X93794Y124692D01*
X93827Y124763D01*
X93832Y124809D01*
X93847Y124852D01*
X93846Y124930D01*
X93854Y125007D01*
X93845Y125052D01*
X93844Y125098D01*
X93806Y125229D01*
X93802Y125248D01*
X93800Y125252D01*
X93797Y125259D01*
X93725Y125434D01*
X93725Y319066D01*
X94924Y321961D01*
X97246Y324283D01*
X107166Y334203D01*
X107204Y334256D01*
X107250Y334303D01*
X107290Y334375D01*
X107310Y334402D01*
X107315Y334421D01*
X107331Y334450D01*
X107463Y334768D01*
X109732Y337037D01*
X112696Y338265D01*
X115904Y338265D01*
X118868Y337037D01*
X121137Y334768D01*
X122365Y331804D01*
X122365Y328596D01*
X121137Y325632D01*
X118868Y323363D01*
X118550Y323231D01*
X118494Y323196D01*
X118434Y323171D01*
X118369Y323119D01*
X118340Y323101D01*
X118328Y323086D01*
X118303Y323066D01*
X109698Y314461D01*
X109645Y314387D01*
X109585Y314318D01*
X109573Y314288D01*
X109554Y314261D01*
X109527Y314174D01*
X109493Y314090D01*
X109489Y314049D01*
X109482Y314026D01*
X109483Y313994D01*
X109475Y313923D01*
X109475Y178817D01*
X109486Y178747D01*
X109488Y178675D01*
X109506Y178626D01*
X109514Y178575D01*
X109548Y178511D01*
X109573Y178444D01*
X109605Y178403D01*
X109630Y178357D01*
X109682Y178308D01*
X109726Y178252D01*
X109770Y178224D01*
X109808Y178188D01*
X109873Y178158D01*
X109933Y178119D01*
X109984Y178106D01*
X110031Y178084D01*
X110102Y178076D01*
X110172Y178059D01*
X110224Y178063D01*
X110275Y178057D01*
X110346Y178072D01*
X110417Y178078D01*
X110465Y178098D01*
X110516Y178109D01*
X110577Y178146D01*
X110643Y178174D01*
X110699Y178219D01*
X110727Y178236D01*
X110742Y178253D01*
X110774Y178279D01*
X112802Y180307D01*
X117198Y180307D01*
X119097Y178408D01*
X119113Y178396D01*
X119126Y178380D01*
X119213Y178324D01*
X119297Y178264D01*
X119316Y178258D01*
X119333Y178247D01*
X119433Y178222D01*
X119532Y178192D01*
X119552Y178192D01*
X119571Y178187D01*
X119674Y178195D01*
X119778Y178198D01*
X119797Y178205D01*
X119816Y178207D01*
X119911Y178247D01*
X120009Y178283D01*
X120025Y178295D01*
X120043Y178303D01*
X120174Y178408D01*
X304053Y362287D01*
X307029Y362287D01*
X307074Y362294D01*
X307120Y362292D01*
X307195Y362314D01*
X307272Y362326D01*
X307312Y362348D01*
X307356Y362361D01*
X307420Y362405D01*
X307489Y362442D01*
X307521Y362475D01*
X307558Y362501D01*
X307605Y362563D01*
X307658Y362620D01*
X307678Y362662D01*
X307705Y362698D01*
X307729Y362772D01*
X307762Y362843D01*
X307767Y362889D01*
X307781Y362932D01*
X307780Y363010D01*
X307789Y363087D01*
X307779Y363132D01*
X307779Y363178D01*
X307741Y363310D01*
X307737Y363328D01*
X307734Y363332D01*
X307732Y363339D01*
X306577Y366127D01*
X306577Y370473D01*
X308240Y374487D01*
X311313Y377560D01*
X315327Y379223D01*
X319673Y379223D01*
X323687Y377560D01*
X326760Y374487D01*
X328423Y370473D01*
X328423Y366127D01*
X326760Y362113D01*
X323687Y359040D01*
X322990Y358751D01*
X322907Y358700D01*
X322821Y358654D01*
X322803Y358635D01*
X322781Y358622D01*
X322719Y358547D01*
X322652Y358476D01*
X322641Y358452D01*
X322624Y358432D01*
X322589Y358341D01*
X322548Y358253D01*
X322545Y358227D01*
X322536Y358203D01*
X322532Y358105D01*
X322521Y358009D01*
X322526Y357983D01*
X322525Y357957D01*
X322552Y357863D01*
X322573Y357768D01*
X322587Y357746D01*
X322594Y357721D01*
X322649Y357641D01*
X322699Y357557D01*
X322719Y357540D01*
X322734Y357519D01*
X322812Y357460D01*
X322886Y357397D01*
X322911Y357387D01*
X322931Y357372D01*
X323024Y357342D01*
X323114Y357305D01*
X323147Y357302D01*
X323165Y357296D01*
X323198Y357296D01*
X323281Y357287D01*
X328737Y357287D01*
X328828Y357301D01*
X328918Y357309D01*
X328948Y357321D01*
X328980Y357326D01*
X329061Y357369D01*
X329145Y357405D01*
X329177Y357431D01*
X329198Y357442D01*
X329201Y357445D01*
X329202Y357446D01*
X329221Y357466D01*
X329276Y357510D01*
X333350Y361584D01*
X333418Y361678D01*
X333488Y361773D01*
X333490Y361779D01*
X333494Y361784D01*
X333528Y361895D01*
X333565Y362007D01*
X333564Y362013D01*
X333566Y362019D01*
X333563Y362136D01*
X333562Y362253D01*
X333560Y362260D01*
X333560Y362265D01*
X333554Y362283D01*
X333515Y362414D01*
X331977Y366127D01*
X331977Y370473D01*
X333640Y374487D01*
X336713Y377560D01*
X340727Y379223D01*
X345073Y379223D01*
X349087Y377560D01*
X352160Y374487D01*
X353823Y370473D01*
X353823Y366127D01*
X352160Y362113D01*
X349087Y359040D01*
X345073Y357377D01*
X340727Y357377D01*
X337580Y358681D01*
X337466Y358708D01*
X337353Y358736D01*
X337346Y358736D01*
X337340Y358737D01*
X337224Y358726D01*
X337107Y358717D01*
X337102Y358715D01*
X337095Y358714D01*
X336988Y358666D01*
X336881Y358621D01*
X336875Y358616D01*
X336871Y358614D01*
X336857Y358601D01*
X336750Y358516D01*
X330947Y352713D01*
X324972Y352713D01*
X324901Y352702D01*
X324829Y352700D01*
X324780Y352682D01*
X324729Y352674D01*
X324666Y352640D01*
X324598Y352615D01*
X324558Y352583D01*
X324511Y352558D01*
X324462Y352506D01*
X324406Y352462D01*
X324378Y352418D01*
X324342Y352380D01*
X324312Y352315D01*
X324273Y352255D01*
X324260Y352204D01*
X324238Y352157D01*
X324231Y352086D01*
X324213Y352016D01*
X324217Y351964D01*
X324211Y351913D01*
X324227Y351842D01*
X324232Y351771D01*
X324253Y351723D01*
X324264Y351672D01*
X324300Y351611D01*
X324329Y351545D01*
X324373Y351489D01*
X324390Y351461D01*
X324408Y351446D01*
X324433Y351414D01*
X326760Y349087D01*
X328423Y345073D01*
X328423Y340727D01*
X326760Y336713D01*
X323687Y333640D01*
X319673Y331977D01*
X315327Y331977D01*
X311313Y333640D01*
X308240Y336713D01*
X306577Y340727D01*
X306577Y345073D01*
X308240Y349087D01*
X310567Y351414D01*
X310609Y351472D01*
X310658Y351524D01*
X310680Y351571D01*
X310710Y351613D01*
X310731Y351682D01*
X310762Y351747D01*
X310767Y351799D01*
X310783Y351849D01*
X310781Y351920D01*
X310789Y351991D01*
X310778Y352042D01*
X310776Y352094D01*
X310752Y352162D01*
X310736Y352232D01*
X310710Y352277D01*
X310692Y352325D01*
X310647Y352381D01*
X310610Y352443D01*
X310571Y352477D01*
X310538Y352517D01*
X310478Y352556D01*
X310423Y352603D01*
X310375Y352622D01*
X310331Y352650D01*
X310262Y352668D01*
X310195Y352695D01*
X310124Y352703D01*
X310093Y352711D01*
X310069Y352709D01*
X310028Y352713D01*
X306263Y352713D01*
X306172Y352699D01*
X306082Y352691D01*
X306052Y352679D01*
X306020Y352674D01*
X305939Y352631D01*
X305855Y352595D01*
X305823Y352569D01*
X305802Y352558D01*
X305780Y352535D01*
X305724Y352490D01*
X211820Y258586D01*
X211778Y258528D01*
X211729Y258476D01*
X211707Y258429D01*
X211677Y258387D01*
X211656Y258318D01*
X211625Y258253D01*
X211620Y258201D01*
X211604Y258151D01*
X211606Y258080D01*
X211598Y258009D01*
X211609Y257958D01*
X211611Y257906D01*
X211635Y257838D01*
X211650Y257768D01*
X211677Y257724D01*
X211695Y257675D01*
X211740Y257619D01*
X211777Y257557D01*
X211816Y257523D01*
X211849Y257483D01*
X211909Y257444D01*
X211964Y257397D01*
X212012Y257378D01*
X212056Y257350D01*
X212125Y257332D01*
X212192Y257305D01*
X212263Y257297D01*
X212294Y257289D01*
X212318Y257291D01*
X212358Y257287D01*
X358427Y257287D01*
X358518Y257301D01*
X358608Y257309D01*
X358638Y257321D01*
X358670Y257326D01*
X358751Y257369D01*
X358835Y257405D01*
X358867Y257431D01*
X358888Y257442D01*
X358910Y257465D01*
X358966Y257510D01*
X382490Y281034D01*
X382543Y281108D01*
X382603Y281178D01*
X382615Y281208D01*
X382634Y281234D01*
X382661Y281321D01*
X382695Y281406D01*
X382699Y281447D01*
X382706Y281469D01*
X382705Y281501D01*
X382713Y281573D01*
X382713Y348737D01*
X382699Y348828D01*
X382691Y348918D01*
X382679Y348948D01*
X382674Y348980D01*
X382631Y349061D01*
X382595Y349145D01*
X382569Y349177D01*
X382558Y349198D01*
X382535Y349220D01*
X382490Y349276D01*
X373601Y358165D01*
X373507Y358232D01*
X373413Y358303D01*
X373407Y358305D01*
X373402Y358308D01*
X373291Y358342D01*
X373179Y358379D01*
X373173Y358379D01*
X373167Y358381D01*
X373050Y358377D01*
X372933Y358376D01*
X372926Y358374D01*
X372921Y358374D01*
X372903Y358368D01*
X372772Y358330D01*
X370473Y357377D01*
X366127Y357377D01*
X362113Y359040D01*
X359040Y362113D01*
X357377Y366127D01*
X357377Y370473D01*
X359040Y374487D01*
X362113Y377560D01*
X366127Y379223D01*
X370473Y379223D01*
X374487Y377560D01*
X377560Y374487D01*
X379223Y370473D01*
X379223Y366127D01*
X377560Y362113D01*
X377379Y361932D01*
X377367Y361916D01*
X377352Y361903D01*
X377296Y361816D01*
X377235Y361732D01*
X377229Y361713D01*
X377219Y361696D01*
X377193Y361596D01*
X377163Y361497D01*
X377163Y361477D01*
X377159Y361458D01*
X377167Y361355D01*
X377169Y361251D01*
X377176Y361232D01*
X377178Y361212D01*
X377218Y361117D01*
X377254Y361020D01*
X377266Y361004D01*
X377274Y360986D01*
X377379Y360855D01*
X385724Y352510D01*
X387287Y350947D01*
X387287Y279363D01*
X360637Y252713D01*
X211263Y252713D01*
X211172Y252699D01*
X211082Y252691D01*
X211052Y252679D01*
X211020Y252674D01*
X210939Y252631D01*
X210855Y252595D01*
X210823Y252569D01*
X210802Y252558D01*
X210780Y252535D01*
X210724Y252490D01*
X167510Y209276D01*
X167457Y209202D01*
X167397Y209132D01*
X167385Y209102D01*
X167366Y209076D01*
X167339Y208989D01*
X167305Y208904D01*
X167301Y208863D01*
X167294Y208841D01*
X167295Y208809D01*
X167287Y208737D01*
X167287Y115533D01*
X167301Y115443D01*
X167309Y115352D01*
X167321Y115323D01*
X167326Y115291D01*
X167369Y115210D01*
X167405Y115126D01*
X167431Y115094D01*
X167442Y115073D01*
X167465Y115051D01*
X167510Y114995D01*
X170307Y112198D01*
X170307Y107802D01*
X167198Y104693D01*
X162802Y104693D01*
X159693Y107802D01*
X159693Y112198D01*
X162490Y114995D01*
X162543Y115069D01*
X162603Y115139D01*
X162615Y115169D01*
X162634Y115195D01*
X162661Y115282D01*
X162695Y115367D01*
X162699Y115408D01*
X162706Y115430D01*
X162705Y115462D01*
X162713Y115533D01*
X162713Y207642D01*
X162702Y207712D01*
X162700Y207784D01*
X162682Y207833D01*
X162674Y207884D01*
X162640Y207948D01*
X162615Y208015D01*
X162583Y208056D01*
X162558Y208102D01*
X162506Y208151D01*
X162462Y208207D01*
X162418Y208235D01*
X162380Y208271D01*
X162315Y208301D01*
X162255Y208340D01*
X162204Y208353D01*
X162157Y208375D01*
X162086Y208383D01*
X162016Y208400D01*
X161964Y208396D01*
X161913Y208402D01*
X161842Y208387D01*
X161771Y208381D01*
X161723Y208361D01*
X161672Y208350D01*
X161611Y208313D01*
X161545Y208285D01*
X161489Y208240D01*
X161461Y208223D01*
X161446Y208206D01*
X161414Y208180D01*
X120530Y167296D01*
X120477Y167222D01*
X120417Y167152D01*
X120405Y167122D01*
X120386Y167096D01*
X120359Y167009D01*
X120325Y166924D01*
X120321Y166883D01*
X120314Y166861D01*
X120315Y166829D01*
X120307Y166757D01*
X120307Y162802D01*
X117198Y159693D01*
X112802Y159693D01*
X110774Y161721D01*
X110716Y161763D01*
X110664Y161812D01*
X110617Y161834D01*
X110575Y161864D01*
X110506Y161886D01*
X110441Y161916D01*
X110389Y161921D01*
X110339Y161937D01*
X110268Y161935D01*
X110197Y161943D01*
X110146Y161932D01*
X110094Y161930D01*
X110026Y161906D01*
X109956Y161891D01*
X109911Y161864D01*
X109863Y161846D01*
X109807Y161801D01*
X109745Y161764D01*
X109711Y161725D01*
X109671Y161692D01*
X109632Y161632D01*
X109585Y161577D01*
X109566Y161529D01*
X109538Y161485D01*
X109520Y161416D01*
X109493Y161349D01*
X109485Y161278D01*
X109477Y161247D01*
X109479Y161224D01*
X109475Y161183D01*
X109475Y130577D01*
X109489Y130487D01*
X109497Y130396D01*
X109509Y130366D01*
X109514Y130334D01*
X109557Y130254D01*
X109593Y130170D01*
X109619Y130138D01*
X109630Y130117D01*
X109653Y130095D01*
X109698Y130039D01*
X128494Y111243D01*
X128552Y111201D01*
X128604Y111152D01*
X128651Y111130D01*
X128693Y111099D01*
X128762Y111078D01*
X128827Y111048D01*
X128879Y111042D01*
X128929Y111027D01*
X129000Y111029D01*
X129071Y111021D01*
X129122Y111032D01*
X129174Y111033D01*
X129242Y111058D01*
X129312Y111073D01*
X129357Y111100D01*
X129405Y111118D01*
X129461Y111163D01*
X129523Y111199D01*
X129557Y111239D01*
X129597Y111271D01*
X129636Y111332D01*
X129683Y111386D01*
X129702Y111435D01*
X129730Y111478D01*
X129748Y111548D01*
X129775Y111614D01*
X129783Y111686D01*
X129791Y111717D01*
X129789Y111740D01*
X129793Y111781D01*
X129793Y118404D01*
X135596Y124207D01*
X143804Y124207D01*
X144550Y123460D01*
X144566Y123449D01*
X144579Y123433D01*
X144666Y123377D01*
X144750Y123317D01*
X144769Y123311D01*
X144785Y123300D01*
X144886Y123275D01*
X144985Y123244D01*
X145005Y123245D01*
X145024Y123240D01*
X145127Y123248D01*
X145231Y123251D01*
X145249Y123258D01*
X145269Y123259D01*
X145364Y123300D01*
X145462Y123335D01*
X145477Y123348D01*
X145496Y123356D01*
X145626Y123460D01*
X145853Y123687D01*
X149577Y123687D01*
X149667Y123701D01*
X149758Y123709D01*
X149787Y123721D01*
X149819Y123726D01*
X149900Y123769D01*
X149984Y123805D01*
X150016Y123831D01*
X150037Y123842D01*
X150059Y123865D01*
X150115Y123910D01*
X152912Y126707D01*
X157308Y126707D01*
X160417Y123598D01*
X160417Y119202D01*
X157308Y116093D01*
X152912Y116093D01*
X150906Y118099D01*
X150848Y118141D01*
X150796Y118190D01*
X150749Y118212D01*
X150707Y118242D01*
X150638Y118264D01*
X150573Y118294D01*
X150521Y118299D01*
X150471Y118315D01*
X150400Y118313D01*
X150329Y118321D01*
X150278Y118310D01*
X150226Y118308D01*
X150158Y118284D01*
X150088Y118269D01*
X150043Y118242D01*
X149995Y118224D01*
X149939Y118179D01*
X149877Y118142D01*
X149843Y118103D01*
X149803Y118070D01*
X149764Y118010D01*
X149717Y117955D01*
X149698Y117907D01*
X149670Y117863D01*
X149652Y117794D01*
X149625Y117727D01*
X149617Y117656D01*
X149609Y117625D01*
X149611Y117602D01*
X149607Y117561D01*
X149607Y110196D01*
X143804Y104393D01*
X137181Y104393D01*
X137110Y104382D01*
X137039Y104380D01*
X136990Y104362D01*
X136938Y104354D01*
X136875Y104320D01*
X136808Y104295D01*
X136767Y104263D01*
X136721Y104238D01*
X136672Y104186D01*
X136616Y104142D01*
X136587Y104098D01*
X136552Y104060D01*
X136521Y103995D01*
X136483Y103935D01*
X136470Y103884D01*
X136448Y103837D01*
X136440Y103766D01*
X136423Y103696D01*
X136427Y103644D01*
X136421Y103593D01*
X136436Y103522D01*
X136442Y103451D01*
X136462Y103403D01*
X136473Y103352D01*
X136510Y103291D01*
X136538Y103225D01*
X136583Y103169D01*
X136599Y103141D01*
X136617Y103126D01*
X136643Y103094D01*
X142739Y96998D01*
X142813Y96945D01*
X142882Y96885D01*
X142912Y96873D01*
X142939Y96854D01*
X143026Y96827D01*
X143110Y96793D01*
X143151Y96789D01*
X143174Y96782D01*
X143206Y96783D01*
X143277Y96775D01*
X217466Y96775D01*
X220361Y95576D01*
X227876Y88061D01*
X229075Y85166D01*
X229075Y83864D01*
X229082Y83819D01*
X229080Y83773D01*
X229102Y83698D01*
X229114Y83621D01*
X229136Y83581D01*
X229149Y83537D01*
X229193Y83473D01*
X229230Y83404D01*
X229263Y83372D01*
X229289Y83335D01*
X229351Y83288D01*
X229408Y83235D01*
X229450Y83215D01*
X229486Y83188D01*
X229560Y83164D01*
X229631Y83131D01*
X229677Y83126D01*
X229720Y83112D01*
X229798Y83112D01*
X229875Y83104D01*
X229920Y83114D01*
X229966Y83114D01*
X230098Y83152D01*
X230116Y83156D01*
X230120Y83159D01*
X230127Y83161D01*
X232334Y84075D01*
X278866Y84075D01*
X281761Y82876D01*
X284083Y80554D01*
X302353Y62283D01*
X302406Y62245D01*
X302453Y62199D01*
X302526Y62159D01*
X302553Y62140D01*
X302572Y62134D01*
X302600Y62118D01*
X304170Y61468D01*
X304283Y61442D01*
X304397Y61413D01*
X304403Y61413D01*
X304409Y61412D01*
X304526Y61423D01*
X304642Y61432D01*
X304648Y61434D01*
X304654Y61435D01*
X304762Y61483D01*
X304868Y61528D01*
X304874Y61533D01*
X304879Y61535D01*
X304893Y61548D01*
X304999Y61633D01*
X322080Y78714D01*
X322133Y78788D01*
X322193Y78858D01*
X322205Y78888D01*
X322224Y78914D01*
X322251Y79001D01*
X322285Y79086D01*
X322289Y79127D01*
X322296Y79149D01*
X322295Y79181D01*
X322303Y79253D01*
X322303Y82967D01*
X322289Y83057D01*
X322281Y83148D01*
X322269Y83177D01*
X322264Y83209D01*
X322221Y83290D01*
X322185Y83374D01*
X322159Y83406D01*
X322148Y83427D01*
X322125Y83449D01*
X322080Y83505D01*
X322013Y83572D01*
X322013Y87968D01*
X325122Y91077D01*
X329518Y91077D01*
X332627Y87968D01*
X332627Y83572D01*
X329518Y80463D01*
X327638Y80463D01*
X327618Y80460D01*
X327599Y80462D01*
X327497Y80440D01*
X327395Y80424D01*
X327378Y80414D01*
X327358Y80410D01*
X327269Y80357D01*
X327178Y80308D01*
X327164Y80294D01*
X327147Y80284D01*
X327080Y80205D01*
X327008Y80130D01*
X327000Y80112D01*
X326987Y80097D01*
X326948Y80001D01*
X326905Y79907D01*
X326903Y79887D01*
X326895Y79869D01*
X326877Y79702D01*
X326877Y77043D01*
X325314Y75480D01*
X308233Y58399D01*
X308166Y58305D01*
X308095Y58211D01*
X308093Y58205D01*
X308090Y58200D01*
X308056Y58089D01*
X308019Y57977D01*
X308019Y57970D01*
X308017Y57964D01*
X308020Y57848D01*
X308021Y57731D01*
X308024Y57724D01*
X308024Y57719D01*
X308030Y57701D01*
X308068Y57570D01*
X309847Y53276D01*
X309847Y48324D01*
X307952Y43749D01*
X304451Y40248D01*
X299876Y38353D01*
X294924Y38353D01*
X290349Y40248D01*
X286848Y43749D01*
X284953Y48324D01*
X284953Y53276D01*
X285970Y55729D01*
X285996Y55843D01*
X286025Y55956D01*
X286024Y55963D01*
X286026Y55969D01*
X286015Y56085D01*
X286006Y56202D01*
X286003Y56207D01*
X286003Y56214D01*
X285955Y56321D01*
X285909Y56428D01*
X285905Y56434D01*
X285903Y56438D01*
X285890Y56452D01*
X285805Y56559D01*
X274261Y68102D01*
X274187Y68155D01*
X274118Y68215D01*
X274088Y68227D01*
X274061Y68246D01*
X273974Y68273D01*
X273890Y68307D01*
X273849Y68311D01*
X273826Y68318D01*
X273794Y68317D01*
X273723Y68325D01*
X237477Y68325D01*
X237387Y68311D01*
X237296Y68303D01*
X237266Y68291D01*
X237234Y68286D01*
X237154Y68243D01*
X237070Y68207D01*
X237038Y68181D01*
X237017Y68170D01*
X236995Y68147D01*
X236939Y68102D01*
X229758Y60921D01*
X229746Y60905D01*
X229731Y60893D01*
X229700Y60845D01*
X229687Y60831D01*
X229676Y60807D01*
X229674Y60805D01*
X229614Y60721D01*
X229608Y60702D01*
X229598Y60686D01*
X229572Y60585D01*
X229542Y60486D01*
X229542Y60466D01*
X229537Y60447D01*
X229546Y60344D01*
X229548Y60240D01*
X229555Y60222D01*
X229557Y60202D01*
X229597Y60107D01*
X229633Y60009D01*
X229645Y59994D01*
X229653Y59976D01*
X229758Y59845D01*
X231752Y57851D01*
X233647Y53276D01*
X233647Y48324D01*
X231752Y43749D01*
X228251Y40248D01*
X223676Y38353D01*
X218724Y38353D01*
X214149Y40248D01*
X210648Y43749D01*
X208753Y48324D01*
X208753Y53276D01*
X210648Y57851D01*
X213102Y60305D01*
X213155Y60379D01*
X213215Y60448D01*
X213227Y60478D01*
X213246Y60504D01*
X213273Y60591D01*
X213307Y60676D01*
X213311Y60717D01*
X213318Y60739D01*
X213317Y60772D01*
X213325Y60843D01*
X213325Y80023D01*
X213311Y80113D01*
X213303Y80204D01*
X213291Y80234D01*
X213286Y80266D01*
X213243Y80346D01*
X213207Y80430D01*
X213181Y80462D01*
X213170Y80483D01*
X213147Y80505D01*
X213102Y80561D01*
X212861Y80802D01*
X212787Y80855D01*
X212718Y80915D01*
X212688Y80927D01*
X212661Y80946D01*
X212574Y80973D01*
X212490Y81007D01*
X212449Y81011D01*
X212426Y81018D01*
X212394Y81017D01*
X212323Y81025D01*
X138134Y81025D01*
X135239Y82224D01*
X132917Y84546D01*
X100106Y117357D01*
X100048Y117399D01*
X99996Y117448D01*
X99949Y117470D01*
X99907Y117501D01*
X99838Y117522D01*
X99773Y117552D01*
X99721Y117558D01*
X99671Y117573D01*
X99600Y117571D01*
X99529Y117579D01*
X99478Y117568D01*
X99426Y117567D01*
X99358Y117542D01*
X99288Y117527D01*
X99243Y117500D01*
X99195Y117482D01*
X99139Y117437D01*
X99077Y117401D01*
X99043Y117361D01*
X99003Y117329D01*
X98964Y117268D01*
X98917Y117214D01*
X98898Y117165D01*
X98870Y117122D01*
X98852Y117052D01*
X98825Y116986D01*
X98817Y116914D01*
X98809Y116883D01*
X98811Y116860D01*
X98807Y116819D01*
X98807Y111175D01*
X98821Y111085D01*
X98829Y110994D01*
X98841Y110965D01*
X98846Y110933D01*
X98889Y110852D01*
X98925Y110768D01*
X98951Y110736D01*
X98962Y110715D01*
X98985Y110693D01*
X99030Y110637D01*
X111671Y97996D01*
X114573Y95094D01*
X114573Y62887D01*
X114592Y62772D01*
X114609Y62656D01*
X114611Y62650D01*
X114612Y62644D01*
X114667Y62541D01*
X114720Y62437D01*
X114725Y62432D01*
X114728Y62427D01*
X114812Y62347D01*
X114896Y62264D01*
X114902Y62261D01*
X114906Y62257D01*
X114923Y62250D01*
X115043Y62184D01*
X117051Y61352D01*
X120552Y57851D01*
X122447Y53276D01*
X122447Y48324D01*
X120552Y43749D01*
X117051Y40248D01*
X112476Y38353D01*
X107524Y38353D01*
G37*
%LPD*%
%LPC*%
G36*
X212811Y181355D02*
X212811Y181355D01*
X209450Y182747D01*
X206877Y185320D01*
X205485Y188681D01*
X205485Y192319D01*
X206877Y195680D01*
X209450Y198253D01*
X212811Y199645D01*
X216449Y199645D01*
X219375Y198433D01*
X219439Y198418D01*
X219500Y198393D01*
X219583Y198384D01*
X219615Y198377D01*
X219634Y198378D01*
X219666Y198375D01*
X410464Y198375D01*
X410484Y198378D01*
X410503Y198376D01*
X410605Y198398D01*
X410707Y198414D01*
X410724Y198424D01*
X410744Y198428D01*
X410833Y198481D01*
X410924Y198530D01*
X410938Y198544D01*
X410955Y198554D01*
X411022Y198633D01*
X411094Y198708D01*
X411102Y198726D01*
X411115Y198741D01*
X411154Y198837D01*
X411197Y198931D01*
X411199Y198951D01*
X411207Y198969D01*
X411225Y199136D01*
X411225Y208012D01*
X411211Y208102D01*
X411203Y208193D01*
X411191Y208223D01*
X411186Y208255D01*
X411143Y208336D01*
X411107Y208420D01*
X411081Y208452D01*
X411070Y208472D01*
X411047Y208495D01*
X411002Y208551D01*
X409840Y209713D01*
X408177Y213727D01*
X408177Y218073D01*
X409840Y222087D01*
X412913Y225160D01*
X416927Y226823D01*
X421273Y226823D01*
X425287Y225160D01*
X428360Y222087D01*
X430023Y218073D01*
X430023Y213727D01*
X428360Y209713D01*
X427198Y208551D01*
X427145Y208477D01*
X427085Y208407D01*
X427073Y208377D01*
X427054Y208351D01*
X427027Y208264D01*
X426993Y208179D01*
X426989Y208138D01*
X426982Y208116D01*
X426983Y208084D01*
X426975Y208012D01*
X426975Y188934D01*
X425776Y186039D01*
X423561Y183824D01*
X420666Y182625D01*
X219666Y182625D01*
X219602Y182615D01*
X219536Y182614D01*
X219456Y182591D01*
X219424Y182586D01*
X219407Y182576D01*
X219375Y182567D01*
X216449Y181355D01*
X212811Y181355D01*
G37*
%LPD*%
%LPC*%
G36*
X366127Y204977D02*
X366127Y204977D01*
X362113Y206640D01*
X359040Y209713D01*
X357377Y213727D01*
X357377Y218073D01*
X359040Y222087D01*
X360202Y223249D01*
X360255Y223323D01*
X360315Y223393D01*
X360327Y223423D01*
X360346Y223449D01*
X360373Y223536D01*
X360407Y223621D01*
X360411Y223662D01*
X360418Y223684D01*
X360417Y223716D01*
X360425Y223788D01*
X360425Y232664D01*
X360422Y232684D01*
X360424Y232703D01*
X360402Y232805D01*
X360386Y232907D01*
X360376Y232924D01*
X360372Y232944D01*
X360319Y233033D01*
X360270Y233124D01*
X360256Y233138D01*
X360246Y233155D01*
X360167Y233222D01*
X360092Y233294D01*
X360074Y233302D01*
X360059Y233315D01*
X359963Y233354D01*
X359869Y233397D01*
X359849Y233399D01*
X359831Y233407D01*
X359664Y233425D01*
X219666Y233425D01*
X219602Y233415D01*
X219536Y233414D01*
X219456Y233391D01*
X219424Y233386D01*
X219407Y233376D01*
X219375Y233367D01*
X216449Y232155D01*
X212811Y232155D01*
X209450Y233547D01*
X206877Y236120D01*
X205485Y239481D01*
X205485Y243119D01*
X206877Y246480D01*
X209450Y249053D01*
X212811Y250445D01*
X216449Y250445D01*
X219375Y249233D01*
X219439Y249218D01*
X219500Y249193D01*
X219583Y249184D01*
X219615Y249177D01*
X219634Y249178D01*
X219666Y249175D01*
X369866Y249175D01*
X372761Y247976D01*
X374976Y245761D01*
X376175Y242866D01*
X376175Y223788D01*
X376189Y223698D01*
X376197Y223607D01*
X376209Y223577D01*
X376214Y223545D01*
X376257Y223464D01*
X376293Y223380D01*
X376319Y223348D01*
X376330Y223328D01*
X376353Y223305D01*
X376398Y223249D01*
X377560Y222087D01*
X379223Y218073D01*
X379223Y213727D01*
X377560Y209713D01*
X374487Y206640D01*
X370473Y204977D01*
X366127Y204977D01*
G37*
%LPD*%
%LPC*%
G36*
X363986Y26415D02*
X363986Y26415D01*
X357885Y32516D01*
X357885Y41144D01*
X363504Y46763D01*
X363557Y46837D01*
X363617Y46906D01*
X363629Y46936D01*
X363648Y46963D01*
X363675Y47050D01*
X363709Y47134D01*
X363713Y47175D01*
X363720Y47198D01*
X363719Y47230D01*
X363727Y47301D01*
X363727Y73991D01*
X363713Y74081D01*
X363705Y74172D01*
X363693Y74201D01*
X363688Y74233D01*
X363645Y74314D01*
X363609Y74398D01*
X363583Y74430D01*
X363572Y74451D01*
X363549Y74473D01*
X363504Y74529D01*
X341229Y96804D01*
X341155Y96857D01*
X341085Y96917D01*
X341055Y96929D01*
X341029Y96948D01*
X340942Y96975D01*
X340857Y97009D01*
X340816Y97013D01*
X340794Y97020D01*
X340762Y97019D01*
X340691Y97027D01*
X226706Y97027D01*
X223804Y99929D01*
X196597Y127136D01*
X196581Y127148D01*
X196568Y127164D01*
X196481Y127220D01*
X196397Y127280D01*
X196378Y127286D01*
X196361Y127297D01*
X196261Y127322D01*
X196162Y127352D01*
X196142Y127352D01*
X196123Y127357D01*
X196020Y127349D01*
X195916Y127346D01*
X195897Y127339D01*
X195878Y127337D01*
X195783Y127297D01*
X195685Y127261D01*
X195669Y127249D01*
X195651Y127241D01*
X195520Y127136D01*
X193280Y124896D01*
X191717Y123333D01*
X183653Y123333D01*
X183563Y123319D01*
X183472Y123311D01*
X183443Y123299D01*
X183411Y123294D01*
X183330Y123251D01*
X183246Y123215D01*
X183214Y123189D01*
X183193Y123178D01*
X183171Y123155D01*
X183115Y123110D01*
X180318Y120313D01*
X175922Y120313D01*
X172813Y123422D01*
X172813Y127818D01*
X175922Y130927D01*
X180318Y130927D01*
X183115Y128130D01*
X183189Y128077D01*
X183259Y128017D01*
X183289Y128005D01*
X183315Y127986D01*
X183402Y127959D01*
X183487Y127925D01*
X183528Y127921D01*
X183550Y127914D01*
X183582Y127915D01*
X183653Y127907D01*
X189508Y127907D01*
X189598Y127921D01*
X189689Y127929D01*
X189718Y127941D01*
X189750Y127946D01*
X189831Y127989D01*
X189915Y128025D01*
X189947Y128051D01*
X189968Y128062D01*
X189990Y128085D01*
X190046Y128130D01*
X192286Y130370D01*
X192298Y130386D01*
X192314Y130399D01*
X192370Y130486D01*
X192430Y130570D01*
X192436Y130589D01*
X192447Y130606D01*
X192472Y130706D01*
X192502Y130805D01*
X192502Y130825D01*
X192507Y130844D01*
X192499Y130947D01*
X192496Y131051D01*
X192489Y131070D01*
X192487Y131090D01*
X192447Y131184D01*
X192411Y131282D01*
X192399Y131298D01*
X192391Y131316D01*
X192286Y131447D01*
X185927Y137806D01*
X185927Y187253D01*
X185913Y187343D01*
X185905Y187434D01*
X185893Y187463D01*
X185888Y187495D01*
X185845Y187576D01*
X185809Y187660D01*
X185783Y187692D01*
X185772Y187713D01*
X185749Y187735D01*
X185704Y187791D01*
X185193Y188302D01*
X185193Y192698D01*
X188302Y195807D01*
X192698Y195807D01*
X195807Y192698D01*
X195807Y188302D01*
X195296Y187791D01*
X195243Y187717D01*
X195183Y187647D01*
X195171Y187617D01*
X195152Y187591D01*
X195125Y187504D01*
X195091Y187419D01*
X195087Y187378D01*
X195080Y187356D01*
X195081Y187324D01*
X195073Y187253D01*
X195073Y141909D01*
X195087Y141819D01*
X195095Y141728D01*
X195107Y141699D01*
X195112Y141667D01*
X195155Y141586D01*
X195191Y141502D01*
X195217Y141470D01*
X195228Y141449D01*
X195251Y141427D01*
X195296Y141371D01*
X230271Y106396D01*
X230345Y106343D01*
X230415Y106283D01*
X230445Y106271D01*
X230471Y106252D01*
X230558Y106225D01*
X230643Y106191D01*
X230684Y106187D01*
X230706Y106180D01*
X230738Y106181D01*
X230809Y106173D01*
X344794Y106173D01*
X372873Y78094D01*
X372873Y47301D01*
X372887Y47211D01*
X372895Y47120D01*
X372907Y47090D01*
X372912Y47058D01*
X372955Y46978D01*
X372991Y46894D01*
X373017Y46862D01*
X373028Y46841D01*
X373051Y46819D01*
X373096Y46763D01*
X378715Y41144D01*
X378715Y32516D01*
X372614Y26415D01*
X363986Y26415D01*
G37*
%LPD*%
%LPC*%
G36*
X465586Y26415D02*
X465586Y26415D01*
X459485Y32516D01*
X459485Y41144D01*
X465104Y46763D01*
X465157Y46837D01*
X465217Y46906D01*
X465229Y46936D01*
X465248Y46963D01*
X465275Y47050D01*
X465309Y47134D01*
X465313Y47175D01*
X465320Y47198D01*
X465319Y47230D01*
X465327Y47301D01*
X465327Y116194D01*
X515904Y166771D01*
X515957Y166845D01*
X516017Y166915D01*
X516029Y166945D01*
X516048Y166971D01*
X516075Y167058D01*
X516109Y167143D01*
X516113Y167184D01*
X516120Y167206D01*
X516119Y167238D01*
X516127Y167309D01*
X516127Y205463D01*
X516108Y205578D01*
X516091Y205694D01*
X516089Y205699D01*
X516088Y205706D01*
X516033Y205808D01*
X515980Y205913D01*
X515975Y205917D01*
X515972Y205923D01*
X515888Y206003D01*
X515804Y206085D01*
X515798Y206089D01*
X515794Y206092D01*
X515777Y206100D01*
X515657Y206166D01*
X514513Y206640D01*
X511440Y209713D01*
X509777Y213727D01*
X509777Y218073D01*
X511440Y222087D01*
X514513Y225160D01*
X518527Y226823D01*
X522873Y226823D01*
X526887Y225160D01*
X529960Y222087D01*
X531623Y218073D01*
X531623Y213727D01*
X529960Y209713D01*
X526887Y206640D01*
X525743Y206166D01*
X525643Y206104D01*
X525543Y206045D01*
X525539Y206040D01*
X525534Y206036D01*
X525459Y205946D01*
X525383Y205858D01*
X525381Y205852D01*
X525377Y205847D01*
X525335Y205739D01*
X525291Y205629D01*
X525290Y205622D01*
X525289Y205617D01*
X525288Y205599D01*
X525273Y205463D01*
X525273Y163206D01*
X474696Y112629D01*
X474643Y112555D01*
X474583Y112485D01*
X474571Y112455D01*
X474552Y112429D01*
X474525Y112342D01*
X474491Y112257D01*
X474487Y112216D01*
X474480Y112194D01*
X474481Y112162D01*
X474473Y112091D01*
X474473Y47301D01*
X474487Y47211D01*
X474495Y47120D01*
X474507Y47090D01*
X474512Y47058D01*
X474555Y46978D01*
X474591Y46894D01*
X474617Y46862D01*
X474628Y46841D01*
X474651Y46819D01*
X474696Y46763D01*
X480315Y41144D01*
X480315Y32516D01*
X474214Y26415D01*
X465586Y26415D01*
G37*
%LPD*%
%LPC*%
G36*
X440186Y28955D02*
X440186Y28955D01*
X434085Y35056D01*
X434085Y43684D01*
X439704Y49303D01*
X439757Y49377D01*
X439817Y49446D01*
X439829Y49476D01*
X439848Y49503D01*
X439875Y49590D01*
X439909Y49674D01*
X439913Y49715D01*
X439920Y49738D01*
X439919Y49770D01*
X439927Y49841D01*
X439927Y116194D01*
X490504Y166771D01*
X490557Y166845D01*
X490617Y166915D01*
X490629Y166945D01*
X490648Y166971D01*
X490675Y167058D01*
X490709Y167143D01*
X490713Y167184D01*
X490720Y167206D01*
X490719Y167238D01*
X490727Y167309D01*
X490727Y205463D01*
X490708Y205578D01*
X490691Y205694D01*
X490689Y205699D01*
X490688Y205706D01*
X490633Y205808D01*
X490580Y205913D01*
X490575Y205917D01*
X490572Y205923D01*
X490488Y206003D01*
X490404Y206085D01*
X490398Y206089D01*
X490394Y206092D01*
X490377Y206100D01*
X490257Y206166D01*
X489113Y206640D01*
X486040Y209713D01*
X484377Y213727D01*
X484377Y218073D01*
X486040Y222087D01*
X489113Y225160D01*
X493127Y226823D01*
X497473Y226823D01*
X501487Y225160D01*
X504560Y222087D01*
X506223Y218073D01*
X506223Y213727D01*
X504560Y209713D01*
X501487Y206640D01*
X500343Y206166D01*
X500243Y206104D01*
X500143Y206045D01*
X500139Y206040D01*
X500134Y206036D01*
X500059Y205946D01*
X499983Y205858D01*
X499981Y205852D01*
X499977Y205847D01*
X499935Y205739D01*
X499891Y205629D01*
X499890Y205622D01*
X499889Y205617D01*
X499888Y205599D01*
X499873Y205463D01*
X499873Y163206D01*
X449296Y112629D01*
X449243Y112555D01*
X449183Y112485D01*
X449171Y112455D01*
X449152Y112429D01*
X449125Y112342D01*
X449091Y112257D01*
X449087Y112216D01*
X449080Y112194D01*
X449081Y112162D01*
X449073Y112091D01*
X449073Y49841D01*
X449087Y49751D01*
X449095Y49660D01*
X449107Y49630D01*
X449112Y49598D01*
X449155Y49518D01*
X449191Y49434D01*
X449217Y49402D01*
X449228Y49381D01*
X449251Y49359D01*
X449296Y49303D01*
X454915Y43684D01*
X454915Y35056D01*
X448814Y28955D01*
X440186Y28955D01*
G37*
%LPD*%
%LPC*%
G36*
X39848Y321559D02*
X39848Y321559D01*
X33448Y323274D01*
X27711Y326586D01*
X23026Y331271D01*
X19714Y337008D01*
X17999Y343408D01*
X17999Y350032D01*
X19714Y356432D01*
X23026Y362169D01*
X27711Y366854D01*
X33448Y370166D01*
X39848Y371881D01*
X46472Y371881D01*
X52872Y370166D01*
X58609Y366854D01*
X63294Y362169D01*
X66606Y356432D01*
X68321Y350032D01*
X68321Y343408D01*
X66606Y337008D01*
X63294Y331271D01*
X58609Y326586D01*
X52872Y323274D01*
X46472Y321559D01*
X39848Y321559D01*
G37*
%LPD*%
%LPC*%
G36*
X223978Y305709D02*
X223978Y305709D01*
X217578Y307424D01*
X211841Y310736D01*
X207156Y315421D01*
X203844Y321158D01*
X202129Y327558D01*
X202129Y334182D01*
X203844Y340582D01*
X207156Y346319D01*
X211841Y351004D01*
X217578Y354316D01*
X223978Y356031D01*
X230602Y356031D01*
X237002Y354316D01*
X242739Y351004D01*
X247424Y346319D01*
X250736Y340582D01*
X252451Y334182D01*
X252451Y327558D01*
X250736Y321158D01*
X247424Y315421D01*
X242739Y310736D01*
X237002Y307424D01*
X230602Y305709D01*
X223978Y305709D01*
G37*
%LPD*%
%LPC*%
G36*
X43798Y128739D02*
X43798Y128739D01*
X37398Y130454D01*
X31661Y133766D01*
X26976Y138451D01*
X23664Y144188D01*
X21949Y150588D01*
X21949Y157212D01*
X23664Y163612D01*
X26976Y169349D01*
X31661Y174034D01*
X37398Y177346D01*
X43798Y179061D01*
X50422Y179061D01*
X56822Y177346D01*
X62559Y174034D01*
X67244Y169349D01*
X70556Y163612D01*
X72271Y157212D01*
X72271Y150588D01*
X70556Y144188D01*
X67244Y138451D01*
X62559Y133766D01*
X56822Y130454D01*
X50422Y128739D01*
X43798Y128739D01*
G37*
%LPD*%
%LPC*%
G36*
X493102Y58193D02*
X493102Y58193D01*
X489993Y61302D01*
X489993Y65698D01*
X490504Y66209D01*
X490557Y66283D01*
X490617Y66353D01*
X490629Y66383D01*
X490648Y66409D01*
X490675Y66496D01*
X490709Y66581D01*
X490713Y66622D01*
X490720Y66644D01*
X490719Y66676D01*
X490727Y66747D01*
X490727Y116194D01*
X541304Y166771D01*
X541357Y166845D01*
X541417Y166915D01*
X541429Y166945D01*
X541448Y166971D01*
X541475Y167058D01*
X541509Y167143D01*
X541513Y167184D01*
X541520Y167206D01*
X541519Y167238D01*
X541527Y167309D01*
X541527Y205463D01*
X541508Y205578D01*
X541491Y205694D01*
X541489Y205699D01*
X541488Y205706D01*
X541433Y205808D01*
X541380Y205913D01*
X541375Y205917D01*
X541372Y205923D01*
X541288Y206003D01*
X541204Y206085D01*
X541198Y206089D01*
X541194Y206092D01*
X541177Y206100D01*
X541057Y206166D01*
X539913Y206640D01*
X536840Y209713D01*
X535177Y213727D01*
X535177Y218073D01*
X536840Y222087D01*
X539913Y225160D01*
X543927Y226823D01*
X548273Y226823D01*
X552287Y225160D01*
X555360Y222087D01*
X557023Y218073D01*
X557023Y213727D01*
X555360Y209713D01*
X552287Y206640D01*
X551143Y206166D01*
X551043Y206104D01*
X550943Y206045D01*
X550939Y206040D01*
X550934Y206036D01*
X550859Y205946D01*
X550783Y205858D01*
X550781Y205852D01*
X550777Y205847D01*
X550735Y205739D01*
X550691Y205629D01*
X550690Y205622D01*
X550689Y205617D01*
X550688Y205599D01*
X550673Y205463D01*
X550673Y163206D01*
X500096Y112629D01*
X500043Y112555D01*
X499983Y112485D01*
X499971Y112455D01*
X499952Y112429D01*
X499925Y112342D01*
X499891Y112257D01*
X499887Y112216D01*
X499880Y112194D01*
X499881Y112162D01*
X499873Y112091D01*
X499873Y66747D01*
X499887Y66657D01*
X499895Y66566D01*
X499907Y66537D01*
X499912Y66505D01*
X499955Y66424D01*
X499991Y66340D01*
X500017Y66308D01*
X500028Y66287D01*
X500051Y66265D01*
X500096Y66209D01*
X500607Y65698D01*
X500607Y61302D01*
X497498Y58193D01*
X493102Y58193D01*
G37*
%LPD*%
%LPC*%
G36*
X163496Y322135D02*
X163496Y322135D01*
X160532Y323363D01*
X158263Y325632D01*
X157035Y328596D01*
X157035Y331804D01*
X158263Y334768D01*
X160532Y337037D01*
X160850Y337169D01*
X160906Y337204D01*
X160966Y337229D01*
X161031Y337281D01*
X161060Y337299D01*
X161072Y337314D01*
X161097Y337334D01*
X198739Y374976D01*
X201634Y376175D01*
X233412Y376175D01*
X233502Y376189D01*
X233593Y376197D01*
X233623Y376209D01*
X233655Y376214D01*
X233736Y376257D01*
X233820Y376293D01*
X233852Y376319D01*
X233872Y376330D01*
X233895Y376353D01*
X233951Y376398D01*
X235113Y377560D01*
X239127Y379223D01*
X243473Y379223D01*
X247487Y377560D01*
X250560Y374487D01*
X252223Y370473D01*
X252223Y366127D01*
X250560Y362113D01*
X247487Y359040D01*
X243473Y357377D01*
X239127Y357377D01*
X235113Y359040D01*
X233951Y360202D01*
X233877Y360255D01*
X233807Y360315D01*
X233777Y360327D01*
X233751Y360346D01*
X233664Y360373D01*
X233579Y360407D01*
X233538Y360411D01*
X233516Y360418D01*
X233484Y360417D01*
X233412Y360425D01*
X206777Y360425D01*
X206687Y360411D01*
X206596Y360403D01*
X206566Y360391D01*
X206534Y360386D01*
X206454Y360343D01*
X206370Y360307D01*
X206338Y360281D01*
X206317Y360270D01*
X206295Y360247D01*
X206239Y360202D01*
X172234Y326197D01*
X172196Y326144D01*
X172150Y326097D01*
X172110Y326024D01*
X172090Y325998D01*
X172085Y325979D01*
X172069Y325950D01*
X171937Y325632D01*
X169668Y323363D01*
X166704Y322135D01*
X163496Y322135D01*
G37*
%LPD*%
%LPC*%
G36*
X136113Y131825D02*
X136113Y131825D01*
X129484Y134571D01*
X124411Y139644D01*
X121665Y146273D01*
X121665Y153447D01*
X124411Y160076D01*
X129484Y165149D01*
X136113Y167895D01*
X143287Y167895D01*
X149916Y165149D01*
X154989Y160076D01*
X157735Y153447D01*
X157735Y146273D01*
X154989Y139644D01*
X149916Y134571D01*
X143287Y131825D01*
X136113Y131825D01*
G37*
%LPD*%
%LPC*%
G36*
X136113Y263905D02*
X136113Y263905D01*
X129484Y266651D01*
X124411Y271724D01*
X121665Y278353D01*
X121665Y285527D01*
X124411Y292156D01*
X129484Y297229D01*
X136113Y299975D01*
X143287Y299975D01*
X149916Y297229D01*
X154989Y292156D01*
X157735Y285527D01*
X157735Y278353D01*
X154989Y271724D01*
X149916Y266651D01*
X143287Y263905D01*
X136113Y263905D01*
G37*
%LPD*%
%LPC*%
G36*
X31324Y38353D02*
X31324Y38353D01*
X26749Y40248D01*
X23248Y43749D01*
X21353Y48324D01*
X21353Y53276D01*
X23248Y57851D01*
X26749Y61352D01*
X31324Y63247D01*
X36276Y63247D01*
X40851Y61352D01*
X44352Y57851D01*
X46247Y53276D01*
X46247Y48324D01*
X44352Y43749D01*
X40851Y40248D01*
X36276Y38353D01*
X31324Y38353D01*
G37*
%LPD*%
%LPC*%
G36*
X66324Y38353D02*
X66324Y38353D01*
X61749Y40248D01*
X58248Y43749D01*
X56353Y48324D01*
X56353Y53276D01*
X58248Y57851D01*
X61749Y61352D01*
X66324Y63247D01*
X71276Y63247D01*
X75851Y61352D01*
X79352Y57851D01*
X81247Y53276D01*
X81247Y48324D01*
X79352Y43749D01*
X75851Y40248D01*
X71276Y38353D01*
X66324Y38353D01*
G37*
%LPD*%
%LPC*%
G36*
X493127Y357377D02*
X493127Y357377D01*
X489113Y359040D01*
X486040Y362113D01*
X484377Y366127D01*
X484377Y370473D01*
X486040Y374487D01*
X489113Y377560D01*
X493127Y379223D01*
X497473Y379223D01*
X501487Y377560D01*
X504560Y374487D01*
X506223Y370473D01*
X506223Y366127D01*
X504560Y362113D01*
X501487Y359040D01*
X497473Y357377D01*
X493127Y357377D01*
G37*
%LPD*%
%LPC*%
G36*
X264527Y331977D02*
X264527Y331977D01*
X260513Y333640D01*
X257440Y336713D01*
X255777Y340727D01*
X255777Y345073D01*
X257440Y349087D01*
X260513Y352160D01*
X264527Y353823D01*
X268873Y353823D01*
X272887Y352160D01*
X275960Y349087D01*
X277623Y345073D01*
X277623Y340727D01*
X275960Y336713D01*
X272887Y333640D01*
X268873Y331977D01*
X264527Y331977D01*
G37*
%LPD*%
%LPC*%
G36*
X340727Y331977D02*
X340727Y331977D01*
X336713Y333640D01*
X333640Y336713D01*
X331977Y340727D01*
X331977Y345073D01*
X333640Y349087D01*
X336713Y352160D01*
X340727Y353823D01*
X345073Y353823D01*
X349087Y352160D01*
X352160Y349087D01*
X353823Y345073D01*
X353823Y340727D01*
X352160Y336713D01*
X349087Y333640D01*
X345073Y331977D01*
X340727Y331977D01*
G37*
%LPD*%
%LPC*%
G36*
X569327Y331977D02*
X569327Y331977D01*
X565313Y333640D01*
X562240Y336713D01*
X560577Y340727D01*
X560577Y345073D01*
X562240Y349087D01*
X565313Y352160D01*
X569327Y353823D01*
X573673Y353823D01*
X577687Y352160D01*
X580760Y349087D01*
X582423Y345073D01*
X582423Y340727D01*
X580760Y336713D01*
X577687Y333640D01*
X573673Y331977D01*
X569327Y331977D01*
G37*
%LPD*%
%LPC*%
G36*
X366127Y331977D02*
X366127Y331977D01*
X362113Y333640D01*
X359040Y336713D01*
X357377Y340727D01*
X357377Y345073D01*
X359040Y349087D01*
X362113Y352160D01*
X366127Y353823D01*
X370473Y353823D01*
X374487Y352160D01*
X377560Y349087D01*
X379223Y345073D01*
X379223Y340727D01*
X377560Y336713D01*
X374487Y333640D01*
X370473Y331977D01*
X366127Y331977D01*
G37*
%LPD*%
%LPC*%
G36*
X340727Y204977D02*
X340727Y204977D01*
X336713Y206640D01*
X333640Y209713D01*
X331977Y213727D01*
X331977Y218073D01*
X333640Y222087D01*
X336713Y225160D01*
X340727Y226823D01*
X345073Y226823D01*
X349087Y225160D01*
X352160Y222087D01*
X353823Y218073D01*
X353823Y213727D01*
X352160Y209713D01*
X349087Y206640D01*
X345073Y204977D01*
X340727Y204977D01*
G37*
%LPD*%
%LPC*%
G36*
X315327Y204977D02*
X315327Y204977D01*
X311313Y206640D01*
X308240Y209713D01*
X306577Y213727D01*
X306577Y218073D01*
X308240Y222087D01*
X311313Y225160D01*
X315327Y226823D01*
X319673Y226823D01*
X323687Y225160D01*
X326760Y222087D01*
X328423Y218073D01*
X328423Y213727D01*
X326760Y209713D01*
X323687Y206640D01*
X319673Y204977D01*
X315327Y204977D01*
G37*
%LPD*%
%LPC*%
G36*
X569327Y306577D02*
X569327Y306577D01*
X565313Y308240D01*
X562240Y311313D01*
X560577Y315327D01*
X560577Y319673D01*
X562240Y323687D01*
X565313Y326760D01*
X569327Y328423D01*
X573673Y328423D01*
X577687Y326760D01*
X580760Y323687D01*
X582423Y319673D01*
X582423Y315327D01*
X580760Y311313D01*
X577687Y308240D01*
X573673Y306577D01*
X569327Y306577D01*
G37*
%LPD*%
%LPC*%
G36*
X569327Y357377D02*
X569327Y357377D01*
X565313Y359040D01*
X562240Y362113D01*
X560577Y366127D01*
X560577Y370473D01*
X562240Y374487D01*
X565313Y377560D01*
X569327Y379223D01*
X573673Y379223D01*
X577687Y377560D01*
X580760Y374487D01*
X582423Y370473D01*
X582423Y366127D01*
X580760Y362113D01*
X577687Y359040D01*
X573673Y357377D01*
X569327Y357377D01*
G37*
%LPD*%
%LPC*%
G36*
X543927Y357377D02*
X543927Y357377D01*
X539913Y359040D01*
X536840Y362113D01*
X535177Y366127D01*
X535177Y370473D01*
X536840Y374487D01*
X539913Y377560D01*
X543927Y379223D01*
X548273Y379223D01*
X552287Y377560D01*
X555360Y374487D01*
X557023Y370473D01*
X557023Y366127D01*
X555360Y362113D01*
X552287Y359040D01*
X548273Y357377D01*
X543927Y357377D01*
G37*
%LPD*%
%LPC*%
G36*
X518527Y357377D02*
X518527Y357377D01*
X514513Y359040D01*
X511440Y362113D01*
X509777Y366127D01*
X509777Y370473D01*
X511440Y374487D01*
X514513Y377560D01*
X518527Y379223D01*
X522873Y379223D01*
X526887Y377560D01*
X529960Y374487D01*
X531623Y370473D01*
X531623Y366127D01*
X529960Y362113D01*
X526887Y359040D01*
X522873Y357377D01*
X518527Y357377D01*
G37*
%LPD*%
%LPC*%
G36*
X467727Y357377D02*
X467727Y357377D01*
X463713Y359040D01*
X460640Y362113D01*
X458977Y366127D01*
X458977Y370473D01*
X460640Y374487D01*
X463713Y377560D01*
X467727Y379223D01*
X472073Y379223D01*
X476087Y377560D01*
X479160Y374487D01*
X480823Y370473D01*
X480823Y366127D01*
X479160Y362113D01*
X476087Y359040D01*
X472073Y357377D01*
X467727Y357377D01*
G37*
%LPD*%
%LPC*%
G36*
X442327Y204977D02*
X442327Y204977D01*
X438313Y206640D01*
X435240Y209713D01*
X433577Y213727D01*
X433577Y218073D01*
X435240Y222087D01*
X438313Y225160D01*
X442327Y226823D01*
X446673Y226823D01*
X450687Y225160D01*
X453760Y222087D01*
X455423Y218073D01*
X455423Y213727D01*
X453760Y209713D01*
X450687Y206640D01*
X446673Y204977D01*
X442327Y204977D01*
G37*
%LPD*%
%LPC*%
G36*
X442327Y357377D02*
X442327Y357377D01*
X438313Y359040D01*
X435240Y362113D01*
X433577Y366127D01*
X433577Y370473D01*
X435240Y374487D01*
X438313Y377560D01*
X442327Y379223D01*
X446673Y379223D01*
X450687Y377560D01*
X453760Y374487D01*
X455423Y370473D01*
X455423Y366127D01*
X453760Y362113D01*
X450687Y359040D01*
X446673Y357377D01*
X442327Y357377D01*
G37*
%LPD*%
%LPC*%
G36*
X416927Y357377D02*
X416927Y357377D01*
X412913Y359040D01*
X409840Y362113D01*
X408177Y366127D01*
X408177Y370473D01*
X409840Y374487D01*
X412913Y377560D01*
X416927Y379223D01*
X421273Y379223D01*
X425287Y377560D01*
X428360Y374487D01*
X430023Y370473D01*
X430023Y366127D01*
X428360Y362113D01*
X425287Y359040D01*
X421273Y357377D01*
X416927Y357377D01*
G37*
%LPD*%
%LPC*%
G36*
X289927Y204977D02*
X289927Y204977D01*
X285913Y206640D01*
X282840Y209713D01*
X281177Y213727D01*
X281177Y218073D01*
X282840Y222087D01*
X285913Y225160D01*
X289927Y226823D01*
X294273Y226823D01*
X298287Y225160D01*
X301360Y222087D01*
X303023Y218073D01*
X303023Y213727D01*
X301360Y209713D01*
X298287Y206640D01*
X294273Y204977D01*
X289927Y204977D01*
G37*
%LPD*%
%LPC*%
G36*
X569327Y204977D02*
X569327Y204977D01*
X565313Y206640D01*
X562240Y209713D01*
X560577Y213727D01*
X560577Y218073D01*
X562240Y222087D01*
X565313Y225160D01*
X569327Y226823D01*
X573673Y226823D01*
X577687Y225160D01*
X580760Y222087D01*
X582423Y218073D01*
X582423Y213727D01*
X580760Y209713D01*
X577687Y206640D01*
X573673Y204977D01*
X569327Y204977D01*
G37*
%LPD*%
%LPC*%
G36*
X467727Y204977D02*
X467727Y204977D01*
X463713Y206640D01*
X460640Y209713D01*
X458977Y213727D01*
X458977Y218073D01*
X460640Y222087D01*
X463713Y225160D01*
X467727Y226823D01*
X472073Y226823D01*
X476087Y225160D01*
X479160Y222087D01*
X480823Y218073D01*
X480823Y213727D01*
X479160Y209713D01*
X476087Y206640D01*
X472073Y204977D01*
X467727Y204977D01*
G37*
%LPD*%
%LPC*%
G36*
X391527Y204977D02*
X391527Y204977D01*
X387513Y206640D01*
X384440Y209713D01*
X382777Y213727D01*
X382777Y218073D01*
X384440Y222087D01*
X387513Y225160D01*
X391527Y226823D01*
X395873Y226823D01*
X399887Y225160D01*
X402960Y222087D01*
X404623Y218073D01*
X404623Y213727D01*
X402960Y209713D01*
X399887Y206640D01*
X395873Y204977D01*
X391527Y204977D01*
G37*
%LPD*%
%LPC*%
G36*
X264527Y204977D02*
X264527Y204977D01*
X260513Y206640D01*
X257440Y209713D01*
X255777Y213727D01*
X255777Y218073D01*
X257440Y222087D01*
X260513Y225160D01*
X264527Y226823D01*
X268873Y226823D01*
X272887Y225160D01*
X275960Y222087D01*
X277623Y218073D01*
X277623Y213727D01*
X275960Y209713D01*
X272887Y206640D01*
X268873Y204977D01*
X264527Y204977D01*
G37*
%LPD*%
%LPC*%
G36*
X569327Y230377D02*
X569327Y230377D01*
X565313Y232040D01*
X562240Y235113D01*
X560577Y239127D01*
X560577Y243473D01*
X562240Y247487D01*
X565313Y250560D01*
X569327Y252223D01*
X573673Y252223D01*
X577687Y250560D01*
X580760Y247487D01*
X582423Y243473D01*
X582423Y239127D01*
X580760Y235113D01*
X577687Y232040D01*
X573673Y230377D01*
X569327Y230377D01*
G37*
%LPD*%
%LPC*%
G36*
X391527Y357377D02*
X391527Y357377D01*
X387513Y359040D01*
X384440Y362113D01*
X382777Y366127D01*
X382777Y370473D01*
X384440Y374487D01*
X387513Y377560D01*
X391527Y379223D01*
X395873Y379223D01*
X399887Y377560D01*
X402960Y374487D01*
X404623Y370473D01*
X404623Y366127D01*
X402960Y362113D01*
X399887Y359040D01*
X395873Y357377D01*
X391527Y357377D01*
G37*
%LPD*%
%LPC*%
G36*
X289927Y357377D02*
X289927Y357377D01*
X285913Y359040D01*
X282840Y362113D01*
X281177Y366127D01*
X281177Y370473D01*
X282840Y374487D01*
X285913Y377560D01*
X289927Y379223D01*
X294273Y379223D01*
X298287Y377560D01*
X301360Y374487D01*
X303023Y370473D01*
X303023Y366127D01*
X301360Y362113D01*
X298287Y359040D01*
X294273Y357377D01*
X289927Y357377D01*
G37*
%LPD*%
%LPC*%
G36*
X264527Y357377D02*
X264527Y357377D01*
X260513Y359040D01*
X257440Y362113D01*
X255777Y366127D01*
X255777Y370473D01*
X257440Y374487D01*
X260513Y377560D01*
X264527Y379223D01*
X268873Y379223D01*
X272887Y377560D01*
X275960Y374487D01*
X277623Y370473D01*
X277623Y366127D01*
X275960Y362113D01*
X272887Y359040D01*
X268873Y357377D01*
X264527Y357377D01*
G37*
%LPD*%
%LPC*%
G36*
X569327Y255777D02*
X569327Y255777D01*
X565313Y257440D01*
X562240Y260513D01*
X560577Y264527D01*
X560577Y268873D01*
X562240Y272887D01*
X565313Y275960D01*
X569327Y277623D01*
X573673Y277623D01*
X577687Y275960D01*
X580760Y272887D01*
X582423Y268873D01*
X582423Y264527D01*
X580760Y260513D01*
X577687Y257440D01*
X573673Y255777D01*
X569327Y255777D01*
G37*
%LPD*%
%LPC*%
G36*
X414786Y26415D02*
X414786Y26415D01*
X408685Y32516D01*
X408685Y41144D01*
X414786Y47245D01*
X423414Y47245D01*
X429515Y41144D01*
X429515Y32516D01*
X423414Y26415D01*
X414786Y26415D01*
G37*
%LPD*%
%LPC*%
G36*
X389386Y28955D02*
X389386Y28955D01*
X383285Y35056D01*
X383285Y43684D01*
X389386Y49785D01*
X398014Y49785D01*
X404115Y43684D01*
X404115Y35056D01*
X398014Y28955D01*
X389386Y28955D01*
G37*
%LPD*%
%LPC*%
G36*
X516386Y26415D02*
X516386Y26415D01*
X510285Y32516D01*
X510285Y41144D01*
X516386Y47245D01*
X525014Y47245D01*
X531115Y41144D01*
X531115Y32516D01*
X525014Y26415D01*
X516386Y26415D01*
G37*
%LPD*%
%LPC*%
G36*
X490986Y28955D02*
X490986Y28955D01*
X484885Y35056D01*
X484885Y43684D01*
X490986Y49785D01*
X499614Y49785D01*
X505715Y43684D01*
X505715Y35056D01*
X499614Y28955D01*
X490986Y28955D01*
G37*
%LPD*%
%LPC*%
G36*
X500976Y269413D02*
X500976Y269413D01*
X495173Y275216D01*
X495173Y283424D01*
X500976Y289227D01*
X509184Y289227D01*
X514987Y283424D01*
X514987Y275216D01*
X509184Y269413D01*
X500976Y269413D01*
G37*
%LPD*%
%LPC*%
G36*
X450176Y269413D02*
X450176Y269413D01*
X444373Y275216D01*
X444373Y283424D01*
X450176Y289227D01*
X458384Y289227D01*
X464187Y283424D01*
X464187Y275216D01*
X458384Y269413D01*
X450176Y269413D01*
G37*
%LPD*%
%LPC*%
G36*
X450446Y306133D02*
X450446Y306133D01*
X444643Y311936D01*
X444643Y320144D01*
X450446Y325947D01*
X458654Y325947D01*
X464457Y320144D01*
X464457Y311936D01*
X458654Y306133D01*
X450446Y306133D01*
G37*
%LPD*%
%LPC*%
G36*
X68031Y232155D02*
X68031Y232155D01*
X64670Y233547D01*
X62097Y236120D01*
X60705Y239481D01*
X60705Y243119D01*
X62097Y246480D01*
X64670Y249053D01*
X68031Y250445D01*
X71669Y250445D01*
X75030Y249053D01*
X77603Y246480D01*
X78995Y243119D01*
X78995Y239481D01*
X77603Y236120D01*
X75030Y233547D01*
X71669Y232155D01*
X68031Y232155D01*
G37*
%LPD*%
%LPC*%
G36*
X146523Y52323D02*
X146523Y52323D01*
X146523Y64189D01*
X148152Y63931D01*
X150168Y63276D01*
X152056Y62314D01*
X153770Y61069D01*
X155269Y59570D01*
X156514Y57856D01*
X157476Y55968D01*
X158131Y53952D01*
X158389Y52323D01*
X146523Y52323D01*
G37*
%LPD*%
%LPC*%
G36*
X187723Y52323D02*
X187723Y52323D01*
X187723Y64189D01*
X189352Y63931D01*
X191368Y63276D01*
X193256Y62314D01*
X194970Y61069D01*
X196469Y59570D01*
X197714Y57856D01*
X198676Y55968D01*
X199331Y53952D01*
X199589Y52323D01*
X187723Y52323D01*
G37*
%LPD*%
%LPC*%
G36*
X263923Y52323D02*
X263923Y52323D01*
X263923Y64189D01*
X265552Y63931D01*
X267568Y63276D01*
X269456Y62314D01*
X271170Y61069D01*
X272669Y59570D01*
X273914Y57856D01*
X274876Y55968D01*
X275531Y53952D01*
X275789Y52323D01*
X263923Y52323D01*
G37*
%LPD*%
%LPC*%
G36*
X187723Y49277D02*
X187723Y49277D01*
X199589Y49277D01*
X199331Y47648D01*
X198676Y45632D01*
X197714Y43744D01*
X196469Y42030D01*
X194970Y40531D01*
X193256Y39286D01*
X191368Y38324D01*
X189352Y37669D01*
X187723Y37411D01*
X187723Y49277D01*
G37*
%LPD*%
%LPC*%
G36*
X146523Y49277D02*
X146523Y49277D01*
X158389Y49277D01*
X158131Y47648D01*
X157476Y45632D01*
X156514Y43744D01*
X155269Y42030D01*
X153770Y40531D01*
X152056Y39286D01*
X150168Y38324D01*
X148152Y37669D01*
X146523Y37411D01*
X146523Y49277D01*
G37*
%LPD*%
%LPC*%
G36*
X263923Y49277D02*
X263923Y49277D01*
X275789Y49277D01*
X275531Y47648D01*
X274876Y45632D01*
X273914Y43744D01*
X272669Y42030D01*
X271170Y40531D01*
X269456Y39286D01*
X267568Y38324D01*
X265552Y37669D01*
X263923Y37411D01*
X263923Y49277D01*
G37*
%LPD*%
%LPC*%
G36*
X249011Y52323D02*
X249011Y52323D01*
X249269Y53952D01*
X249924Y55968D01*
X250886Y57856D01*
X252131Y59570D01*
X253630Y61069D01*
X255344Y62314D01*
X257232Y63276D01*
X259248Y63931D01*
X260877Y64189D01*
X260877Y52323D01*
X249011Y52323D01*
G37*
%LPD*%
%LPC*%
G36*
X172811Y52323D02*
X172811Y52323D01*
X173069Y53952D01*
X173724Y55968D01*
X174686Y57856D01*
X175931Y59570D01*
X177430Y61069D01*
X179144Y62314D01*
X181032Y63276D01*
X183048Y63931D01*
X184677Y64189D01*
X184677Y52323D01*
X172811Y52323D01*
G37*
%LPD*%
%LPC*%
G36*
X131611Y52323D02*
X131611Y52323D01*
X131869Y53952D01*
X132524Y55968D01*
X133486Y57856D01*
X134731Y59570D01*
X136230Y61069D01*
X137944Y62314D01*
X139832Y63276D01*
X141848Y63931D01*
X143477Y64189D01*
X143477Y52323D01*
X131611Y52323D01*
G37*
%LPD*%
%LPC*%
G36*
X141848Y37669D02*
X141848Y37669D01*
X139832Y38324D01*
X137944Y39286D01*
X136230Y40531D01*
X134731Y42030D01*
X133486Y43744D01*
X132524Y45632D01*
X131869Y47648D01*
X131611Y49277D01*
X143477Y49277D01*
X143477Y37411D01*
X141848Y37669D01*
G37*
%LPD*%
%LPC*%
G36*
X183048Y37669D02*
X183048Y37669D01*
X181032Y38324D01*
X179144Y39286D01*
X177430Y40531D01*
X175931Y42030D01*
X174686Y43744D01*
X173724Y45632D01*
X173069Y47648D01*
X172811Y49277D01*
X184677Y49277D01*
X184677Y37411D01*
X183048Y37669D01*
G37*
%LPD*%
%LPC*%
G36*
X259248Y37669D02*
X259248Y37669D01*
X257232Y38324D01*
X255344Y39286D01*
X253630Y40531D01*
X252131Y42030D01*
X250886Y43744D01*
X249924Y45632D01*
X249269Y47648D01*
X249011Y49277D01*
X260877Y49277D01*
X260877Y37411D01*
X259248Y37669D01*
G37*
%LPD*%
%LPC*%
G36*
X242823Y217423D02*
X242823Y217423D01*
X242823Y227746D01*
X244096Y227545D01*
X245883Y226964D01*
X247557Y226111D01*
X249078Y225006D01*
X250406Y223678D01*
X251511Y222157D01*
X252364Y220483D01*
X252945Y218696D01*
X253146Y217423D01*
X242823Y217423D01*
G37*
%LPD*%
%LPC*%
G36*
X573023Y293623D02*
X573023Y293623D01*
X573023Y303946D01*
X574296Y303745D01*
X576083Y303164D01*
X577757Y302311D01*
X579278Y301206D01*
X580606Y299878D01*
X581711Y298357D01*
X582564Y296683D01*
X583145Y294896D01*
X583346Y293623D01*
X573023Y293623D01*
G37*
%LPD*%
%LPC*%
G36*
X229454Y217423D02*
X229454Y217423D01*
X229655Y218696D01*
X230236Y220483D01*
X231089Y222157D01*
X232194Y223678D01*
X233522Y225006D01*
X235043Y226111D01*
X236717Y226964D01*
X238504Y227545D01*
X239777Y227746D01*
X239777Y217423D01*
X229454Y217423D01*
G37*
%LPD*%
%LPC*%
G36*
X573023Y290577D02*
X573023Y290577D01*
X583346Y290577D01*
X583145Y289304D01*
X582564Y287517D01*
X581711Y285843D01*
X580606Y284322D01*
X579278Y282994D01*
X577757Y281889D01*
X576083Y281036D01*
X574296Y280455D01*
X573023Y280254D01*
X573023Y290577D01*
G37*
%LPD*%
%LPC*%
G36*
X559654Y293623D02*
X559654Y293623D01*
X559855Y294896D01*
X560436Y296683D01*
X561289Y298357D01*
X562394Y299878D01*
X563722Y301206D01*
X565243Y302311D01*
X566917Y303164D01*
X568704Y303745D01*
X569977Y303946D01*
X569977Y293623D01*
X559654Y293623D01*
G37*
%LPD*%
%LPC*%
G36*
X242823Y214377D02*
X242823Y214377D01*
X253146Y214377D01*
X252945Y213104D01*
X252364Y211317D01*
X251511Y209643D01*
X250406Y208122D01*
X249078Y206794D01*
X247557Y205689D01*
X245883Y204836D01*
X244096Y204255D01*
X242823Y204054D01*
X242823Y214377D01*
G37*
%LPD*%
%LPC*%
G36*
X568704Y280455D02*
X568704Y280455D01*
X566917Y281036D01*
X565243Y281889D01*
X563722Y282994D01*
X562394Y284322D01*
X561289Y285843D01*
X560436Y287517D01*
X559855Y289304D01*
X559654Y290577D01*
X569977Y290577D01*
X569977Y280254D01*
X568704Y280455D01*
G37*
%LPD*%
%LPC*%
G36*
X238504Y204255D02*
X238504Y204255D01*
X236717Y204836D01*
X235043Y205689D01*
X233522Y206794D01*
X232194Y208122D01*
X231089Y209643D01*
X230236Y211317D01*
X229655Y213104D01*
X229454Y214377D01*
X239777Y214377D01*
X239777Y204054D01*
X238504Y204255D01*
G37*
%LPD*%
%LPC*%
G36*
X344423Y40893D02*
X344423Y40893D01*
X344423Y50801D01*
X347635Y50801D01*
X354331Y44105D01*
X354331Y40893D01*
X344423Y40893D01*
G37*
%LPD*%
%LPC*%
G36*
X331469Y40893D02*
X331469Y40893D01*
X331469Y44105D01*
X338165Y50801D01*
X341377Y50801D01*
X341377Y40893D01*
X331469Y40893D01*
G37*
%LPD*%
%LPC*%
G36*
X344423Y27939D02*
X344423Y27939D01*
X344423Y37847D01*
X354331Y37847D01*
X354331Y34635D01*
X347635Y27939D01*
X344423Y27939D01*
G37*
%LPD*%
%LPC*%
G36*
X338165Y27939D02*
X338165Y27939D01*
X331469Y34635D01*
X331469Y37847D01*
X341377Y37847D01*
X341377Y27939D01*
X338165Y27939D01*
G37*
%LPD*%
%LPC*%
G36*
X405273Y317563D02*
X405273Y317563D01*
X405273Y326963D01*
X408274Y326963D01*
X414673Y320564D01*
X414673Y317563D01*
X405273Y317563D01*
G37*
%LPD*%
%LPC*%
G36*
X405273Y305117D02*
X405273Y305117D01*
X405273Y314517D01*
X414673Y314517D01*
X414673Y311516D01*
X408274Y305117D01*
X405273Y305117D01*
G37*
%LPD*%
%LPC*%
G36*
X392827Y317563D02*
X392827Y317563D01*
X392827Y320564D01*
X399226Y326963D01*
X402227Y326963D01*
X402227Y317563D01*
X392827Y317563D01*
G37*
%LPD*%
%LPC*%
G36*
X399226Y305117D02*
X399226Y305117D01*
X392827Y311516D01*
X392827Y314517D01*
X402227Y314517D01*
X402227Y305117D01*
X399226Y305117D01*
G37*
%LPD*%
%LPC*%
G36*
X216153Y217423D02*
X216153Y217423D01*
X216153Y225946D01*
X217009Y225811D01*
X218530Y225316D01*
X219955Y224590D01*
X221249Y223650D01*
X222380Y222519D01*
X223320Y221225D01*
X224046Y219800D01*
X224541Y218279D01*
X224676Y217423D01*
X216153Y217423D01*
G37*
%LPD*%
%LPC*%
G36*
X71373Y192023D02*
X71373Y192023D01*
X71373Y200546D01*
X72229Y200411D01*
X73750Y199916D01*
X75175Y199190D01*
X76469Y198250D01*
X77600Y197119D01*
X78540Y195825D01*
X79266Y194400D01*
X79761Y192879D01*
X79896Y192023D01*
X71373Y192023D01*
G37*
%LPD*%
%LPC*%
G36*
X204584Y217423D02*
X204584Y217423D01*
X204719Y218279D01*
X205214Y219800D01*
X205940Y221225D01*
X206880Y222519D01*
X208011Y223650D01*
X209305Y224590D01*
X210730Y225316D01*
X212251Y225811D01*
X213107Y225946D01*
X213107Y217423D01*
X204584Y217423D01*
G37*
%LPD*%
%LPC*%
G36*
X59804Y192023D02*
X59804Y192023D01*
X59939Y192879D01*
X60434Y194400D01*
X61160Y195825D01*
X62100Y197119D01*
X63231Y198250D01*
X64525Y199190D01*
X65950Y199916D01*
X67471Y200411D01*
X68327Y200546D01*
X68327Y192023D01*
X59804Y192023D01*
G37*
%LPD*%
%LPC*%
G36*
X216153Y214377D02*
X216153Y214377D01*
X224676Y214377D01*
X224541Y213521D01*
X224046Y212000D01*
X223320Y210575D01*
X222380Y209281D01*
X221249Y208150D01*
X219955Y207210D01*
X218530Y206484D01*
X217009Y205989D01*
X216153Y205854D01*
X216153Y214377D01*
G37*
%LPD*%
%LPC*%
G36*
X71373Y188977D02*
X71373Y188977D01*
X79896Y188977D01*
X79761Y188121D01*
X79266Y186600D01*
X78540Y185175D01*
X77600Y183881D01*
X76469Y182750D01*
X75175Y181810D01*
X73750Y181084D01*
X72229Y180589D01*
X71373Y180454D01*
X71373Y188977D01*
G37*
%LPD*%
%LPC*%
G36*
X212251Y205989D02*
X212251Y205989D01*
X210730Y206484D01*
X209305Y207210D01*
X208011Y208150D01*
X206880Y209281D01*
X205940Y210575D01*
X205214Y212000D01*
X204719Y213521D01*
X204584Y214377D01*
X213107Y214377D01*
X213107Y205854D01*
X212251Y205989D01*
G37*
%LPD*%
%LPC*%
G36*
X67471Y180589D02*
X67471Y180589D01*
X65950Y181084D01*
X64525Y181810D01*
X63231Y182750D01*
X62100Y183881D01*
X61160Y185175D01*
X60434Y186600D01*
X59939Y188121D01*
X59804Y188977D01*
X68327Y188977D01*
X68327Y180454D01*
X67471Y180589D01*
G37*
%LPD*%
%LPC*%
G36*
X141223Y331723D02*
X141223Y331723D01*
X141223Y339156D01*
X142349Y338932D01*
X144001Y338247D01*
X145489Y337253D01*
X146753Y335989D01*
X147747Y334501D01*
X148432Y332849D01*
X148656Y331723D01*
X141223Y331723D01*
G37*
%LPD*%
%LPC*%
G36*
X130744Y331723D02*
X130744Y331723D01*
X130968Y332849D01*
X131653Y334501D01*
X132647Y335989D01*
X133911Y337253D01*
X135399Y338247D01*
X137051Y338932D01*
X138177Y339156D01*
X138177Y331723D01*
X130744Y331723D01*
G37*
%LPD*%
%LPC*%
G36*
X141223Y328677D02*
X141223Y328677D01*
X148656Y328677D01*
X148432Y327551D01*
X147747Y325899D01*
X146753Y324411D01*
X145489Y323147D01*
X144001Y322153D01*
X142349Y321468D01*
X141223Y321244D01*
X141223Y328677D01*
G37*
%LPD*%
%LPC*%
G36*
X137051Y321468D02*
X137051Y321468D01*
X135399Y322153D01*
X133911Y323147D01*
X132647Y324411D01*
X131653Y325899D01*
X130968Y327551D01*
X130744Y328677D01*
X138177Y328677D01*
X138177Y321244D01*
X137051Y321468D01*
G37*
%LPD*%
%LPC*%
G36*
X571499Y292099D02*
X571499Y292099D01*
X571499Y292101D01*
X571501Y292101D01*
X571501Y292099D01*
X571499Y292099D01*
G37*
%LPD*%
%LPC*%
G36*
X214629Y215899D02*
X214629Y215899D01*
X214629Y215901D01*
X214631Y215901D01*
X214631Y215899D01*
X214629Y215899D01*
G37*
%LPD*%
%LPC*%
G36*
X241299Y215899D02*
X241299Y215899D01*
X241299Y215901D01*
X241301Y215901D01*
X241301Y215899D01*
X241299Y215899D01*
G37*
%LPD*%
%LPC*%
G36*
X403749Y316039D02*
X403749Y316039D01*
X403749Y316041D01*
X403751Y316041D01*
X403751Y316039D01*
X403749Y316039D01*
G37*
%LPD*%
%LPC*%
G36*
X186199Y50799D02*
X186199Y50799D01*
X186199Y50801D01*
X186201Y50801D01*
X186201Y50799D01*
X186199Y50799D01*
G37*
%LPD*%
%LPC*%
G36*
X144999Y50799D02*
X144999Y50799D01*
X144999Y50801D01*
X145001Y50801D01*
X145001Y50799D01*
X144999Y50799D01*
G37*
%LPD*%
%LPC*%
G36*
X69849Y190499D02*
X69849Y190499D01*
X69849Y190501D01*
X69851Y190501D01*
X69851Y190499D01*
X69849Y190499D01*
G37*
%LPD*%
%LPC*%
G36*
X139699Y330199D02*
X139699Y330199D01*
X139699Y330201D01*
X139701Y330201D01*
X139701Y330199D01*
X139699Y330199D01*
G37*
%LPD*%
%LPC*%
G36*
X342899Y39369D02*
X342899Y39369D01*
X342899Y39371D01*
X342901Y39371D01*
X342901Y39369D01*
X342899Y39369D01*
G37*
%LPD*%
%LPC*%
G36*
X262399Y50799D02*
X262399Y50799D01*
X262399Y50801D01*
X262401Y50801D01*
X262401Y50799D01*
X262399Y50799D01*
G37*
%LPD*%
D10*
X571500Y368300D03*
X546100Y368300D03*
X520700Y368300D03*
X495300Y368300D03*
X469900Y368300D03*
X444500Y368300D03*
X419100Y368300D03*
X393700Y368300D03*
X368300Y368300D03*
X342900Y368300D03*
X317500Y368300D03*
X292100Y368300D03*
X266700Y368300D03*
X241300Y368300D03*
X571500Y215900D03*
X546100Y215900D03*
X520700Y215900D03*
X495300Y215900D03*
X469900Y215900D03*
X444500Y215900D03*
X419100Y215900D03*
X393700Y215900D03*
X368300Y215900D03*
X342900Y215900D03*
X317500Y215900D03*
X292100Y215900D03*
X266700Y215900D03*
X241300Y215900D03*
X571500Y342900D03*
X571500Y317500D03*
X571500Y292100D03*
X571500Y266700D03*
X571500Y241300D03*
X368300Y342900D03*
X342900Y342900D03*
X317500Y342900D03*
X266700Y342900D03*
D11*
X214630Y215900D03*
X69850Y241300D03*
D12*
X139700Y281940D03*
X139700Y149860D03*
D11*
X69850Y190500D03*
X214630Y241300D03*
X214630Y190500D03*
D13*
X342900Y39370D03*
X368300Y36830D03*
X393700Y39370D03*
X419100Y36830D03*
X444500Y39370D03*
X469900Y36830D03*
X495300Y39370D03*
X520700Y36830D03*
D14*
X114300Y330200D03*
X139700Y330200D03*
X165100Y330200D03*
D15*
X221200Y50800D03*
X186200Y50800D03*
X68800Y50800D03*
X33800Y50800D03*
X145000Y50800D03*
X110000Y50800D03*
X297400Y50800D03*
X262400Y50800D03*
D16*
X88900Y114300D03*
X139700Y114300D03*
X454280Y279320D03*
X505080Y279320D03*
X403750Y316040D03*
X454550Y316040D03*
D17*
X30510Y298860D03*
X52870Y281340D03*
X24770Y242050D03*
X29300Y185540D03*
X87010Y75850D03*
X184590Y111510D03*
X151360Y244770D03*
X348630Y127990D03*
X390020Y99720D03*
X545310Y96700D03*
X438360Y289800D03*
X481560Y261700D03*
X318720Y287080D03*
X204260Y309280D03*
X347610Y289250D03*
X498680Y320600D03*
D18*
X203200Y368300D02*
X165100Y330200D01*
X203200Y368300D02*
X241300Y368300D01*
D19*
X546100Y215900D02*
X546100Y165100D01*
X495300Y114300D02*
X495300Y63500D01*
D17*
X495300Y63500D03*
D19*
X495300Y114300D02*
X546100Y165100D01*
X495300Y165100D02*
X495300Y215900D01*
X495300Y165100D02*
X444500Y114300D01*
X444500Y39370D01*
X520700Y165100D02*
X520700Y215900D01*
X520700Y165100D02*
X469900Y114300D01*
X469900Y36830D01*
D20*
X330000Y355000D02*
X340000Y365000D01*
X330000Y355000D02*
X305000Y355000D01*
X115000Y165000D01*
X340000Y365000D02*
X342900Y368300D01*
D17*
X115000Y165000D03*
D20*
X310000Y360000D02*
X315000Y365000D01*
X310000Y360000D02*
X305000Y360000D01*
X120000Y175000D01*
X115000Y175000D01*
X315000Y365000D02*
X317500Y368300D01*
D17*
X115000Y175000D03*
D18*
X214630Y190500D02*
X419100Y190500D01*
X419100Y215900D01*
X368300Y241300D02*
X214630Y241300D01*
X368300Y241300D02*
X368300Y215900D01*
X233900Y76200D02*
X221200Y63500D01*
X221200Y50800D01*
X297400Y50800D02*
X297400Y56100D01*
X277300Y76200D01*
X233900Y76200D01*
X101600Y317500D02*
X114300Y330200D01*
X101600Y317500D02*
X101600Y127000D01*
X139700Y88900D01*
X215900Y88900D01*
X221200Y83600D01*
X221200Y50800D01*
D20*
X297400Y50800D02*
X324590Y77990D01*
X324590Y85770D01*
X327320Y85770D01*
D17*
X327320Y85770D03*
D20*
X385000Y350000D02*
X370000Y365000D01*
X359690Y255000D02*
X210000Y255000D01*
X359690Y255000D02*
X385000Y280310D01*
X385000Y350000D01*
X210000Y255000D02*
X165000Y210000D01*
X165000Y110000D01*
X370000Y365000D02*
X368300Y368300D01*
D17*
X165000Y110000D03*
D19*
X110000Y93200D02*
X88900Y114300D01*
X110000Y93200D02*
X110000Y50800D01*
D17*
X190500Y190500D03*
D19*
X190500Y139700D01*
X197675Y132525D01*
X228600Y101600D01*
X342900Y101600D01*
X368300Y76200D01*
X368300Y36830D01*
D20*
X146800Y121400D02*
X139700Y114300D01*
X146800Y121400D02*
X155110Y121400D01*
D17*
X155110Y121400D03*
X178120Y125620D03*
D20*
X190770Y125620D01*
X197675Y132525D01*
M02*
