G04 EAGLE Gerber RS-274X export*
G75*
%MOMM*%
%FSLAX34Y34*%
%LPD*%
%INBottom Copper*%
%IPPOS*%
%AMOC8*
5,1,8,0,0,1.08239X$1,22.5*%
G01*
%ADD10C,1.879600*%
%ADD11C,1.524000*%
%ADD12C,3.302000*%
%ADD13P,1.924489X8X112.500000*%
%ADD14C,1.308000*%
%ADD15C,2.184400*%
%ADD16P,1.814519X8X22.500000*%
%ADD17C,0.756400*%
%ADD18C,0.152400*%
%ADD19C,0.609600*%
%ADD20C,1.270000*%

G36*
X589098Y10164D02*
X589098Y10164D01*
X589117Y10162D01*
X589219Y10184D01*
X589321Y10200D01*
X589338Y10210D01*
X589358Y10214D01*
X589447Y10267D01*
X589538Y10316D01*
X589552Y10330D01*
X589569Y10340D01*
X589636Y10419D01*
X589708Y10494D01*
X589716Y10512D01*
X589729Y10527D01*
X589768Y10623D01*
X589811Y10717D01*
X589813Y10737D01*
X589821Y10755D01*
X589839Y10922D01*
X589839Y28237D01*
X589832Y28284D01*
X589833Y28332D01*
X589812Y28405D01*
X589800Y28480D01*
X589777Y28522D01*
X589763Y28568D01*
X589720Y28630D01*
X589684Y28697D01*
X589650Y28730D01*
X589622Y28769D01*
X589561Y28814D01*
X589506Y28867D01*
X589463Y28887D01*
X589424Y28915D01*
X589352Y28938D01*
X589283Y28970D01*
X589235Y28975D01*
X589190Y28990D01*
X589114Y28989D01*
X589039Y28997D01*
X588992Y28987D01*
X588944Y28986D01*
X588872Y28961D01*
X588798Y28945D01*
X588757Y28920D01*
X588712Y28904D01*
X588652Y28858D01*
X588587Y28819D01*
X588556Y28782D01*
X588518Y28753D01*
X588442Y28649D01*
X588427Y28632D01*
X588425Y28626D01*
X588419Y28618D01*
X587174Y26461D01*
X582489Y21776D01*
X576752Y18464D01*
X570352Y16749D01*
X563728Y16749D01*
X557328Y18464D01*
X551591Y21776D01*
X546906Y26461D01*
X543594Y32198D01*
X541879Y38598D01*
X541879Y45222D01*
X543594Y51622D01*
X546906Y57359D01*
X551591Y62044D01*
X557328Y65356D01*
X563728Y67071D01*
X570352Y67071D01*
X576752Y65356D01*
X582489Y62044D01*
X587174Y57359D01*
X588419Y55202D01*
X588449Y55165D01*
X588472Y55123D01*
X588526Y55071D01*
X588575Y55012D01*
X588615Y54986D01*
X588650Y54953D01*
X588719Y54922D01*
X588783Y54881D01*
X588830Y54870D01*
X588873Y54850D01*
X588948Y54842D01*
X589022Y54824D01*
X589070Y54828D01*
X589117Y54823D01*
X589192Y54839D01*
X589267Y54846D01*
X589311Y54865D01*
X589358Y54875D01*
X589423Y54914D01*
X589492Y54944D01*
X589528Y54977D01*
X589569Y55001D01*
X589618Y55059D01*
X589674Y55110D01*
X589698Y55152D01*
X589729Y55188D01*
X589757Y55258D01*
X589794Y55325D01*
X589803Y55372D01*
X589821Y55416D01*
X589835Y55545D01*
X589839Y55566D01*
X589838Y55573D01*
X589839Y55583D01*
X589839Y399078D01*
X589836Y399098D01*
X589838Y399117D01*
X589816Y399219D01*
X589800Y399321D01*
X589790Y399338D01*
X589786Y399358D01*
X589733Y399447D01*
X589684Y399538D01*
X589670Y399552D01*
X589660Y399569D01*
X589581Y399636D01*
X589506Y399708D01*
X589488Y399716D01*
X589473Y399729D01*
X589377Y399768D01*
X589283Y399811D01*
X589263Y399813D01*
X589245Y399821D01*
X589078Y399839D01*
X10922Y399839D01*
X10902Y399836D01*
X10883Y399838D01*
X10781Y399816D01*
X10679Y399800D01*
X10662Y399790D01*
X10642Y399786D01*
X10553Y399733D01*
X10462Y399684D01*
X10448Y399670D01*
X10431Y399660D01*
X10364Y399581D01*
X10292Y399506D01*
X10284Y399488D01*
X10271Y399473D01*
X10232Y399377D01*
X10189Y399283D01*
X10187Y399263D01*
X10179Y399245D01*
X10161Y399078D01*
X10161Y10922D01*
X10164Y10902D01*
X10162Y10883D01*
X10184Y10781D01*
X10200Y10679D01*
X10210Y10662D01*
X10214Y10642D01*
X10267Y10553D01*
X10316Y10462D01*
X10330Y10448D01*
X10340Y10431D01*
X10419Y10364D01*
X10494Y10292D01*
X10512Y10284D01*
X10527Y10271D01*
X10623Y10232D01*
X10717Y10189D01*
X10737Y10187D01*
X10755Y10179D01*
X10922Y10161D01*
X589078Y10161D01*
X589098Y10164D01*
G37*
%LPC*%
G36*
X176234Y157225D02*
X176234Y157225D01*
X173339Y158424D01*
X98561Y233202D01*
X98487Y233255D01*
X98418Y233315D01*
X98388Y233327D01*
X98361Y233346D01*
X98274Y233373D01*
X98190Y233407D01*
X98149Y233411D01*
X98126Y233418D01*
X98094Y233417D01*
X98023Y233425D01*
X74886Y233425D01*
X74822Y233415D01*
X74756Y233414D01*
X74676Y233391D01*
X74644Y233386D01*
X74627Y233376D01*
X74595Y233367D01*
X71669Y232155D01*
X68031Y232155D01*
X64670Y233547D01*
X62097Y236120D01*
X60705Y239481D01*
X60705Y243119D01*
X62097Y246480D01*
X64670Y249053D01*
X68031Y250445D01*
X71669Y250445D01*
X74595Y249233D01*
X74659Y249218D01*
X74720Y249193D01*
X74803Y249184D01*
X74835Y249177D01*
X74854Y249178D01*
X74886Y249175D01*
X103166Y249175D01*
X106061Y247976D01*
X180839Y173198D01*
X180913Y173145D01*
X180982Y173085D01*
X181012Y173073D01*
X181039Y173054D01*
X181126Y173027D01*
X181210Y172993D01*
X181251Y172989D01*
X181274Y172982D01*
X181306Y172983D01*
X181377Y172975D01*
X435864Y172975D01*
X435884Y172978D01*
X435903Y172976D01*
X436005Y172998D01*
X436107Y173014D01*
X436124Y173024D01*
X436144Y173028D01*
X436233Y173081D01*
X436324Y173130D01*
X436338Y173144D01*
X436355Y173154D01*
X436422Y173233D01*
X436494Y173308D01*
X436502Y173326D01*
X436515Y173341D01*
X436554Y173437D01*
X436597Y173531D01*
X436599Y173551D01*
X436607Y173569D01*
X436625Y173736D01*
X436625Y208012D01*
X436611Y208102D01*
X436603Y208193D01*
X436591Y208223D01*
X436586Y208255D01*
X436543Y208336D01*
X436507Y208420D01*
X436481Y208452D01*
X436470Y208472D01*
X436447Y208495D01*
X436402Y208551D01*
X435240Y209713D01*
X433577Y213727D01*
X433577Y218073D01*
X435240Y222087D01*
X438313Y225160D01*
X442327Y226823D01*
X446673Y226823D01*
X450687Y225160D01*
X453760Y222087D01*
X455423Y218073D01*
X455423Y213727D01*
X453760Y209713D01*
X452598Y208551D01*
X452545Y208477D01*
X452485Y208407D01*
X452473Y208377D01*
X452454Y208351D01*
X452427Y208264D01*
X452393Y208179D01*
X452389Y208138D01*
X452382Y208116D01*
X452383Y208084D01*
X452375Y208012D01*
X452375Y163534D01*
X451176Y160639D01*
X448961Y158424D01*
X446066Y157225D01*
X176234Y157225D01*
G37*
%LPD*%
%LPC*%
G36*
X248733Y18353D02*
X248733Y18353D01*
X237573Y29513D01*
X237573Y78877D01*
X237559Y78968D01*
X237551Y79058D01*
X237539Y79088D01*
X237534Y79120D01*
X237491Y79201D01*
X237455Y79285D01*
X237429Y79317D01*
X237418Y79338D01*
X237395Y79360D01*
X237350Y79416D01*
X156492Y160274D01*
X156413Y160331D01*
X156338Y160393D01*
X156314Y160402D01*
X156293Y160417D01*
X156200Y160446D01*
X156109Y160481D01*
X156083Y160482D01*
X156058Y160490D01*
X155960Y160487D01*
X155863Y160491D01*
X155838Y160484D01*
X155812Y160483D01*
X155720Y160450D01*
X155627Y160423D01*
X155605Y160408D01*
X155581Y160399D01*
X155505Y160338D01*
X155425Y160282D01*
X155409Y160261D01*
X155389Y160245D01*
X155336Y160163D01*
X155278Y160085D01*
X155270Y160060D01*
X155256Y160038D01*
X155232Y159944D01*
X155202Y159851D01*
X155202Y159825D01*
X155196Y159800D01*
X155203Y159703D01*
X155204Y159605D01*
X155213Y159574D01*
X155215Y159554D01*
X155228Y159524D01*
X155251Y159444D01*
X157735Y153447D01*
X157735Y146273D01*
X154989Y139644D01*
X149916Y134571D01*
X143287Y131825D01*
X136113Y131825D01*
X129484Y134571D01*
X124411Y139644D01*
X121665Y146273D01*
X121665Y153447D01*
X124411Y160076D01*
X129484Y165149D01*
X136113Y167895D01*
X143287Y167895D01*
X149284Y165411D01*
X149379Y165388D01*
X149472Y165360D01*
X149498Y165361D01*
X149524Y165355D01*
X149620Y165364D01*
X149718Y165366D01*
X149742Y165375D01*
X149769Y165378D01*
X149858Y165417D01*
X149949Y165451D01*
X149969Y165467D01*
X149993Y165478D01*
X150065Y165544D01*
X150141Y165604D01*
X150155Y165626D01*
X150174Y165644D01*
X150221Y165729D01*
X150274Y165811D01*
X150280Y165837D01*
X150293Y165860D01*
X150310Y165956D01*
X150334Y166050D01*
X150332Y166076D01*
X150337Y166102D01*
X150322Y166198D01*
X150315Y166295D01*
X150305Y166319D01*
X150301Y166345D01*
X150257Y166432D01*
X150219Y166521D01*
X150198Y166547D01*
X150189Y166564D01*
X150166Y166587D01*
X150114Y166652D01*
X94276Y222490D01*
X94202Y222543D01*
X94132Y222603D01*
X94102Y222615D01*
X94076Y222634D01*
X93989Y222661D01*
X93904Y222695D01*
X93863Y222699D01*
X93841Y222706D01*
X93809Y222705D01*
X93737Y222713D01*
X58993Y222713D01*
X52713Y228993D01*
X52713Y245947D01*
X124053Y317287D01*
X156952Y317287D01*
X156972Y317290D01*
X156991Y317288D01*
X157093Y317310D01*
X157195Y317326D01*
X157212Y317336D01*
X157232Y317340D01*
X157321Y317393D01*
X157412Y317442D01*
X157426Y317456D01*
X157443Y317466D01*
X157510Y317545D01*
X157582Y317620D01*
X157590Y317638D01*
X157603Y317653D01*
X157642Y317749D01*
X157685Y317843D01*
X157687Y317863D01*
X157695Y317881D01*
X157713Y318048D01*
X157713Y320947D01*
X159792Y323026D01*
X159804Y323042D01*
X159819Y323055D01*
X159875Y323142D01*
X159936Y323226D01*
X159942Y323245D01*
X159952Y323262D01*
X159978Y323362D01*
X160008Y323461D01*
X160008Y323481D01*
X160012Y323500D01*
X160004Y323603D01*
X160002Y323707D01*
X159995Y323726D01*
X159993Y323745D01*
X159953Y323840D01*
X159917Y323938D01*
X159905Y323953D01*
X159897Y323972D01*
X159792Y324103D01*
X158263Y325632D01*
X157035Y328596D01*
X157035Y331804D01*
X158263Y334768D01*
X160532Y337037D01*
X163496Y338265D01*
X166704Y338265D01*
X169668Y337037D01*
X171937Y334768D01*
X173165Y331804D01*
X173165Y328596D01*
X171937Y325632D01*
X169668Y323363D01*
X166704Y322135D01*
X165685Y322135D01*
X165594Y322121D01*
X165504Y322113D01*
X165474Y322101D01*
X165442Y322096D01*
X165361Y322053D01*
X165277Y322017D01*
X165245Y321991D01*
X165224Y321980D01*
X165202Y321957D01*
X165146Y321912D01*
X162510Y319276D01*
X162457Y319202D01*
X162397Y319132D01*
X162385Y319102D01*
X162366Y319076D01*
X162339Y318989D01*
X162305Y318904D01*
X162301Y318863D01*
X162294Y318841D01*
X162295Y318809D01*
X162287Y318737D01*
X162287Y314053D01*
X160947Y312713D01*
X126263Y312713D01*
X126172Y312699D01*
X126082Y312691D01*
X126052Y312679D01*
X126020Y312674D01*
X125939Y312631D01*
X125855Y312595D01*
X125823Y312569D01*
X125802Y312558D01*
X125780Y312535D01*
X125724Y312490D01*
X57510Y244276D01*
X57457Y244202D01*
X57397Y244132D01*
X57385Y244102D01*
X57366Y244076D01*
X57339Y243989D01*
X57305Y243904D01*
X57301Y243863D01*
X57294Y243841D01*
X57295Y243809D01*
X57287Y243737D01*
X57287Y231203D01*
X57301Y231112D01*
X57309Y231022D01*
X57321Y230992D01*
X57326Y230960D01*
X57369Y230879D01*
X57405Y230795D01*
X57431Y230763D01*
X57442Y230742D01*
X57465Y230720D01*
X57510Y230664D01*
X60664Y227510D01*
X60738Y227457D01*
X60808Y227397D01*
X60838Y227385D01*
X60864Y227366D01*
X60951Y227339D01*
X61036Y227305D01*
X61077Y227301D01*
X61099Y227294D01*
X61131Y227295D01*
X61203Y227287D01*
X95947Y227287D01*
X242147Y81087D01*
X242147Y31723D01*
X242161Y31632D01*
X242169Y31542D01*
X242181Y31512D01*
X242186Y31480D01*
X242229Y31399D01*
X242265Y31315D01*
X242291Y31283D01*
X242302Y31262D01*
X242325Y31240D01*
X242370Y31184D01*
X250404Y23150D01*
X250478Y23097D01*
X250548Y23037D01*
X250578Y23025D01*
X250604Y23006D01*
X250691Y22979D01*
X250776Y22945D01*
X250817Y22941D01*
X250839Y22934D01*
X250871Y22935D01*
X250943Y22927D01*
X479377Y22927D01*
X479468Y22941D01*
X479558Y22949D01*
X479588Y22961D01*
X479620Y22966D01*
X479701Y23009D01*
X479785Y23045D01*
X479817Y23071D01*
X479838Y23082D01*
X479860Y23105D01*
X479916Y23150D01*
X487815Y31049D01*
X487827Y31066D01*
X487843Y31078D01*
X487899Y31165D01*
X487959Y31249D01*
X487965Y31268D01*
X487976Y31285D01*
X488001Y31385D01*
X488031Y31484D01*
X488031Y31504D01*
X488036Y31523D01*
X488028Y31626D01*
X488025Y31730D01*
X488018Y31749D01*
X488017Y31769D01*
X487976Y31864D01*
X487941Y31961D01*
X487928Y31977D01*
X487920Y31995D01*
X487815Y32126D01*
X484885Y35056D01*
X484885Y43684D01*
X490986Y49785D01*
X499614Y49785D01*
X505715Y43684D01*
X505715Y35056D01*
X499614Y28955D01*
X492505Y28955D01*
X492414Y28941D01*
X492324Y28933D01*
X492294Y28921D01*
X492262Y28916D01*
X492181Y28873D01*
X492097Y28837D01*
X492065Y28811D01*
X492044Y28800D01*
X492022Y28777D01*
X491966Y28732D01*
X481587Y18353D01*
X248733Y18353D01*
G37*
%LPD*%
%LPC*%
G36*
X389386Y28955D02*
X389386Y28955D01*
X383285Y35056D01*
X383285Y43684D01*
X389386Y49785D01*
X398014Y49785D01*
X399244Y48555D01*
X399260Y48543D01*
X399273Y48527D01*
X399360Y48471D01*
X399444Y48411D01*
X399463Y48405D01*
X399480Y48394D01*
X399580Y48369D01*
X399679Y48339D01*
X399699Y48339D01*
X399718Y48334D01*
X399821Y48342D01*
X399925Y48345D01*
X399944Y48352D01*
X399963Y48353D01*
X400058Y48394D01*
X400156Y48429D01*
X400171Y48442D01*
X400190Y48450D01*
X400321Y48555D01*
X552490Y200724D01*
X554053Y202287D01*
X581952Y202287D01*
X581972Y202290D01*
X581991Y202288D01*
X582093Y202310D01*
X582195Y202326D01*
X582212Y202336D01*
X582232Y202340D01*
X582321Y202393D01*
X582412Y202442D01*
X582426Y202456D01*
X582443Y202466D01*
X582510Y202545D01*
X582582Y202620D01*
X582590Y202638D01*
X582603Y202653D01*
X582642Y202749D01*
X582685Y202843D01*
X582687Y202863D01*
X582695Y202881D01*
X582713Y203048D01*
X582713Y210602D01*
X582698Y210698D01*
X582688Y210795D01*
X582678Y210819D01*
X582674Y210844D01*
X582628Y210930D01*
X582588Y211019D01*
X582571Y211039D01*
X582558Y211062D01*
X582488Y211129D01*
X582422Y211201D01*
X582399Y211213D01*
X582380Y211231D01*
X582292Y211272D01*
X582206Y211319D01*
X582181Y211324D01*
X582157Y211335D01*
X582060Y211346D01*
X581964Y211363D01*
X581938Y211359D01*
X581913Y211362D01*
X581817Y211341D01*
X581721Y211327D01*
X581698Y211315D01*
X581672Y211310D01*
X581589Y211260D01*
X581502Y211216D01*
X581483Y211197D01*
X581461Y211183D01*
X581398Y211110D01*
X581330Y211040D01*
X581314Y211011D01*
X581301Y210997D01*
X581289Y210966D01*
X581249Y210893D01*
X580760Y209713D01*
X577687Y206640D01*
X573673Y204977D01*
X569327Y204977D01*
X565313Y206640D01*
X562240Y209713D01*
X560577Y213727D01*
X560577Y218073D01*
X562240Y222087D01*
X565313Y225160D01*
X569327Y226823D01*
X573673Y226823D01*
X577687Y225160D01*
X580760Y222087D01*
X581249Y220907D01*
X581300Y220824D01*
X581346Y220738D01*
X581364Y220720D01*
X581378Y220698D01*
X581454Y220636D01*
X581524Y220569D01*
X581548Y220558D01*
X581568Y220541D01*
X581659Y220506D01*
X581747Y220465D01*
X581773Y220462D01*
X581797Y220453D01*
X581895Y220449D01*
X581991Y220438D01*
X582017Y220444D01*
X582043Y220443D01*
X582137Y220470D01*
X582232Y220490D01*
X582254Y220504D01*
X582279Y220511D01*
X582359Y220567D01*
X582443Y220617D01*
X582460Y220636D01*
X582481Y220651D01*
X582540Y220729D01*
X582603Y220803D01*
X582613Y220828D01*
X582628Y220849D01*
X582658Y220941D01*
X582695Y221032D01*
X582698Y221064D01*
X582704Y221083D01*
X582704Y221116D01*
X582713Y221198D01*
X582713Y236002D01*
X582698Y236098D01*
X582688Y236195D01*
X582678Y236219D01*
X582674Y236244D01*
X582628Y236330D01*
X582588Y236420D01*
X582571Y236439D01*
X582558Y236462D01*
X582488Y236529D01*
X582422Y236601D01*
X582399Y236613D01*
X582380Y236631D01*
X582292Y236672D01*
X582206Y236719D01*
X582181Y236724D01*
X582157Y236735D01*
X582060Y236746D01*
X581964Y236763D01*
X581938Y236759D01*
X581913Y236762D01*
X581817Y236741D01*
X581721Y236727D01*
X581698Y236715D01*
X581672Y236710D01*
X581589Y236660D01*
X581502Y236616D01*
X581483Y236597D01*
X581461Y236584D01*
X581398Y236510D01*
X581330Y236440D01*
X581314Y236411D01*
X581301Y236397D01*
X581289Y236366D01*
X581249Y236293D01*
X580760Y235113D01*
X577687Y232040D01*
X573673Y230377D01*
X569327Y230377D01*
X565313Y232040D01*
X562240Y235113D01*
X560577Y239127D01*
X560577Y243473D01*
X562240Y247487D01*
X565313Y250560D01*
X569327Y252223D01*
X573673Y252223D01*
X577687Y250560D01*
X580760Y247487D01*
X581249Y246307D01*
X581300Y246224D01*
X581346Y246138D01*
X581364Y246120D01*
X581378Y246098D01*
X581454Y246036D01*
X581524Y245969D01*
X581548Y245958D01*
X581568Y245941D01*
X581659Y245906D01*
X581747Y245865D01*
X581773Y245862D01*
X581797Y245853D01*
X581895Y245849D01*
X581991Y245838D01*
X582017Y245844D01*
X582043Y245842D01*
X582137Y245870D01*
X582232Y245890D01*
X582254Y245904D01*
X582279Y245911D01*
X582359Y245967D01*
X582443Y246016D01*
X582460Y246036D01*
X582481Y246051D01*
X582540Y246129D01*
X582603Y246203D01*
X582613Y246228D01*
X582628Y246249D01*
X582658Y246341D01*
X582695Y246432D01*
X582698Y246464D01*
X582704Y246483D01*
X582704Y246516D01*
X582713Y246598D01*
X582713Y261402D01*
X582712Y261410D01*
X582712Y261413D01*
X582709Y261427D01*
X582698Y261498D01*
X582688Y261595D01*
X582678Y261619D01*
X582674Y261644D01*
X582628Y261730D01*
X582588Y261820D01*
X582571Y261839D01*
X582558Y261862D01*
X582488Y261929D01*
X582422Y262001D01*
X582399Y262013D01*
X582380Y262031D01*
X582292Y262072D01*
X582206Y262119D01*
X582181Y262124D01*
X582157Y262135D01*
X582060Y262146D01*
X581964Y262163D01*
X581938Y262159D01*
X581913Y262162D01*
X581817Y262141D01*
X581721Y262127D01*
X581698Y262115D01*
X581672Y262110D01*
X581589Y262060D01*
X581502Y262016D01*
X581483Y261997D01*
X581461Y261984D01*
X581398Y261910D01*
X581330Y261840D01*
X581314Y261811D01*
X581301Y261797D01*
X581289Y261766D01*
X581249Y261693D01*
X580760Y260513D01*
X577687Y257440D01*
X573673Y255777D01*
X569327Y255777D01*
X565313Y257440D01*
X562240Y260513D01*
X560577Y264527D01*
X560577Y268873D01*
X562240Y272887D01*
X565313Y275960D01*
X569327Y277623D01*
X573673Y277623D01*
X577687Y275960D01*
X580760Y272887D01*
X581249Y271707D01*
X581300Y271624D01*
X581346Y271538D01*
X581364Y271520D01*
X581378Y271498D01*
X581454Y271436D01*
X581524Y271369D01*
X581548Y271358D01*
X581568Y271341D01*
X581659Y271306D01*
X581747Y271265D01*
X581773Y271262D01*
X581797Y271253D01*
X581895Y271249D01*
X581991Y271238D01*
X582017Y271244D01*
X582043Y271242D01*
X582137Y271270D01*
X582232Y271290D01*
X582254Y271304D01*
X582279Y271311D01*
X582359Y271367D01*
X582443Y271416D01*
X582460Y271436D01*
X582481Y271451D01*
X582540Y271529D01*
X582603Y271603D01*
X582613Y271628D01*
X582628Y271649D01*
X582658Y271741D01*
X582695Y271832D01*
X582698Y271864D01*
X582704Y271883D01*
X582704Y271916D01*
X582713Y271998D01*
X582713Y284879D01*
X582712Y284887D01*
X582713Y284895D01*
X582692Y285009D01*
X582674Y285122D01*
X582670Y285129D01*
X582668Y285137D01*
X582612Y285238D01*
X582558Y285340D01*
X582553Y285345D01*
X582549Y285352D01*
X582463Y285430D01*
X582380Y285509D01*
X582373Y285512D01*
X582367Y285518D01*
X582261Y285564D01*
X582157Y285613D01*
X582149Y285613D01*
X582142Y285617D01*
X582027Y285627D01*
X581913Y285640D01*
X581905Y285638D01*
X581897Y285639D01*
X581785Y285612D01*
X581672Y285587D01*
X581665Y285583D01*
X581658Y285581D01*
X581560Y285520D01*
X581461Y285461D01*
X581456Y285455D01*
X581449Y285451D01*
X581336Y285327D01*
X580606Y284322D01*
X579278Y282994D01*
X577757Y281889D01*
X576083Y281036D01*
X574296Y280455D01*
X573023Y280254D01*
X573023Y291338D01*
X573020Y291358D01*
X573022Y291377D01*
X573000Y291479D01*
X572983Y291581D01*
X572974Y291598D01*
X572970Y291618D01*
X572917Y291707D01*
X572868Y291798D01*
X572854Y291812D01*
X572844Y291829D01*
X572765Y291896D01*
X572690Y291967D01*
X572672Y291976D01*
X572657Y291989D01*
X572561Y292027D01*
X572467Y292071D01*
X572447Y292073D01*
X572429Y292081D01*
X572262Y292099D01*
X571499Y292099D01*
X571499Y292101D01*
X572262Y292101D01*
X572282Y292104D01*
X572301Y292102D01*
X572403Y292124D01*
X572505Y292141D01*
X572522Y292150D01*
X572542Y292154D01*
X572631Y292207D01*
X572722Y292256D01*
X572736Y292270D01*
X572753Y292280D01*
X572820Y292359D01*
X572891Y292434D01*
X572900Y292452D01*
X572913Y292467D01*
X572952Y292563D01*
X572995Y292657D01*
X572997Y292677D01*
X573005Y292695D01*
X573023Y292862D01*
X573023Y303946D01*
X574296Y303745D01*
X576083Y303164D01*
X577757Y302311D01*
X579278Y301206D01*
X580606Y299878D01*
X581336Y298873D01*
X581342Y298867D01*
X581346Y298860D01*
X581429Y298781D01*
X581511Y298700D01*
X581518Y298697D01*
X581524Y298691D01*
X581628Y298643D01*
X581732Y298592D01*
X581740Y298591D01*
X581747Y298587D01*
X581861Y298575D01*
X581976Y298560D01*
X581984Y298561D01*
X581991Y298560D01*
X582104Y298585D01*
X582217Y298607D01*
X582224Y298611D01*
X582232Y298613D01*
X582330Y298671D01*
X582431Y298729D01*
X582436Y298735D01*
X582443Y298739D01*
X582518Y298826D01*
X582595Y298912D01*
X582598Y298920D01*
X582603Y298926D01*
X582646Y299033D01*
X582691Y299138D01*
X582692Y299146D01*
X582695Y299154D01*
X582713Y299321D01*
X582713Y312202D01*
X582698Y312298D01*
X582688Y312395D01*
X582678Y312419D01*
X582674Y312444D01*
X582628Y312530D01*
X582588Y312620D01*
X582571Y312639D01*
X582558Y312662D01*
X582488Y312729D01*
X582422Y312801D01*
X582399Y312813D01*
X582380Y312831D01*
X582292Y312872D01*
X582206Y312919D01*
X582181Y312924D01*
X582157Y312935D01*
X582060Y312946D01*
X581964Y312963D01*
X581938Y312959D01*
X581913Y312962D01*
X581817Y312941D01*
X581721Y312927D01*
X581698Y312915D01*
X581672Y312910D01*
X581589Y312860D01*
X581502Y312816D01*
X581483Y312797D01*
X581461Y312784D01*
X581398Y312710D01*
X581330Y312640D01*
X581314Y312611D01*
X581301Y312597D01*
X581289Y312566D01*
X581249Y312493D01*
X580760Y311313D01*
X577687Y308240D01*
X573673Y306577D01*
X569327Y306577D01*
X565313Y308240D01*
X562240Y311313D01*
X560577Y315327D01*
X560577Y319673D01*
X562240Y323687D01*
X565313Y326760D01*
X569327Y328423D01*
X573673Y328423D01*
X577687Y326760D01*
X580760Y323687D01*
X581249Y322507D01*
X581300Y322424D01*
X581346Y322338D01*
X581364Y322320D01*
X581378Y322298D01*
X581454Y322236D01*
X581524Y322169D01*
X581548Y322158D01*
X581568Y322141D01*
X581659Y322106D01*
X581747Y322065D01*
X581773Y322062D01*
X581797Y322053D01*
X581895Y322049D01*
X581991Y322038D01*
X582017Y322044D01*
X582043Y322042D01*
X582137Y322070D01*
X582232Y322090D01*
X582254Y322104D01*
X582279Y322111D01*
X582359Y322167D01*
X582443Y322216D01*
X582460Y322236D01*
X582481Y322251D01*
X582540Y322329D01*
X582603Y322403D01*
X582613Y322428D01*
X582628Y322449D01*
X582658Y322541D01*
X582695Y322632D01*
X582698Y322664D01*
X582704Y322683D01*
X582704Y322716D01*
X582713Y322798D01*
X582713Y337602D01*
X582698Y337698D01*
X582688Y337795D01*
X582678Y337819D01*
X582674Y337844D01*
X582628Y337930D01*
X582588Y338020D01*
X582571Y338039D01*
X582558Y338062D01*
X582488Y338129D01*
X582422Y338201D01*
X582399Y338213D01*
X582380Y338231D01*
X582292Y338272D01*
X582206Y338319D01*
X582181Y338324D01*
X582157Y338335D01*
X582060Y338346D01*
X581964Y338363D01*
X581938Y338359D01*
X581913Y338362D01*
X581817Y338341D01*
X581721Y338327D01*
X581698Y338315D01*
X581672Y338310D01*
X581589Y338260D01*
X581502Y338216D01*
X581483Y338197D01*
X581461Y338184D01*
X581398Y338110D01*
X581330Y338040D01*
X581314Y338011D01*
X581301Y337997D01*
X581289Y337966D01*
X581249Y337893D01*
X580760Y336713D01*
X577687Y333640D01*
X573673Y331977D01*
X569327Y331977D01*
X565313Y333640D01*
X562240Y336713D01*
X560577Y340727D01*
X560577Y345073D01*
X562240Y349087D01*
X565313Y352160D01*
X569327Y353823D01*
X573673Y353823D01*
X577687Y352160D01*
X580760Y349087D01*
X581249Y347907D01*
X581300Y347824D01*
X581346Y347738D01*
X581364Y347720D01*
X581378Y347698D01*
X581454Y347636D01*
X581524Y347569D01*
X581548Y347558D01*
X581568Y347541D01*
X581659Y347506D01*
X581747Y347465D01*
X581773Y347462D01*
X581797Y347453D01*
X581895Y347449D01*
X581991Y347438D01*
X582017Y347444D01*
X582043Y347442D01*
X582137Y347470D01*
X582232Y347490D01*
X582254Y347504D01*
X582279Y347511D01*
X582359Y347567D01*
X582443Y347616D01*
X582460Y347636D01*
X582481Y347651D01*
X582540Y347729D01*
X582603Y347803D01*
X582613Y347828D01*
X582628Y347849D01*
X582658Y347941D01*
X582695Y348032D01*
X582698Y348064D01*
X582704Y348083D01*
X582704Y348116D01*
X582713Y348198D01*
X582713Y358737D01*
X582699Y358828D01*
X582691Y358918D01*
X582679Y358948D01*
X582674Y358980D01*
X582631Y359061D01*
X582595Y359145D01*
X582569Y359177D01*
X582558Y359198D01*
X582535Y359220D01*
X582490Y359276D01*
X580745Y361021D01*
X580729Y361033D01*
X580716Y361048D01*
X580629Y361104D01*
X580545Y361165D01*
X580526Y361171D01*
X580509Y361181D01*
X580409Y361207D01*
X580310Y361237D01*
X580290Y361237D01*
X580271Y361241D01*
X580168Y361233D01*
X580064Y361231D01*
X580045Y361224D01*
X580026Y361222D01*
X579931Y361182D01*
X579833Y361146D01*
X579818Y361134D01*
X579799Y361126D01*
X579668Y361021D01*
X577687Y359040D01*
X573673Y357377D01*
X569327Y357377D01*
X565313Y359040D01*
X562240Y362113D01*
X560577Y366127D01*
X560577Y370473D01*
X562240Y374487D01*
X565313Y377560D01*
X569327Y379223D01*
X573673Y379223D01*
X577687Y377560D01*
X580760Y374487D01*
X582423Y370473D01*
X582423Y366127D01*
X582437Y366036D01*
X582445Y365946D01*
X582457Y365916D01*
X582462Y365884D01*
X582505Y365803D01*
X582541Y365719D01*
X582567Y365687D01*
X582578Y365666D01*
X582601Y365644D01*
X582646Y365588D01*
X587287Y360947D01*
X587287Y199053D01*
X585947Y197713D01*
X556263Y197713D01*
X556172Y197699D01*
X556082Y197691D01*
X556052Y197679D01*
X556020Y197674D01*
X555939Y197631D01*
X555855Y197595D01*
X555823Y197569D01*
X555802Y197558D01*
X555780Y197535D01*
X555724Y197490D01*
X403555Y45321D01*
X403543Y45304D01*
X403527Y45292D01*
X403471Y45205D01*
X403411Y45121D01*
X403405Y45102D01*
X403394Y45085D01*
X403369Y44985D01*
X403339Y44886D01*
X403339Y44866D01*
X403334Y44847D01*
X403342Y44744D01*
X403345Y44640D01*
X403352Y44621D01*
X403353Y44601D01*
X403394Y44507D01*
X403429Y44409D01*
X403442Y44393D01*
X403450Y44375D01*
X403555Y44244D01*
X404115Y43684D01*
X404115Y35056D01*
X398014Y28955D01*
X389386Y28955D01*
G37*
%LPD*%
%LPC*%
G36*
X188302Y185193D02*
X188302Y185193D01*
X185193Y188302D01*
X185193Y192698D01*
X185704Y193209D01*
X185757Y193283D01*
X185817Y193353D01*
X185829Y193383D01*
X185848Y193409D01*
X185875Y193496D01*
X185909Y193581D01*
X185913Y193622D01*
X185920Y193644D01*
X185919Y193676D01*
X185927Y193747D01*
X185927Y268594D01*
X201306Y283973D01*
X251791Y283973D01*
X251881Y283987D01*
X251972Y283995D01*
X252001Y284007D01*
X252033Y284012D01*
X252114Y284055D01*
X252198Y284091D01*
X252230Y284117D01*
X252251Y284128D01*
X252273Y284151D01*
X252329Y284196D01*
X287304Y319171D01*
X287357Y319245D01*
X287417Y319315D01*
X287429Y319345D01*
X287448Y319371D01*
X287475Y319458D01*
X287509Y319543D01*
X287513Y319584D01*
X287520Y319606D01*
X287519Y319638D01*
X287527Y319709D01*
X287527Y357863D01*
X287508Y357978D01*
X287491Y358094D01*
X287489Y358099D01*
X287488Y358106D01*
X287434Y358207D01*
X287380Y358313D01*
X287375Y358317D01*
X287372Y358323D01*
X287288Y358403D01*
X287204Y358485D01*
X287198Y358489D01*
X287194Y358492D01*
X287177Y358500D01*
X287057Y358566D01*
X285913Y359040D01*
X282840Y362113D01*
X281177Y366127D01*
X281177Y370473D01*
X282840Y374487D01*
X285913Y377560D01*
X289927Y379223D01*
X294273Y379223D01*
X298287Y377560D01*
X301360Y374487D01*
X303023Y370473D01*
X303023Y366127D01*
X301360Y362113D01*
X298287Y359040D01*
X297143Y358566D01*
X297043Y358504D01*
X296943Y358445D01*
X296939Y358440D01*
X296934Y358436D01*
X296859Y358346D01*
X296783Y358258D01*
X296781Y358252D01*
X296777Y358247D01*
X296735Y358139D01*
X296691Y358029D01*
X296690Y358022D01*
X296689Y358017D01*
X296688Y357999D01*
X296673Y357863D01*
X296673Y315606D01*
X255894Y274827D01*
X205409Y274827D01*
X205319Y274813D01*
X205228Y274805D01*
X205199Y274793D01*
X205167Y274788D01*
X205086Y274745D01*
X205002Y274709D01*
X204970Y274683D01*
X204949Y274672D01*
X204927Y274649D01*
X204871Y274604D01*
X195296Y265029D01*
X195243Y264955D01*
X195183Y264885D01*
X195171Y264855D01*
X195152Y264829D01*
X195125Y264742D01*
X195091Y264657D01*
X195087Y264616D01*
X195080Y264594D01*
X195081Y264562D01*
X195073Y264491D01*
X195073Y193747D01*
X195087Y193657D01*
X195095Y193566D01*
X195107Y193537D01*
X195112Y193505D01*
X195155Y193424D01*
X195191Y193340D01*
X195217Y193308D01*
X195228Y193287D01*
X195251Y193265D01*
X195296Y193209D01*
X195807Y192698D01*
X195807Y188302D01*
X192698Y185193D01*
X188302Y185193D01*
G37*
%LPD*%
%LPC*%
G36*
X325122Y80463D02*
X325122Y80463D01*
X322013Y83572D01*
X322013Y87968D01*
X325122Y91077D01*
X329518Y91077D01*
X332315Y88280D01*
X332389Y88227D01*
X332459Y88167D01*
X332489Y88155D01*
X332515Y88136D01*
X332602Y88109D01*
X332687Y88075D01*
X332728Y88071D01*
X332750Y88064D01*
X332782Y88065D01*
X332853Y88057D01*
X396287Y88057D01*
X396378Y88071D01*
X396468Y88079D01*
X396498Y88091D01*
X396530Y88096D01*
X396611Y88139D01*
X396695Y88175D01*
X396727Y88201D01*
X396748Y88212D01*
X396770Y88235D01*
X396826Y88280D01*
X505210Y196664D01*
X505263Y196738D01*
X505323Y196808D01*
X505335Y196838D01*
X505354Y196864D01*
X505381Y196951D01*
X505415Y197036D01*
X505419Y197077D01*
X505426Y197099D01*
X505425Y197131D01*
X505433Y197203D01*
X505433Y208748D01*
X505422Y208819D01*
X505420Y208891D01*
X505402Y208940D01*
X505394Y208991D01*
X505360Y209054D01*
X505335Y209122D01*
X505303Y209162D01*
X505278Y209209D01*
X505226Y209258D01*
X505182Y209314D01*
X505138Y209342D01*
X505100Y209378D01*
X505035Y209408D01*
X504975Y209447D01*
X504924Y209460D01*
X504877Y209482D01*
X504806Y209489D01*
X504736Y209507D01*
X504684Y209503D01*
X504633Y209509D01*
X504562Y209493D01*
X504491Y209488D01*
X504443Y209467D01*
X504392Y209456D01*
X504331Y209420D01*
X504265Y209391D01*
X504209Y209347D01*
X504181Y209330D01*
X504166Y209312D01*
X504134Y209287D01*
X501487Y206640D01*
X497473Y204977D01*
X493127Y204977D01*
X489113Y206640D01*
X486040Y209713D01*
X484377Y213727D01*
X484377Y218073D01*
X486040Y222087D01*
X489113Y225160D01*
X493127Y226823D01*
X497473Y226823D01*
X501487Y225160D01*
X504134Y222513D01*
X504192Y222471D01*
X504244Y222422D01*
X504291Y222400D01*
X504333Y222370D01*
X504402Y222349D01*
X504467Y222318D01*
X504519Y222313D01*
X504569Y222297D01*
X504640Y222299D01*
X504711Y222291D01*
X504762Y222302D01*
X504814Y222304D01*
X504882Y222328D01*
X504952Y222344D01*
X504997Y222370D01*
X505045Y222388D01*
X505101Y222433D01*
X505163Y222470D01*
X505197Y222509D01*
X505237Y222542D01*
X505276Y222602D01*
X505323Y222657D01*
X505342Y222705D01*
X505370Y222749D01*
X505388Y222818D01*
X505415Y222885D01*
X505423Y222956D01*
X505431Y222987D01*
X505429Y223011D01*
X505433Y223052D01*
X505433Y268652D01*
X505430Y268672D01*
X505432Y268691D01*
X505410Y268793D01*
X505394Y268895D01*
X505384Y268912D01*
X505380Y268932D01*
X505327Y269021D01*
X505278Y269112D01*
X505264Y269126D01*
X505254Y269143D01*
X505175Y269210D01*
X505100Y269282D01*
X505082Y269290D01*
X505067Y269303D01*
X504971Y269342D01*
X504877Y269385D01*
X504857Y269387D01*
X504839Y269395D01*
X504672Y269413D01*
X500976Y269413D01*
X495173Y275216D01*
X495173Y283424D01*
X500976Y289227D01*
X509184Y289227D01*
X514987Y283424D01*
X514987Y275216D01*
X510230Y270459D01*
X510177Y270385D01*
X510117Y270316D01*
X510105Y270286D01*
X510086Y270260D01*
X510059Y270173D01*
X510025Y270088D01*
X510021Y270047D01*
X510014Y270025D01*
X510015Y269992D01*
X510007Y269921D01*
X510007Y222454D01*
X510022Y222358D01*
X510032Y222260D01*
X510042Y222237D01*
X510046Y222211D01*
X510092Y222125D01*
X510132Y222036D01*
X510149Y222016D01*
X510162Y221994D01*
X510232Y221927D01*
X510298Y221855D01*
X510321Y221842D01*
X510340Y221824D01*
X510428Y221783D01*
X510514Y221736D01*
X510539Y221732D01*
X510563Y221721D01*
X510660Y221710D01*
X510756Y221693D01*
X510782Y221696D01*
X510807Y221693D01*
X510903Y221714D01*
X510999Y221728D01*
X511022Y221740D01*
X511048Y221746D01*
X511131Y221796D01*
X511218Y221840D01*
X511237Y221859D01*
X511259Y221872D01*
X511322Y221946D01*
X511391Y222016D01*
X511406Y222044D01*
X511419Y222059D01*
X511424Y222071D01*
X514513Y225160D01*
X518527Y226823D01*
X522873Y226823D01*
X526887Y225160D01*
X529960Y222087D01*
X531623Y218073D01*
X531623Y213727D01*
X529960Y209713D01*
X526887Y206640D01*
X522873Y204977D01*
X518527Y204977D01*
X514513Y206640D01*
X511406Y209747D01*
X511374Y209806D01*
X511356Y209824D01*
X511342Y209847D01*
X511267Y209909D01*
X511196Y209976D01*
X511172Y209987D01*
X511152Y210003D01*
X511061Y210038D01*
X510973Y210079D01*
X510947Y210082D01*
X510923Y210092D01*
X510825Y210096D01*
X510729Y210107D01*
X510703Y210101D01*
X510677Y210102D01*
X510583Y210075D01*
X510488Y210054D01*
X510466Y210041D01*
X510441Y210034D01*
X510361Y209978D01*
X510277Y209928D01*
X510260Y209908D01*
X510239Y209893D01*
X510180Y209815D01*
X510117Y209741D01*
X510107Y209717D01*
X510092Y209696D01*
X510062Y209604D01*
X510025Y209513D01*
X510022Y209481D01*
X510016Y209462D01*
X510016Y209429D01*
X510007Y209346D01*
X510007Y194993D01*
X398497Y83483D01*
X332853Y83483D01*
X332763Y83469D01*
X332672Y83461D01*
X332643Y83449D01*
X332611Y83444D01*
X332530Y83401D01*
X332446Y83365D01*
X332414Y83339D01*
X332393Y83328D01*
X332371Y83305D01*
X332315Y83260D01*
X329518Y80463D01*
X325122Y80463D01*
G37*
%LPD*%
%LPC*%
G36*
X31324Y38353D02*
X31324Y38353D01*
X26749Y40248D01*
X23248Y43749D01*
X21353Y48324D01*
X21353Y53276D01*
X23248Y57851D01*
X25544Y60146D01*
X25555Y60162D01*
X25571Y60175D01*
X25627Y60262D01*
X25687Y60346D01*
X25693Y60365D01*
X25704Y60381D01*
X25729Y60482D01*
X25759Y60581D01*
X25759Y60601D01*
X25764Y60620D01*
X25756Y60723D01*
X25753Y60827D01*
X25746Y60845D01*
X25745Y60865D01*
X25704Y60960D01*
X25669Y61058D01*
X25656Y61073D01*
X25648Y61092D01*
X25544Y61223D01*
X22713Y64053D01*
X22713Y85947D01*
X24276Y87510D01*
X109470Y172704D01*
X109523Y172778D01*
X109583Y172848D01*
X109595Y172878D01*
X109614Y172904D01*
X109641Y172991D01*
X109675Y173076D01*
X109679Y173117D01*
X109686Y173139D01*
X109685Y173171D01*
X109693Y173242D01*
X109693Y177198D01*
X112802Y180307D01*
X117198Y180307D01*
X120307Y177198D01*
X120307Y172802D01*
X118043Y170538D01*
X118032Y170522D01*
X118016Y170510D01*
X117985Y170462D01*
X117975Y170451D01*
X117967Y170433D01*
X117960Y170422D01*
X117900Y170339D01*
X117894Y170320D01*
X117883Y170303D01*
X117858Y170202D01*
X117827Y170103D01*
X117828Y170084D01*
X117823Y170064D01*
X117831Y169961D01*
X117834Y169858D01*
X117840Y169839D01*
X117842Y169819D01*
X117882Y169724D01*
X117918Y169627D01*
X117931Y169611D01*
X117938Y169593D01*
X118043Y169462D01*
X120307Y167198D01*
X120307Y162802D01*
X117198Y159693D01*
X113243Y159693D01*
X113152Y159679D01*
X113062Y159671D01*
X113032Y159659D01*
X113000Y159654D01*
X112919Y159611D01*
X112835Y159575D01*
X112803Y159549D01*
X112782Y159538D01*
X112760Y159515D01*
X112704Y159470D01*
X62510Y109276D01*
X62457Y109202D01*
X62397Y109132D01*
X62385Y109102D01*
X62366Y109076D01*
X62339Y108989D01*
X62305Y108904D01*
X62301Y108863D01*
X62294Y108841D01*
X62295Y108809D01*
X62287Y108737D01*
X62287Y66263D01*
X62301Y66172D01*
X62309Y66082D01*
X62321Y66052D01*
X62326Y66020D01*
X62369Y65939D01*
X62405Y65855D01*
X62431Y65823D01*
X62442Y65802D01*
X62465Y65780D01*
X62510Y65724D01*
X65019Y63215D01*
X65114Y63146D01*
X65208Y63077D01*
X65214Y63075D01*
X65219Y63071D01*
X65331Y63037D01*
X65442Y63001D01*
X65448Y63001D01*
X65454Y62999D01*
X65571Y63002D01*
X65688Y63003D01*
X65695Y63005D01*
X65700Y63005D01*
X65717Y63012D01*
X65849Y63050D01*
X66324Y63247D01*
X71276Y63247D01*
X75851Y61352D01*
X79352Y57851D01*
X81247Y53276D01*
X81247Y48324D01*
X79352Y43749D01*
X75851Y40248D01*
X71276Y38353D01*
X66324Y38353D01*
X61749Y40248D01*
X58248Y43749D01*
X56353Y48324D01*
X56353Y53276D01*
X58248Y57851D01*
X60544Y60146D01*
X60555Y60162D01*
X60571Y60175D01*
X60627Y60262D01*
X60687Y60346D01*
X60693Y60365D01*
X60704Y60381D01*
X60729Y60482D01*
X60759Y60581D01*
X60759Y60601D01*
X60764Y60620D01*
X60756Y60723D01*
X60753Y60827D01*
X60746Y60845D01*
X60745Y60865D01*
X60704Y60960D01*
X60669Y61058D01*
X60656Y61073D01*
X60648Y61092D01*
X60544Y61222D01*
X57713Y64053D01*
X57713Y110947D01*
X109470Y162704D01*
X109523Y162778D01*
X109583Y162848D01*
X109595Y162878D01*
X109614Y162904D01*
X109641Y162991D01*
X109675Y163076D01*
X109679Y163117D01*
X109686Y163139D01*
X109685Y163171D01*
X109693Y163243D01*
X109693Y164622D01*
X109682Y164692D01*
X109680Y164764D01*
X109662Y164813D01*
X109654Y164864D01*
X109620Y164928D01*
X109595Y164995D01*
X109563Y165036D01*
X109538Y165082D01*
X109486Y165131D01*
X109442Y165187D01*
X109398Y165215D01*
X109360Y165251D01*
X109295Y165281D01*
X109235Y165320D01*
X109184Y165333D01*
X109137Y165355D01*
X109066Y165363D01*
X108996Y165380D01*
X108944Y165376D01*
X108893Y165382D01*
X108822Y165367D01*
X108751Y165361D01*
X108703Y165341D01*
X108652Y165330D01*
X108591Y165293D01*
X108525Y165265D01*
X108469Y165220D01*
X108441Y165203D01*
X108426Y165186D01*
X108394Y165160D01*
X27510Y84276D01*
X27457Y84202D01*
X27397Y84132D01*
X27385Y84102D01*
X27366Y84076D01*
X27339Y83989D01*
X27305Y83904D01*
X27301Y83863D01*
X27294Y83841D01*
X27295Y83809D01*
X27287Y83737D01*
X27287Y66263D01*
X27301Y66172D01*
X27309Y66082D01*
X27321Y66052D01*
X27326Y66020D01*
X27369Y65939D01*
X27405Y65855D01*
X27431Y65823D01*
X27442Y65802D01*
X27465Y65780D01*
X27510Y65724D01*
X30019Y63215D01*
X30114Y63146D01*
X30208Y63077D01*
X30214Y63075D01*
X30219Y63071D01*
X30331Y63037D01*
X30442Y63001D01*
X30448Y63001D01*
X30454Y62999D01*
X30571Y63002D01*
X30688Y63003D01*
X30695Y63005D01*
X30700Y63005D01*
X30717Y63012D01*
X30849Y63050D01*
X31324Y63247D01*
X36276Y63247D01*
X40851Y61352D01*
X44352Y57851D01*
X46247Y53276D01*
X46247Y48324D01*
X44352Y43749D01*
X40851Y40248D01*
X36276Y38353D01*
X31324Y38353D01*
G37*
%LPD*%
%LPC*%
G36*
X43798Y128739D02*
X43798Y128739D01*
X37398Y130454D01*
X31661Y133766D01*
X26976Y138451D01*
X23664Y144188D01*
X21949Y150588D01*
X21949Y157212D01*
X23664Y163612D01*
X26976Y169349D01*
X31661Y174034D01*
X37398Y177346D01*
X43798Y179061D01*
X50422Y179061D01*
X56822Y177346D01*
X62559Y174034D01*
X67244Y169349D01*
X70556Y163612D01*
X72271Y157212D01*
X72271Y150588D01*
X70556Y144188D01*
X67244Y138451D01*
X62559Y133766D01*
X56822Y130454D01*
X50422Y128739D01*
X43798Y128739D01*
G37*
%LPD*%
%LPC*%
G36*
X39848Y321559D02*
X39848Y321559D01*
X33448Y323274D01*
X27711Y326586D01*
X23026Y331271D01*
X19714Y337008D01*
X17999Y343408D01*
X17999Y350032D01*
X19714Y356432D01*
X23026Y362169D01*
X27711Y366854D01*
X33448Y370166D01*
X39848Y371881D01*
X46472Y371881D01*
X52872Y370166D01*
X58609Y366854D01*
X63294Y362169D01*
X66606Y356432D01*
X68321Y350032D01*
X68321Y343408D01*
X66606Y337008D01*
X63294Y331271D01*
X58609Y326586D01*
X52872Y323274D01*
X46472Y321559D01*
X39848Y321559D01*
G37*
%LPD*%
%LPC*%
G36*
X223978Y305709D02*
X223978Y305709D01*
X217578Y307424D01*
X211841Y310736D01*
X207156Y315421D01*
X203844Y321158D01*
X202129Y327558D01*
X202129Y334182D01*
X203844Y340582D01*
X207156Y346319D01*
X211841Y351004D01*
X217578Y354316D01*
X223978Y356031D01*
X230602Y356031D01*
X237002Y354316D01*
X242739Y351004D01*
X247424Y346319D01*
X250736Y340582D01*
X252451Y334182D01*
X252451Y327558D01*
X250736Y321158D01*
X247424Y315421D01*
X242739Y310736D01*
X237002Y307424D01*
X230602Y305709D01*
X223978Y305709D01*
G37*
%LPD*%
%LPC*%
G36*
X450176Y269413D02*
X450176Y269413D01*
X444373Y275216D01*
X444373Y276272D01*
X444370Y276292D01*
X444372Y276311D01*
X444350Y276413D01*
X444334Y276515D01*
X444324Y276532D01*
X444320Y276552D01*
X444267Y276641D01*
X444218Y276732D01*
X444204Y276746D01*
X444194Y276763D01*
X444115Y276830D01*
X444040Y276902D01*
X444022Y276910D01*
X444007Y276923D01*
X443911Y276962D01*
X443817Y277005D01*
X443797Y277007D01*
X443779Y277015D01*
X443612Y277033D01*
X405533Y277033D01*
X349333Y333233D01*
X349239Y333301D01*
X349144Y333371D01*
X349138Y333373D01*
X349133Y333377D01*
X349022Y333411D01*
X348910Y333447D01*
X348904Y333447D01*
X348898Y333449D01*
X348781Y333446D01*
X348664Y333445D01*
X348657Y333443D01*
X348652Y333443D01*
X348635Y333436D01*
X348503Y333398D01*
X345073Y331977D01*
X340727Y331977D01*
X336713Y333640D01*
X333640Y336713D01*
X331977Y340727D01*
X331977Y345073D01*
X333640Y349087D01*
X336713Y352160D01*
X340727Y353823D01*
X345073Y353823D01*
X349087Y352160D01*
X352160Y349087D01*
X353823Y345073D01*
X353823Y340727D01*
X352402Y337297D01*
X352375Y337183D01*
X352347Y337070D01*
X352347Y337063D01*
X352346Y337057D01*
X352357Y336941D01*
X352366Y336824D01*
X352368Y336819D01*
X352369Y336812D01*
X352417Y336705D01*
X352462Y336598D01*
X352467Y336592D01*
X352469Y336588D01*
X352481Y336574D01*
X352567Y336467D01*
X407204Y281830D01*
X407278Y281777D01*
X407348Y281717D01*
X407378Y281705D01*
X407404Y281686D01*
X407491Y281659D01*
X407576Y281625D01*
X407617Y281621D01*
X407639Y281614D01*
X407671Y281615D01*
X407743Y281607D01*
X443612Y281607D01*
X443632Y281610D01*
X443651Y281608D01*
X443753Y281630D01*
X443855Y281646D01*
X443872Y281656D01*
X443892Y281660D01*
X443981Y281713D01*
X444072Y281762D01*
X444086Y281776D01*
X444103Y281786D01*
X444170Y281865D01*
X444242Y281940D01*
X444250Y281958D01*
X444263Y281973D01*
X444302Y282069D01*
X444345Y282163D01*
X444347Y282183D01*
X444355Y282201D01*
X444373Y282368D01*
X444373Y283424D01*
X450176Y289227D01*
X451502Y289227D01*
X451522Y289230D01*
X451541Y289228D01*
X451643Y289250D01*
X451745Y289266D01*
X451762Y289276D01*
X451782Y289280D01*
X451871Y289333D01*
X451962Y289382D01*
X451976Y289396D01*
X451993Y289406D01*
X452060Y289485D01*
X452132Y289560D01*
X452140Y289578D01*
X452153Y289593D01*
X452192Y289689D01*
X452235Y289783D01*
X452237Y289803D01*
X452245Y289821D01*
X452263Y289988D01*
X452263Y305372D01*
X452260Y305392D01*
X452262Y305411D01*
X452240Y305513D01*
X452224Y305615D01*
X452214Y305632D01*
X452210Y305652D01*
X452157Y305741D01*
X452108Y305832D01*
X452094Y305846D01*
X452084Y305863D01*
X452005Y305930D01*
X451930Y306002D01*
X451912Y306010D01*
X451897Y306023D01*
X451801Y306062D01*
X451707Y306105D01*
X451687Y306107D01*
X451669Y306115D01*
X451502Y306133D01*
X450446Y306133D01*
X444643Y311936D01*
X444643Y320144D01*
X450446Y325947D01*
X458654Y325947D01*
X464457Y320144D01*
X464457Y311936D01*
X458654Y306133D01*
X457598Y306133D01*
X457578Y306130D01*
X457559Y306132D01*
X457457Y306110D01*
X457355Y306094D01*
X457338Y306084D01*
X457318Y306080D01*
X457229Y306027D01*
X457138Y305978D01*
X457124Y305964D01*
X457107Y305954D01*
X457040Y305875D01*
X456968Y305800D01*
X456960Y305782D01*
X456947Y305767D01*
X456908Y305671D01*
X456865Y305577D01*
X456863Y305557D01*
X456855Y305539D01*
X456837Y305372D01*
X456837Y289988D01*
X456840Y289968D01*
X456838Y289949D01*
X456860Y289847D01*
X456876Y289745D01*
X456886Y289728D01*
X456890Y289708D01*
X456943Y289619D01*
X456992Y289528D01*
X457006Y289514D01*
X457016Y289497D01*
X457095Y289430D01*
X457170Y289358D01*
X457188Y289350D01*
X457203Y289337D01*
X457299Y289298D01*
X457393Y289255D01*
X457413Y289253D01*
X457431Y289245D01*
X457598Y289227D01*
X458384Y289227D01*
X464187Y283424D01*
X464187Y275216D01*
X458384Y269413D01*
X450176Y269413D01*
G37*
%LPD*%
%LPC*%
G36*
X414786Y26415D02*
X414786Y26415D01*
X408685Y32516D01*
X408685Y41144D01*
X414304Y46763D01*
X414357Y46837D01*
X414417Y46906D01*
X414429Y46936D01*
X414448Y46963D01*
X414475Y47050D01*
X414509Y47134D01*
X414513Y47175D01*
X414520Y47198D01*
X414519Y47230D01*
X414527Y47301D01*
X414527Y52694D01*
X429906Y68073D01*
X492053Y68073D01*
X492143Y68087D01*
X492234Y68095D01*
X492263Y68107D01*
X492295Y68112D01*
X492376Y68155D01*
X492460Y68191D01*
X492492Y68217D01*
X492513Y68228D01*
X492535Y68251D01*
X492591Y68296D01*
X493102Y68807D01*
X497498Y68807D01*
X500607Y65698D01*
X500607Y61302D01*
X497498Y58193D01*
X493102Y58193D01*
X492591Y58704D01*
X492517Y58757D01*
X492447Y58817D01*
X492417Y58829D01*
X492391Y58848D01*
X492304Y58875D01*
X492219Y58909D01*
X492178Y58913D01*
X492156Y58920D01*
X492124Y58919D01*
X492053Y58927D01*
X434009Y58927D01*
X433919Y58913D01*
X433828Y58905D01*
X433799Y58893D01*
X433767Y58888D01*
X433686Y58845D01*
X433602Y58809D01*
X433570Y58783D01*
X433549Y58772D01*
X433527Y58749D01*
X433471Y58704D01*
X423896Y49129D01*
X423843Y49055D01*
X423783Y48985D01*
X423771Y48955D01*
X423752Y48929D01*
X423725Y48842D01*
X423691Y48757D01*
X423687Y48716D01*
X423680Y48694D01*
X423681Y48662D01*
X423673Y48591D01*
X423673Y47301D01*
X423687Y47211D01*
X423695Y47120D01*
X423707Y47090D01*
X423712Y47058D01*
X423755Y46978D01*
X423791Y46894D01*
X423817Y46862D01*
X423828Y46841D01*
X423851Y46819D01*
X423896Y46763D01*
X429515Y41144D01*
X429515Y32516D01*
X423414Y26415D01*
X414786Y26415D01*
G37*
%LPD*%
%LPC*%
G36*
X136113Y263905D02*
X136113Y263905D01*
X129484Y266651D01*
X124411Y271724D01*
X121665Y278353D01*
X121665Y285527D01*
X124411Y292156D01*
X129484Y297229D01*
X136113Y299975D01*
X143287Y299975D01*
X149916Y297229D01*
X154989Y292156D01*
X157735Y285527D01*
X157735Y278353D01*
X154989Y271724D01*
X149916Y266651D01*
X143287Y263905D01*
X136113Y263905D01*
G37*
%LPD*%
%LPC*%
G36*
X107524Y38353D02*
X107524Y38353D01*
X102949Y40248D01*
X99448Y43749D01*
X97553Y48324D01*
X97553Y53276D01*
X99448Y57851D01*
X102949Y61352D01*
X107524Y63247D01*
X112476Y63247D01*
X113800Y62698D01*
X113913Y62672D01*
X114027Y62643D01*
X114033Y62644D01*
X114039Y62642D01*
X114156Y62653D01*
X114272Y62662D01*
X114278Y62665D01*
X114284Y62665D01*
X114392Y62713D01*
X114498Y62759D01*
X114504Y62763D01*
X114509Y62765D01*
X114523Y62778D01*
X114629Y62863D01*
X159470Y107704D01*
X159523Y107778D01*
X159583Y107848D01*
X159595Y107878D01*
X159614Y107904D01*
X159641Y107991D01*
X159675Y108076D01*
X159679Y108117D01*
X159686Y108139D01*
X159685Y108171D01*
X159693Y108243D01*
X159693Y112198D01*
X162802Y115307D01*
X167198Y115307D01*
X170307Y112198D01*
X170307Y107802D01*
X167198Y104693D01*
X163243Y104693D01*
X163152Y104679D01*
X163062Y104671D01*
X163032Y104659D01*
X163000Y104654D01*
X162919Y104611D01*
X162835Y104575D01*
X162803Y104549D01*
X162782Y104538D01*
X162760Y104515D01*
X162704Y104470D01*
X118856Y60623D01*
X118845Y60606D01*
X118829Y60594D01*
X118773Y60507D01*
X118713Y60423D01*
X118707Y60404D01*
X118696Y60387D01*
X118671Y60286D01*
X118641Y60188D01*
X118641Y60168D01*
X118636Y60148D01*
X118644Y60045D01*
X118647Y59942D01*
X118654Y59923D01*
X118655Y59903D01*
X118696Y59808D01*
X118731Y59711D01*
X118744Y59695D01*
X118752Y59677D01*
X118856Y59546D01*
X120552Y57851D01*
X122447Y53276D01*
X122447Y48324D01*
X120552Y43749D01*
X117051Y40248D01*
X112476Y38353D01*
X107524Y38353D01*
G37*
%LPD*%
%LPC*%
G36*
X294924Y38353D02*
X294924Y38353D01*
X290349Y40248D01*
X286848Y43749D01*
X284953Y48324D01*
X284953Y53276D01*
X286848Y57851D01*
X290349Y61352D01*
X294924Y63247D01*
X299876Y63247D01*
X304451Y61352D01*
X307952Y57851D01*
X309847Y53276D01*
X309847Y48324D01*
X307952Y43749D01*
X304451Y40248D01*
X299876Y38353D01*
X294924Y38353D01*
G37*
%LPD*%
%LPC*%
G36*
X218724Y38353D02*
X218724Y38353D01*
X214149Y40248D01*
X210648Y43749D01*
X208753Y48324D01*
X208753Y53276D01*
X210648Y57851D01*
X214149Y61352D01*
X218724Y63247D01*
X223676Y63247D01*
X228251Y61352D01*
X231752Y57851D01*
X233647Y53276D01*
X233647Y48324D01*
X231752Y43749D01*
X228251Y40248D01*
X223676Y38353D01*
X218724Y38353D01*
G37*
%LPD*%
%LPC*%
G36*
X142524Y38353D02*
X142524Y38353D01*
X137949Y40248D01*
X134448Y43749D01*
X132553Y48324D01*
X132553Y53276D01*
X134448Y57851D01*
X137949Y61352D01*
X142524Y63247D01*
X147476Y63247D01*
X152051Y61352D01*
X155552Y57851D01*
X157447Y53276D01*
X157447Y48324D01*
X155552Y43749D01*
X152051Y40248D01*
X147476Y38353D01*
X142524Y38353D01*
G37*
%LPD*%
%LPC*%
G36*
X315327Y357377D02*
X315327Y357377D01*
X311313Y359040D01*
X308240Y362113D01*
X306577Y366127D01*
X306577Y370473D01*
X308240Y374487D01*
X311313Y377560D01*
X315327Y379223D01*
X319673Y379223D01*
X323687Y377560D01*
X326760Y374487D01*
X328423Y370473D01*
X328423Y366127D01*
X326760Y362113D01*
X323687Y359040D01*
X319673Y357377D01*
X315327Y357377D01*
G37*
%LPD*%
%LPC*%
G36*
X442327Y357377D02*
X442327Y357377D01*
X438313Y359040D01*
X435240Y362113D01*
X433577Y366127D01*
X433577Y370473D01*
X435240Y374487D01*
X438313Y377560D01*
X442327Y379223D01*
X446673Y379223D01*
X450687Y377560D01*
X453760Y374487D01*
X455423Y370473D01*
X455423Y366127D01*
X453760Y362113D01*
X450687Y359040D01*
X446673Y357377D01*
X442327Y357377D01*
G37*
%LPD*%
%LPC*%
G36*
X340727Y357377D02*
X340727Y357377D01*
X336713Y359040D01*
X333640Y362113D01*
X331977Y366127D01*
X331977Y370473D01*
X333640Y374487D01*
X336713Y377560D01*
X340727Y379223D01*
X345073Y379223D01*
X349087Y377560D01*
X352160Y374487D01*
X353823Y370473D01*
X353823Y366127D01*
X352160Y362113D01*
X349087Y359040D01*
X345073Y357377D01*
X340727Y357377D01*
G37*
%LPD*%
%LPC*%
G36*
X239127Y357377D02*
X239127Y357377D01*
X235113Y359040D01*
X232040Y362113D01*
X230377Y366127D01*
X230377Y370473D01*
X232040Y374487D01*
X235113Y377560D01*
X239127Y379223D01*
X243473Y379223D01*
X247487Y377560D01*
X250560Y374487D01*
X252223Y370473D01*
X252223Y366127D01*
X250560Y362113D01*
X247487Y359040D01*
X243473Y357377D01*
X239127Y357377D01*
G37*
%LPD*%
%LPC*%
G36*
X264527Y357377D02*
X264527Y357377D01*
X260513Y359040D01*
X257440Y362113D01*
X255777Y366127D01*
X255777Y370473D01*
X257440Y374487D01*
X260513Y377560D01*
X264527Y379223D01*
X268873Y379223D01*
X272887Y377560D01*
X275960Y374487D01*
X277623Y370473D01*
X277623Y366127D01*
X275960Y362113D01*
X272887Y359040D01*
X268873Y357377D01*
X264527Y357377D01*
G37*
%LPD*%
%LPC*%
G36*
X366127Y357377D02*
X366127Y357377D01*
X362113Y359040D01*
X359040Y362113D01*
X357377Y366127D01*
X357377Y370473D01*
X359040Y374487D01*
X362113Y377560D01*
X366127Y379223D01*
X370473Y379223D01*
X374487Y377560D01*
X377560Y374487D01*
X379223Y370473D01*
X379223Y366127D01*
X377560Y362113D01*
X374487Y359040D01*
X370473Y357377D01*
X366127Y357377D01*
G37*
%LPD*%
%LPC*%
G36*
X391527Y357377D02*
X391527Y357377D01*
X387513Y359040D01*
X384440Y362113D01*
X382777Y366127D01*
X382777Y370473D01*
X384440Y374487D01*
X387513Y377560D01*
X391527Y379223D01*
X395873Y379223D01*
X399887Y377560D01*
X402960Y374487D01*
X404623Y370473D01*
X404623Y366127D01*
X402960Y362113D01*
X399887Y359040D01*
X395873Y357377D01*
X391527Y357377D01*
G37*
%LPD*%
%LPC*%
G36*
X416927Y357377D02*
X416927Y357377D01*
X412913Y359040D01*
X409840Y362113D01*
X408177Y366127D01*
X408177Y370473D01*
X409840Y374487D01*
X412913Y377560D01*
X416927Y379223D01*
X421273Y379223D01*
X425287Y377560D01*
X428360Y374487D01*
X430023Y370473D01*
X430023Y366127D01*
X428360Y362113D01*
X425287Y359040D01*
X421273Y357377D01*
X416927Y357377D01*
G37*
%LPD*%
%LPC*%
G36*
X467727Y357377D02*
X467727Y357377D01*
X463713Y359040D01*
X460640Y362113D01*
X458977Y366127D01*
X458977Y370473D01*
X460640Y374487D01*
X463713Y377560D01*
X467727Y379223D01*
X472073Y379223D01*
X476087Y377560D01*
X479160Y374487D01*
X480823Y370473D01*
X480823Y366127D01*
X479160Y362113D01*
X476087Y359040D01*
X472073Y357377D01*
X467727Y357377D01*
G37*
%LPD*%
%LPC*%
G36*
X493127Y357377D02*
X493127Y357377D01*
X489113Y359040D01*
X486040Y362113D01*
X484377Y366127D01*
X484377Y370473D01*
X486040Y374487D01*
X489113Y377560D01*
X493127Y379223D01*
X497473Y379223D01*
X501487Y377560D01*
X504560Y374487D01*
X506223Y370473D01*
X506223Y366127D01*
X504560Y362113D01*
X501487Y359040D01*
X497473Y357377D01*
X493127Y357377D01*
G37*
%LPD*%
%LPC*%
G36*
X518527Y357377D02*
X518527Y357377D01*
X514513Y359040D01*
X511440Y362113D01*
X509777Y366127D01*
X509777Y370473D01*
X511440Y374487D01*
X514513Y377560D01*
X518527Y379223D01*
X522873Y379223D01*
X526887Y377560D01*
X529960Y374487D01*
X531623Y370473D01*
X531623Y366127D01*
X529960Y362113D01*
X526887Y359040D01*
X522873Y357377D01*
X518527Y357377D01*
G37*
%LPD*%
%LPC*%
G36*
X543927Y357377D02*
X543927Y357377D01*
X539913Y359040D01*
X536840Y362113D01*
X535177Y366127D01*
X535177Y370473D01*
X536840Y374487D01*
X539913Y377560D01*
X543927Y379223D01*
X548273Y379223D01*
X552287Y377560D01*
X555360Y374487D01*
X557023Y370473D01*
X557023Y366127D01*
X555360Y362113D01*
X552287Y359040D01*
X548273Y357377D01*
X543927Y357377D01*
G37*
%LPD*%
%LPC*%
G36*
X264527Y331977D02*
X264527Y331977D01*
X260513Y333640D01*
X257440Y336713D01*
X255777Y340727D01*
X255777Y345073D01*
X257440Y349087D01*
X260513Y352160D01*
X264527Y353823D01*
X268873Y353823D01*
X272887Y352160D01*
X275960Y349087D01*
X277623Y345073D01*
X277623Y340727D01*
X275960Y336713D01*
X272887Y333640D01*
X268873Y331977D01*
X264527Y331977D01*
G37*
%LPD*%
%LPC*%
G36*
X366127Y331977D02*
X366127Y331977D01*
X362113Y333640D01*
X359040Y336713D01*
X357377Y340727D01*
X357377Y345073D01*
X359040Y349087D01*
X362113Y352160D01*
X366127Y353823D01*
X370473Y353823D01*
X374487Y352160D01*
X377560Y349087D01*
X379223Y345073D01*
X379223Y340727D01*
X377560Y336713D01*
X374487Y333640D01*
X370473Y331977D01*
X366127Y331977D01*
G37*
%LPD*%
%LPC*%
G36*
X315327Y331977D02*
X315327Y331977D01*
X311313Y333640D01*
X308240Y336713D01*
X306577Y340727D01*
X306577Y345073D01*
X308240Y349087D01*
X311313Y352160D01*
X315327Y353823D01*
X319673Y353823D01*
X323687Y352160D01*
X326760Y349087D01*
X328423Y345073D01*
X328423Y340727D01*
X326760Y336713D01*
X323687Y333640D01*
X319673Y331977D01*
X315327Y331977D01*
G37*
%LPD*%
%LPC*%
G36*
X264527Y204977D02*
X264527Y204977D01*
X260513Y206640D01*
X257440Y209713D01*
X255777Y213727D01*
X255777Y218073D01*
X257440Y222087D01*
X260513Y225160D01*
X264527Y226823D01*
X268873Y226823D01*
X272887Y225160D01*
X275960Y222087D01*
X277623Y218073D01*
X277623Y213727D01*
X275960Y209713D01*
X272887Y206640D01*
X268873Y204977D01*
X264527Y204977D01*
G37*
%LPD*%
%LPC*%
G36*
X289927Y204977D02*
X289927Y204977D01*
X285913Y206640D01*
X282840Y209713D01*
X281177Y213727D01*
X281177Y218073D01*
X282840Y222087D01*
X285913Y225160D01*
X289927Y226823D01*
X294273Y226823D01*
X298287Y225160D01*
X301360Y222087D01*
X303023Y218073D01*
X303023Y213727D01*
X301360Y209713D01*
X298287Y206640D01*
X294273Y204977D01*
X289927Y204977D01*
G37*
%LPD*%
%LPC*%
G36*
X315327Y204977D02*
X315327Y204977D01*
X311313Y206640D01*
X308240Y209713D01*
X306577Y213727D01*
X306577Y218073D01*
X308240Y222087D01*
X311313Y225160D01*
X315327Y226823D01*
X319673Y226823D01*
X323687Y225160D01*
X326760Y222087D01*
X328423Y218073D01*
X328423Y213727D01*
X326760Y209713D01*
X323687Y206640D01*
X319673Y204977D01*
X315327Y204977D01*
G37*
%LPD*%
%LPC*%
G36*
X340727Y204977D02*
X340727Y204977D01*
X336713Y206640D01*
X333640Y209713D01*
X331977Y213727D01*
X331977Y218073D01*
X333640Y222087D01*
X336713Y225160D01*
X340727Y226823D01*
X345073Y226823D01*
X349087Y225160D01*
X352160Y222087D01*
X353823Y218073D01*
X353823Y213727D01*
X352160Y209713D01*
X349087Y206640D01*
X345073Y204977D01*
X340727Y204977D01*
G37*
%LPD*%
%LPC*%
G36*
X366127Y204977D02*
X366127Y204977D01*
X362113Y206640D01*
X359040Y209713D01*
X357377Y213727D01*
X357377Y218073D01*
X359040Y222087D01*
X362113Y225160D01*
X366127Y226823D01*
X370473Y226823D01*
X374487Y225160D01*
X377560Y222087D01*
X379223Y218073D01*
X379223Y213727D01*
X377560Y209713D01*
X374487Y206640D01*
X370473Y204977D01*
X366127Y204977D01*
G37*
%LPD*%
%LPC*%
G36*
X391527Y204977D02*
X391527Y204977D01*
X387513Y206640D01*
X384440Y209713D01*
X382777Y213727D01*
X382777Y218073D01*
X384440Y222087D01*
X387513Y225160D01*
X391527Y226823D01*
X395873Y226823D01*
X399887Y225160D01*
X402960Y222087D01*
X404623Y218073D01*
X404623Y213727D01*
X402960Y209713D01*
X399887Y206640D01*
X395873Y204977D01*
X391527Y204977D01*
G37*
%LPD*%
%LPC*%
G36*
X416927Y204977D02*
X416927Y204977D01*
X412913Y206640D01*
X409840Y209713D01*
X408177Y213727D01*
X408177Y218073D01*
X409840Y222087D01*
X412913Y225160D01*
X416927Y226823D01*
X421273Y226823D01*
X425287Y225160D01*
X428360Y222087D01*
X430023Y218073D01*
X430023Y213727D01*
X428360Y209713D01*
X425287Y206640D01*
X421273Y204977D01*
X416927Y204977D01*
G37*
%LPD*%
%LPC*%
G36*
X467727Y204977D02*
X467727Y204977D01*
X463713Y206640D01*
X460640Y209713D01*
X458977Y213727D01*
X458977Y218073D01*
X460640Y222087D01*
X463713Y225160D01*
X467727Y226823D01*
X472073Y226823D01*
X476087Y225160D01*
X479160Y222087D01*
X480823Y218073D01*
X480823Y213727D01*
X479160Y209713D01*
X476087Y206640D01*
X472073Y204977D01*
X467727Y204977D01*
G37*
%LPD*%
%LPC*%
G36*
X543927Y204977D02*
X543927Y204977D01*
X539913Y206640D01*
X536840Y209713D01*
X535177Y213727D01*
X535177Y218073D01*
X536840Y222087D01*
X539913Y225160D01*
X543927Y226823D01*
X548273Y226823D01*
X552287Y225160D01*
X555360Y222087D01*
X557023Y218073D01*
X557023Y213727D01*
X555360Y209713D01*
X552287Y206640D01*
X548273Y204977D01*
X543927Y204977D01*
G37*
%LPD*%
%LPC*%
G36*
X363986Y26415D02*
X363986Y26415D01*
X357885Y32516D01*
X357885Y41144D01*
X363986Y47245D01*
X372614Y47245D01*
X378715Y41144D01*
X378715Y32516D01*
X372614Y26415D01*
X363986Y26415D01*
G37*
%LPD*%
%LPC*%
G36*
X465586Y26415D02*
X465586Y26415D01*
X459485Y32516D01*
X459485Y41144D01*
X465586Y47245D01*
X474214Y47245D01*
X480315Y41144D01*
X480315Y32516D01*
X474214Y26415D01*
X465586Y26415D01*
G37*
%LPD*%
%LPC*%
G36*
X516386Y26415D02*
X516386Y26415D01*
X510285Y32516D01*
X510285Y41144D01*
X516386Y47245D01*
X525014Y47245D01*
X531115Y41144D01*
X531115Y32516D01*
X525014Y26415D01*
X516386Y26415D01*
G37*
%LPD*%
%LPC*%
G36*
X440186Y28955D02*
X440186Y28955D01*
X434085Y35056D01*
X434085Y43684D01*
X440186Y49785D01*
X448814Y49785D01*
X454915Y43684D01*
X454915Y35056D01*
X448814Y28955D01*
X440186Y28955D01*
G37*
%LPD*%
%LPC*%
G36*
X84796Y104393D02*
X84796Y104393D01*
X78993Y110196D01*
X78993Y118404D01*
X84796Y124207D01*
X93004Y124207D01*
X98807Y118404D01*
X98807Y110196D01*
X93004Y104393D01*
X84796Y104393D01*
G37*
%LPD*%
%LPC*%
G36*
X212811Y232155D02*
X212811Y232155D01*
X209450Y233547D01*
X206877Y236120D01*
X205485Y239481D01*
X205485Y243119D01*
X206877Y246480D01*
X209450Y249053D01*
X212811Y250445D01*
X216449Y250445D01*
X219810Y249053D01*
X222383Y246480D01*
X223775Y243119D01*
X223775Y239481D01*
X222383Y236120D01*
X219810Y233547D01*
X216449Y232155D01*
X212811Y232155D01*
G37*
%LPD*%
%LPC*%
G36*
X212811Y181355D02*
X212811Y181355D01*
X209450Y182747D01*
X206877Y185320D01*
X205485Y188681D01*
X205485Y192319D01*
X206877Y195680D01*
X209450Y198253D01*
X212811Y199645D01*
X216449Y199645D01*
X219810Y198253D01*
X222383Y195680D01*
X223775Y192319D01*
X223775Y188681D01*
X222383Y185320D01*
X219810Y182747D01*
X216449Y181355D01*
X212811Y181355D01*
G37*
%LPD*%
%LPC*%
G36*
X112696Y322135D02*
X112696Y322135D01*
X109732Y323363D01*
X107463Y325632D01*
X106235Y328596D01*
X106235Y331804D01*
X107463Y334768D01*
X109732Y337037D01*
X112696Y338265D01*
X115904Y338265D01*
X118868Y337037D01*
X121137Y334768D01*
X122365Y331804D01*
X122365Y328596D01*
X121137Y325632D01*
X118868Y323363D01*
X115904Y322135D01*
X112696Y322135D01*
G37*
%LPD*%
%LPC*%
G36*
X263923Y52323D02*
X263923Y52323D01*
X263923Y64189D01*
X265552Y63931D01*
X267568Y63276D01*
X269456Y62314D01*
X271170Y61069D01*
X272669Y59570D01*
X273914Y57856D01*
X274876Y55968D01*
X275531Y53952D01*
X275789Y52323D01*
X263923Y52323D01*
G37*
%LPD*%
%LPC*%
G36*
X187723Y52323D02*
X187723Y52323D01*
X187723Y64189D01*
X189352Y63931D01*
X191368Y63276D01*
X193256Y62314D01*
X194970Y61069D01*
X196469Y59570D01*
X197714Y57856D01*
X198676Y55968D01*
X199331Y53952D01*
X199589Y52323D01*
X187723Y52323D01*
G37*
%LPD*%
%LPC*%
G36*
X187723Y49277D02*
X187723Y49277D01*
X199589Y49277D01*
X199331Y47648D01*
X198676Y45632D01*
X197714Y43744D01*
X196469Y42030D01*
X194970Y40531D01*
X193256Y39286D01*
X191368Y38324D01*
X189352Y37669D01*
X187723Y37411D01*
X187723Y49277D01*
G37*
%LPD*%
%LPC*%
G36*
X263923Y49277D02*
X263923Y49277D01*
X275789Y49277D01*
X275531Y47648D01*
X274876Y45632D01*
X273914Y43744D01*
X272669Y42030D01*
X271170Y40531D01*
X269456Y39286D01*
X267568Y38324D01*
X265552Y37669D01*
X263923Y37411D01*
X263923Y49277D01*
G37*
%LPD*%
%LPC*%
G36*
X172811Y52323D02*
X172811Y52323D01*
X173069Y53952D01*
X173724Y55968D01*
X174686Y57856D01*
X175931Y59570D01*
X177430Y61069D01*
X179144Y62314D01*
X181032Y63276D01*
X183048Y63931D01*
X184677Y64189D01*
X184677Y52323D01*
X172811Y52323D01*
G37*
%LPD*%
%LPC*%
G36*
X249011Y52323D02*
X249011Y52323D01*
X249269Y53952D01*
X249924Y55968D01*
X250886Y57856D01*
X252131Y59570D01*
X253630Y61069D01*
X255344Y62314D01*
X257232Y63276D01*
X259248Y63931D01*
X260877Y64189D01*
X260877Y52323D01*
X249011Y52323D01*
G37*
%LPD*%
%LPC*%
G36*
X259248Y37669D02*
X259248Y37669D01*
X257232Y38324D01*
X255344Y39286D01*
X253630Y40531D01*
X252131Y42030D01*
X250886Y43744D01*
X249924Y45632D01*
X249269Y47648D01*
X249011Y49277D01*
X260877Y49277D01*
X260877Y37411D01*
X259248Y37669D01*
G37*
%LPD*%
%LPC*%
G36*
X183048Y37669D02*
X183048Y37669D01*
X181032Y38324D01*
X179144Y39286D01*
X177430Y40531D01*
X175931Y42030D01*
X174686Y43744D01*
X173724Y45632D01*
X173069Y47648D01*
X172811Y49277D01*
X184677Y49277D01*
X184677Y37411D01*
X183048Y37669D01*
G37*
%LPD*%
%LPC*%
G36*
X242823Y217423D02*
X242823Y217423D01*
X242823Y227746D01*
X244096Y227545D01*
X245883Y226964D01*
X247557Y226111D01*
X249078Y225006D01*
X250406Y223678D01*
X251511Y222157D01*
X252364Y220483D01*
X252945Y218696D01*
X253146Y217423D01*
X242823Y217423D01*
G37*
%LPD*%
%LPC*%
G36*
X559654Y293623D02*
X559654Y293623D01*
X559855Y294896D01*
X560436Y296683D01*
X561289Y298357D01*
X562394Y299878D01*
X563722Y301206D01*
X565243Y302311D01*
X566917Y303164D01*
X568704Y303745D01*
X569977Y303946D01*
X569977Y293623D01*
X559654Y293623D01*
G37*
%LPD*%
%LPC*%
G36*
X242823Y214377D02*
X242823Y214377D01*
X253146Y214377D01*
X252945Y213104D01*
X252364Y211317D01*
X251511Y209643D01*
X250406Y208122D01*
X249078Y206794D01*
X247557Y205689D01*
X245883Y204836D01*
X244096Y204255D01*
X242823Y204054D01*
X242823Y214377D01*
G37*
%LPD*%
%LPC*%
G36*
X229454Y217423D02*
X229454Y217423D01*
X229655Y218696D01*
X230236Y220483D01*
X231089Y222157D01*
X232194Y223678D01*
X233522Y225006D01*
X235043Y226111D01*
X236717Y226964D01*
X238504Y227545D01*
X239777Y227746D01*
X239777Y217423D01*
X229454Y217423D01*
G37*
%LPD*%
%LPC*%
G36*
X238504Y204255D02*
X238504Y204255D01*
X236717Y204836D01*
X235043Y205689D01*
X233522Y206794D01*
X232194Y208122D01*
X231089Y209643D01*
X230236Y211317D01*
X229655Y213104D01*
X229454Y214377D01*
X239777Y214377D01*
X239777Y204054D01*
X238504Y204255D01*
G37*
%LPD*%
%LPC*%
G36*
X568704Y280455D02*
X568704Y280455D01*
X566917Y281036D01*
X565243Y281889D01*
X563722Y282994D01*
X562394Y284322D01*
X561289Y285843D01*
X560436Y287517D01*
X559855Y289304D01*
X559654Y290577D01*
X569977Y290577D01*
X569977Y280254D01*
X568704Y280455D01*
G37*
%LPD*%
%LPC*%
G36*
X344423Y40893D02*
X344423Y40893D01*
X344423Y50801D01*
X347635Y50801D01*
X354331Y44105D01*
X354331Y40893D01*
X344423Y40893D01*
G37*
%LPD*%
%LPC*%
G36*
X331469Y40893D02*
X331469Y40893D01*
X331469Y44105D01*
X338165Y50801D01*
X341377Y50801D01*
X341377Y40893D01*
X331469Y40893D01*
G37*
%LPD*%
%LPC*%
G36*
X344423Y27939D02*
X344423Y27939D01*
X344423Y37847D01*
X354331Y37847D01*
X354331Y34635D01*
X347635Y27939D01*
X344423Y27939D01*
G37*
%LPD*%
%LPC*%
G36*
X338165Y27939D02*
X338165Y27939D01*
X331469Y34635D01*
X331469Y37847D01*
X341377Y37847D01*
X341377Y27939D01*
X338165Y27939D01*
G37*
%LPD*%
%LPC*%
G36*
X141223Y115823D02*
X141223Y115823D01*
X141223Y125223D01*
X144224Y125223D01*
X150623Y118824D01*
X150623Y115823D01*
X141223Y115823D01*
G37*
%LPD*%
%LPC*%
G36*
X405273Y317563D02*
X405273Y317563D01*
X405273Y326963D01*
X408274Y326963D01*
X414673Y320564D01*
X414673Y317563D01*
X405273Y317563D01*
G37*
%LPD*%
%LPC*%
G36*
X392827Y317563D02*
X392827Y317563D01*
X392827Y320564D01*
X399226Y326963D01*
X402227Y326963D01*
X402227Y317563D01*
X392827Y317563D01*
G37*
%LPD*%
%LPC*%
G36*
X128777Y115823D02*
X128777Y115823D01*
X128777Y118824D01*
X135176Y125223D01*
X138177Y125223D01*
X138177Y115823D01*
X128777Y115823D01*
G37*
%LPD*%
%LPC*%
G36*
X405273Y305117D02*
X405273Y305117D01*
X405273Y314517D01*
X414673Y314517D01*
X414673Y311516D01*
X408274Y305117D01*
X405273Y305117D01*
G37*
%LPD*%
%LPC*%
G36*
X141223Y103377D02*
X141223Y103377D01*
X141223Y112777D01*
X150623Y112777D01*
X150623Y109776D01*
X144224Y103377D01*
X141223Y103377D01*
G37*
%LPD*%
%LPC*%
G36*
X135176Y103377D02*
X135176Y103377D01*
X128777Y109776D01*
X128777Y112777D01*
X138177Y112777D01*
X138177Y103377D01*
X135176Y103377D01*
G37*
%LPD*%
%LPC*%
G36*
X399226Y305117D02*
X399226Y305117D01*
X392827Y311516D01*
X392827Y314517D01*
X402227Y314517D01*
X402227Y305117D01*
X399226Y305117D01*
G37*
%LPD*%
%LPC*%
G36*
X71373Y192023D02*
X71373Y192023D01*
X71373Y200546D01*
X72229Y200411D01*
X73750Y199916D01*
X75175Y199190D01*
X76469Y198250D01*
X77600Y197119D01*
X78540Y195825D01*
X79266Y194400D01*
X79761Y192879D01*
X79896Y192023D01*
X71373Y192023D01*
G37*
%LPD*%
%LPC*%
G36*
X216153Y217423D02*
X216153Y217423D01*
X216153Y225946D01*
X217009Y225811D01*
X218530Y225316D01*
X219955Y224590D01*
X221249Y223650D01*
X222380Y222519D01*
X223320Y221225D01*
X224046Y219800D01*
X224541Y218279D01*
X224676Y217423D01*
X216153Y217423D01*
G37*
%LPD*%
%LPC*%
G36*
X71373Y188977D02*
X71373Y188977D01*
X79896Y188977D01*
X79761Y188121D01*
X79266Y186600D01*
X78540Y185175D01*
X77600Y183881D01*
X76469Y182750D01*
X75175Y181810D01*
X73750Y181084D01*
X72229Y180589D01*
X71373Y180454D01*
X71373Y188977D01*
G37*
%LPD*%
%LPC*%
G36*
X59804Y192023D02*
X59804Y192023D01*
X59939Y192879D01*
X60434Y194400D01*
X61160Y195825D01*
X62100Y197119D01*
X63231Y198250D01*
X64525Y199190D01*
X65950Y199916D01*
X67471Y200411D01*
X68327Y200546D01*
X68327Y192023D01*
X59804Y192023D01*
G37*
%LPD*%
%LPC*%
G36*
X216153Y214377D02*
X216153Y214377D01*
X224676Y214377D01*
X224541Y213521D01*
X224046Y212000D01*
X223320Y210575D01*
X222380Y209281D01*
X221249Y208150D01*
X219955Y207210D01*
X218530Y206484D01*
X217009Y205989D01*
X216153Y205854D01*
X216153Y214377D01*
G37*
%LPD*%
%LPC*%
G36*
X204584Y217423D02*
X204584Y217423D01*
X204719Y218279D01*
X205214Y219800D01*
X205940Y221225D01*
X206880Y222519D01*
X208011Y223650D01*
X209305Y224590D01*
X210730Y225316D01*
X212251Y225811D01*
X213107Y225946D01*
X213107Y217423D01*
X204584Y217423D01*
G37*
%LPD*%
%LPC*%
G36*
X67471Y180589D02*
X67471Y180589D01*
X65950Y181084D01*
X64525Y181810D01*
X63231Y182750D01*
X62100Y183881D01*
X61160Y185175D01*
X60434Y186600D01*
X59939Y188121D01*
X59804Y188977D01*
X68327Y188977D01*
X68327Y180454D01*
X67471Y180589D01*
G37*
%LPD*%
%LPC*%
G36*
X212251Y205989D02*
X212251Y205989D01*
X210730Y206484D01*
X209305Y207210D01*
X208011Y208150D01*
X206880Y209281D01*
X205940Y210575D01*
X205214Y212000D01*
X204719Y213521D01*
X204584Y214377D01*
X213107Y214377D01*
X213107Y205854D01*
X212251Y205989D01*
G37*
%LPD*%
%LPC*%
G36*
X141223Y331723D02*
X141223Y331723D01*
X141223Y339156D01*
X142349Y338932D01*
X144001Y338247D01*
X145489Y337253D01*
X146753Y335989D01*
X147747Y334501D01*
X148432Y332849D01*
X148656Y331723D01*
X141223Y331723D01*
G37*
%LPD*%
%LPC*%
G36*
X130744Y331723D02*
X130744Y331723D01*
X130968Y332849D01*
X131653Y334501D01*
X132647Y335989D01*
X133911Y337253D01*
X135399Y338247D01*
X137051Y338932D01*
X138177Y339156D01*
X138177Y331723D01*
X130744Y331723D01*
G37*
%LPD*%
%LPC*%
G36*
X141223Y328677D02*
X141223Y328677D01*
X148656Y328677D01*
X148432Y327551D01*
X147747Y325899D01*
X146753Y324411D01*
X145489Y323147D01*
X144001Y322153D01*
X142349Y321468D01*
X141223Y321244D01*
X141223Y328677D01*
G37*
%LPD*%
%LPC*%
G36*
X137051Y321468D02*
X137051Y321468D01*
X135399Y322153D01*
X133911Y323147D01*
X132647Y324411D01*
X131653Y325899D01*
X130968Y327551D01*
X130744Y328677D01*
X138177Y328677D01*
X138177Y321244D01*
X137051Y321468D01*
G37*
%LPD*%
%LPC*%
G36*
X139699Y114299D02*
X139699Y114299D01*
X139699Y114301D01*
X139701Y114301D01*
X139701Y114299D01*
X139699Y114299D01*
G37*
%LPD*%
%LPC*%
G36*
X69849Y190499D02*
X69849Y190499D01*
X69849Y190501D01*
X69851Y190501D01*
X69851Y190499D01*
X69849Y190499D01*
G37*
%LPD*%
%LPC*%
G36*
X262399Y50799D02*
X262399Y50799D01*
X262399Y50801D01*
X262401Y50801D01*
X262401Y50799D01*
X262399Y50799D01*
G37*
%LPD*%
%LPC*%
G36*
X186199Y50799D02*
X186199Y50799D01*
X186199Y50801D01*
X186201Y50801D01*
X186201Y50799D01*
X186199Y50799D01*
G37*
%LPD*%
%LPC*%
G36*
X214629Y215899D02*
X214629Y215899D01*
X214629Y215901D01*
X214631Y215901D01*
X214631Y215899D01*
X214629Y215899D01*
G37*
%LPD*%
%LPC*%
G36*
X241299Y215899D02*
X241299Y215899D01*
X241299Y215901D01*
X241301Y215901D01*
X241301Y215899D01*
X241299Y215899D01*
G37*
%LPD*%
%LPC*%
G36*
X403749Y316039D02*
X403749Y316039D01*
X403749Y316041D01*
X403751Y316041D01*
X403751Y316039D01*
X403749Y316039D01*
G37*
%LPD*%
%LPC*%
G36*
X342899Y39369D02*
X342899Y39369D01*
X342899Y39371D01*
X342901Y39371D01*
X342901Y39369D01*
X342899Y39369D01*
G37*
%LPD*%
%LPC*%
G36*
X139699Y330199D02*
X139699Y330199D01*
X139699Y330201D01*
X139701Y330201D01*
X139701Y330199D01*
X139699Y330199D01*
G37*
%LPD*%
D10*
X571500Y368300D03*
X546100Y368300D03*
X520700Y368300D03*
X495300Y368300D03*
X469900Y368300D03*
X444500Y368300D03*
X419100Y368300D03*
X393700Y368300D03*
X368300Y368300D03*
X342900Y368300D03*
X317500Y368300D03*
X292100Y368300D03*
X266700Y368300D03*
X241300Y368300D03*
X571500Y215900D03*
X546100Y215900D03*
X520700Y215900D03*
X495300Y215900D03*
X469900Y215900D03*
X444500Y215900D03*
X419100Y215900D03*
X393700Y215900D03*
X368300Y215900D03*
X342900Y215900D03*
X317500Y215900D03*
X292100Y215900D03*
X266700Y215900D03*
X241300Y215900D03*
X571500Y342900D03*
X571500Y317500D03*
X571500Y292100D03*
X571500Y266700D03*
X571500Y241300D03*
X368300Y342900D03*
X342900Y342900D03*
X317500Y342900D03*
X266700Y342900D03*
D11*
X214630Y215900D03*
X69850Y241300D03*
D12*
X139700Y281940D03*
X139700Y149860D03*
D11*
X69850Y190500D03*
X214630Y241300D03*
X214630Y190500D03*
D13*
X342900Y39370D03*
X368300Y36830D03*
X393700Y39370D03*
X419100Y36830D03*
X444500Y39370D03*
X469900Y36830D03*
X495300Y39370D03*
X520700Y36830D03*
D14*
X114300Y330200D03*
X139700Y330200D03*
X165100Y330200D03*
D15*
X221200Y50800D03*
X186200Y50800D03*
X68800Y50800D03*
X33800Y50800D03*
X145000Y50800D03*
X110000Y50800D03*
X297400Y50800D03*
X262400Y50800D03*
D16*
X88900Y114300D03*
X139700Y114300D03*
X454280Y279320D03*
X505080Y279320D03*
X403750Y316040D03*
X454550Y316040D03*
D17*
X30510Y298860D03*
X52870Y281340D03*
X24770Y242050D03*
X29300Y185540D03*
X87010Y75850D03*
X184590Y111510D03*
X151360Y244770D03*
X348630Y127990D03*
X390020Y99720D03*
X545310Y96700D03*
X438360Y289800D03*
X481560Y261700D03*
X318720Y287080D03*
X204260Y309280D03*
X347610Y289250D03*
X498680Y320600D03*
D18*
X495000Y35000D02*
X480640Y20640D01*
X239860Y30460D02*
X239860Y80140D01*
X239860Y30460D02*
X249680Y20640D01*
X480640Y20640D01*
X239860Y80140D02*
X95000Y225000D01*
X55000Y229940D02*
X55000Y245000D01*
X55000Y229940D02*
X59940Y225000D01*
X95000Y225000D01*
X55000Y245000D02*
X125000Y315000D01*
X160000Y315000D01*
X160000Y320000D01*
X165000Y325000D01*
X165000Y330000D01*
X495300Y39370D02*
X495000Y35000D01*
X165000Y330000D02*
X165100Y330200D01*
X395000Y40000D02*
X555000Y200000D01*
X585000Y200000D01*
X585000Y360000D01*
X575000Y370000D01*
X395000Y40000D02*
X393700Y39370D01*
X571500Y368300D02*
X575000Y370000D01*
D17*
X495300Y63500D03*
D19*
X431800Y63500D01*
X419100Y50800D01*
X419100Y36830D01*
D18*
X115000Y165000D02*
X60000Y110000D01*
X60000Y65000D01*
X65000Y60000D01*
X65000Y55000D01*
X68800Y50800D01*
D17*
X115000Y165000D03*
D18*
X115000Y175000D02*
X25000Y85000D01*
X25000Y65000D01*
X30000Y60000D01*
X30000Y55000D01*
X33800Y50800D01*
D17*
X115000Y175000D03*
X327320Y85770D03*
D18*
X397550Y85770D01*
X507720Y195940D01*
X507720Y276680D01*
X505080Y279320D01*
X165000Y110000D02*
X110000Y55000D01*
X110000Y50800D01*
D17*
X165000Y110000D03*
D20*
X444500Y165100D02*
X444500Y215900D01*
X177800Y165100D02*
X101600Y241300D01*
X69850Y241300D01*
X177800Y165100D02*
X444500Y165100D01*
D19*
X292100Y317500D02*
X292100Y368300D01*
X292100Y317500D02*
X254000Y279400D01*
X203200Y279400D01*
X190500Y266700D01*
X190500Y190500D01*
D17*
X190500Y190500D03*
D18*
X454550Y279590D02*
X454550Y316040D01*
X454550Y279590D02*
X454280Y279320D01*
X406480Y279320D01*
X342900Y342900D01*
M02*
