G04 EAGLE Gerber RS-274X export*
G75*
%MOMM*%
%FSLAX34Y34*%
%LPD*%
%IN*%
%IPPOS*%
%AMOC8*
5,1,8,0,0,1.08239X$1,22.5*%
G01*
%ADD10C,0.254000*%


D10*
X0Y0D02*
X600000Y0D01*
X600000Y410000D01*
X0Y410000D01*
X0Y0D01*
X58160Y346184D02*
X58084Y345116D01*
X57931Y344055D01*
X57703Y343008D01*
X57401Y341980D01*
X57027Y340976D01*
X56582Y340001D01*
X56068Y339061D01*
X55489Y338160D01*
X54847Y337302D01*
X54145Y336492D01*
X53388Y335735D01*
X52578Y335033D01*
X51720Y334391D01*
X50819Y333812D01*
X49879Y333298D01*
X48904Y332853D01*
X47900Y332479D01*
X46872Y332177D01*
X45825Y331949D01*
X44764Y331796D01*
X43696Y331720D01*
X42624Y331720D01*
X41556Y331796D01*
X40495Y331949D01*
X39448Y332177D01*
X38420Y332479D01*
X37416Y332853D01*
X36441Y333298D01*
X35501Y333812D01*
X34600Y334391D01*
X33742Y335033D01*
X32932Y335735D01*
X32175Y336492D01*
X31473Y337302D01*
X30831Y338160D01*
X30252Y339061D01*
X29738Y340001D01*
X29293Y340976D01*
X28919Y341980D01*
X28617Y343008D01*
X28389Y344055D01*
X28236Y345116D01*
X28160Y346184D01*
X28160Y347256D01*
X28236Y348324D01*
X28389Y349385D01*
X28617Y350432D01*
X28919Y351460D01*
X29293Y352464D01*
X29738Y353439D01*
X30252Y354379D01*
X30831Y355280D01*
X31473Y356138D01*
X32175Y356948D01*
X32932Y357705D01*
X33742Y358407D01*
X34600Y359049D01*
X35501Y359628D01*
X36441Y360142D01*
X37416Y360587D01*
X38420Y360961D01*
X39448Y361263D01*
X40495Y361491D01*
X41556Y361644D01*
X42624Y361720D01*
X43696Y361720D01*
X44764Y361644D01*
X45825Y361491D01*
X46872Y361263D01*
X47900Y360961D01*
X48904Y360587D01*
X49879Y360142D01*
X50819Y359628D01*
X51720Y359049D01*
X52578Y358407D01*
X53388Y357705D01*
X54145Y356948D01*
X54847Y356138D01*
X55489Y355280D01*
X56068Y354379D01*
X56582Y353439D01*
X57027Y352464D01*
X57401Y351460D01*
X57703Y350432D01*
X57931Y349385D01*
X58084Y348324D01*
X58160Y347256D01*
X58160Y346184D01*
X62110Y153364D02*
X62034Y152296D01*
X61881Y151235D01*
X61653Y150188D01*
X61351Y149160D01*
X60977Y148156D01*
X60532Y147181D01*
X60018Y146241D01*
X59439Y145340D01*
X58797Y144482D01*
X58095Y143672D01*
X57338Y142915D01*
X56528Y142213D01*
X55670Y141571D01*
X54769Y140992D01*
X53829Y140478D01*
X52854Y140033D01*
X51850Y139659D01*
X50822Y139357D01*
X49775Y139129D01*
X48714Y138976D01*
X47646Y138900D01*
X46574Y138900D01*
X45506Y138976D01*
X44445Y139129D01*
X43398Y139357D01*
X42370Y139659D01*
X41366Y140033D01*
X40391Y140478D01*
X39451Y140992D01*
X38550Y141571D01*
X37692Y142213D01*
X36882Y142915D01*
X36125Y143672D01*
X35423Y144482D01*
X34781Y145340D01*
X34202Y146241D01*
X33688Y147181D01*
X33243Y148156D01*
X32869Y149160D01*
X32567Y150188D01*
X32339Y151235D01*
X32186Y152296D01*
X32110Y153364D01*
X32110Y154436D01*
X32186Y155504D01*
X32339Y156565D01*
X32567Y157612D01*
X32869Y158640D01*
X33243Y159644D01*
X33688Y160619D01*
X34202Y161559D01*
X34781Y162460D01*
X35423Y163318D01*
X36125Y164128D01*
X36882Y164885D01*
X37692Y165587D01*
X38550Y166229D01*
X39451Y166808D01*
X40391Y167322D01*
X41366Y167767D01*
X42370Y168141D01*
X43398Y168443D01*
X44445Y168671D01*
X45506Y168824D01*
X46574Y168900D01*
X47646Y168900D01*
X48714Y168824D01*
X49775Y168671D01*
X50822Y168443D01*
X51850Y168141D01*
X52854Y167767D01*
X53829Y167322D01*
X54769Y166808D01*
X55670Y166229D01*
X56528Y165587D01*
X57338Y164885D01*
X58095Y164128D01*
X58797Y163318D01*
X59439Y162460D01*
X60018Y161559D01*
X60532Y160619D01*
X60977Y159644D01*
X61351Y158640D01*
X61653Y157612D01*
X61881Y156565D01*
X62034Y155504D01*
X62110Y154436D01*
X62110Y153364D01*
X582040Y41374D02*
X581964Y40306D01*
X581811Y39245D01*
X581583Y38198D01*
X581281Y37170D01*
X580907Y36166D01*
X580462Y35191D01*
X579948Y34251D01*
X579369Y33350D01*
X578727Y32492D01*
X578025Y31682D01*
X577268Y30925D01*
X576458Y30223D01*
X575600Y29581D01*
X574699Y29002D01*
X573759Y28488D01*
X572784Y28043D01*
X571780Y27669D01*
X570752Y27367D01*
X569705Y27139D01*
X568644Y26986D01*
X567576Y26910D01*
X566504Y26910D01*
X565436Y26986D01*
X564375Y27139D01*
X563328Y27367D01*
X562300Y27669D01*
X561296Y28043D01*
X560321Y28488D01*
X559381Y29002D01*
X558480Y29581D01*
X557622Y30223D01*
X556812Y30925D01*
X556055Y31682D01*
X555353Y32492D01*
X554711Y33350D01*
X554132Y34251D01*
X553618Y35191D01*
X553173Y36166D01*
X552799Y37170D01*
X552497Y38198D01*
X552269Y39245D01*
X552116Y40306D01*
X552040Y41374D01*
X552040Y42446D01*
X552116Y43514D01*
X552269Y44575D01*
X552497Y45622D01*
X552799Y46650D01*
X553173Y47654D01*
X553618Y48629D01*
X554132Y49569D01*
X554711Y50470D01*
X555353Y51328D01*
X556055Y52138D01*
X556812Y52895D01*
X557622Y53597D01*
X558480Y54239D01*
X559381Y54818D01*
X560321Y55332D01*
X561296Y55777D01*
X562300Y56151D01*
X563328Y56453D01*
X564375Y56681D01*
X565436Y56834D01*
X566504Y56910D01*
X567576Y56910D01*
X568644Y56834D01*
X569705Y56681D01*
X570752Y56453D01*
X571780Y56151D01*
X572784Y55777D01*
X573759Y55332D01*
X574699Y54818D01*
X575600Y54239D01*
X576458Y53597D01*
X577268Y52895D01*
X578025Y52138D01*
X578727Y51328D01*
X579369Y50470D01*
X579948Y49569D01*
X580462Y48629D01*
X580907Y47654D01*
X581281Y46650D01*
X581583Y45622D01*
X581811Y44575D01*
X581964Y43514D01*
X582040Y42446D01*
X582040Y41374D01*
X242290Y330334D02*
X242214Y329266D01*
X242061Y328205D01*
X241833Y327158D01*
X241531Y326130D01*
X241157Y325126D01*
X240712Y324151D01*
X240198Y323211D01*
X239619Y322310D01*
X238977Y321452D01*
X238275Y320642D01*
X237518Y319885D01*
X236708Y319183D01*
X235850Y318541D01*
X234949Y317962D01*
X234009Y317448D01*
X233034Y317003D01*
X232030Y316629D01*
X231002Y316327D01*
X229955Y316099D01*
X228894Y315946D01*
X227826Y315870D01*
X226754Y315870D01*
X225686Y315946D01*
X224625Y316099D01*
X223578Y316327D01*
X222550Y316629D01*
X221546Y317003D01*
X220571Y317448D01*
X219631Y317962D01*
X218730Y318541D01*
X217872Y319183D01*
X217062Y319885D01*
X216305Y320642D01*
X215603Y321452D01*
X214961Y322310D01*
X214382Y323211D01*
X213868Y324151D01*
X213423Y325126D01*
X213049Y326130D01*
X212747Y327158D01*
X212519Y328205D01*
X212366Y329266D01*
X212290Y330334D01*
X212290Y331406D01*
X212366Y332474D01*
X212519Y333535D01*
X212747Y334582D01*
X213049Y335610D01*
X213423Y336614D01*
X213868Y337589D01*
X214382Y338529D01*
X214961Y339430D01*
X215603Y340288D01*
X216305Y341098D01*
X217062Y341855D01*
X217872Y342557D01*
X218730Y343199D01*
X219631Y343778D01*
X220571Y344292D01*
X221546Y344737D01*
X222550Y345111D01*
X223578Y345413D01*
X224625Y345641D01*
X225686Y345794D01*
X226754Y345870D01*
X227826Y345870D01*
X228894Y345794D01*
X229955Y345641D01*
X231002Y345413D01*
X232030Y345111D01*
X233034Y344737D01*
X234009Y344292D01*
X234949Y343778D01*
X235850Y343199D01*
X236708Y342557D01*
X237518Y341855D01*
X238275Y341098D01*
X238977Y340288D01*
X239619Y339430D01*
X240198Y338529D01*
X240712Y337589D01*
X241157Y336614D01*
X241531Y335610D01*
X241833Y334582D01*
X242061Y333535D01*
X242214Y332474D01*
X242290Y331406D01*
X242290Y330334D01*
M02*
