G04 EAGLE Gerber RS-274X export*
G75*
%MOMM*%
%FSLAX34Y34*%
%LPD*%
%INSoldermask Top*%
%IPPOS*%
%AMOC8*
5,1,8,0,0,1.08239X$1,22.5*%
G01*
%ADD10C,3.203200*%
%ADD11C,0.152400*%
%ADD12C,2.082800*%
%ADD13C,1.727200*%
%ADD14C,3.505200*%
%ADD15P,2.144431X8X112.500000*%
%ADD16C,1.511200*%
%ADD17C,2.387600*%
%ADD18P,2.034460X8X22.500000*%
%ADD19C,0.959600*%


D10*
X43160Y346720D03*
X47110Y153900D03*
X567040Y41910D03*
X227290Y330870D03*
D11*
X245772Y146222D02*
X245772Y138998D01*
X245772Y146222D02*
X245774Y146355D01*
X245780Y146487D01*
X245790Y146619D01*
X245803Y146751D01*
X245821Y146883D01*
X245842Y147013D01*
X245867Y147144D01*
X245896Y147273D01*
X245929Y147401D01*
X245965Y147529D01*
X246005Y147655D01*
X246049Y147780D01*
X246097Y147904D01*
X246148Y148026D01*
X246203Y148147D01*
X246261Y148266D01*
X246323Y148384D01*
X246388Y148499D01*
X246457Y148613D01*
X246528Y148724D01*
X246604Y148833D01*
X246682Y148940D01*
X246763Y149045D01*
X246848Y149147D01*
X246935Y149247D01*
X247025Y149344D01*
X247118Y149439D01*
X247214Y149530D01*
X247312Y149619D01*
X247413Y149705D01*
X247517Y149788D01*
X247623Y149868D01*
X247731Y149944D01*
X247841Y150018D01*
X247954Y150088D01*
X248068Y150155D01*
X248185Y150218D01*
X248303Y150278D01*
X248423Y150335D01*
X248545Y150388D01*
X248668Y150437D01*
X248792Y150483D01*
X248918Y150525D01*
X249045Y150563D01*
X249173Y150598D01*
X249302Y150629D01*
X249431Y150656D01*
X249562Y150679D01*
X249693Y150699D01*
X249825Y150714D01*
X249957Y150726D01*
X250089Y150734D01*
X250222Y150738D01*
X250354Y150738D01*
X250487Y150734D01*
X250619Y150726D01*
X250751Y150714D01*
X250883Y150699D01*
X251014Y150679D01*
X251145Y150656D01*
X251274Y150629D01*
X251403Y150598D01*
X251531Y150563D01*
X251658Y150525D01*
X251784Y150483D01*
X251908Y150437D01*
X252031Y150388D01*
X252153Y150335D01*
X252273Y150278D01*
X252391Y150218D01*
X252508Y150155D01*
X252622Y150088D01*
X252735Y150018D01*
X252845Y149944D01*
X252953Y149868D01*
X253059Y149788D01*
X253163Y149705D01*
X253264Y149619D01*
X253362Y149530D01*
X253458Y149439D01*
X253551Y149344D01*
X253641Y149247D01*
X253728Y149147D01*
X253813Y149045D01*
X253894Y148940D01*
X253972Y148833D01*
X254048Y148724D01*
X254119Y148613D01*
X254188Y148499D01*
X254253Y148384D01*
X254315Y148266D01*
X254373Y148147D01*
X254428Y148026D01*
X254479Y147904D01*
X254527Y147780D01*
X254571Y147655D01*
X254611Y147529D01*
X254647Y147401D01*
X254680Y147273D01*
X254709Y147144D01*
X254734Y147013D01*
X254755Y146883D01*
X254773Y146751D01*
X254786Y146619D01*
X254796Y146487D01*
X254802Y146355D01*
X254804Y146222D01*
X254803Y146222D02*
X254803Y138998D01*
X254804Y138998D02*
X254802Y138865D01*
X254796Y138733D01*
X254786Y138601D01*
X254773Y138469D01*
X254755Y138337D01*
X254734Y138207D01*
X254709Y138076D01*
X254680Y137947D01*
X254647Y137819D01*
X254611Y137691D01*
X254571Y137565D01*
X254527Y137440D01*
X254479Y137316D01*
X254428Y137194D01*
X254373Y137073D01*
X254315Y136954D01*
X254253Y136836D01*
X254188Y136721D01*
X254119Y136607D01*
X254048Y136496D01*
X253972Y136387D01*
X253894Y136280D01*
X253813Y136175D01*
X253728Y136073D01*
X253641Y135973D01*
X253551Y135876D01*
X253458Y135781D01*
X253362Y135690D01*
X253264Y135601D01*
X253163Y135515D01*
X253059Y135432D01*
X252953Y135352D01*
X252845Y135276D01*
X252735Y135202D01*
X252622Y135132D01*
X252508Y135065D01*
X252391Y135002D01*
X252273Y134942D01*
X252153Y134885D01*
X252031Y134832D01*
X251908Y134783D01*
X251784Y134737D01*
X251658Y134695D01*
X251531Y134657D01*
X251403Y134622D01*
X251274Y134591D01*
X251145Y134564D01*
X251014Y134541D01*
X250883Y134521D01*
X250751Y134506D01*
X250619Y134494D01*
X250487Y134486D01*
X250354Y134482D01*
X250222Y134482D01*
X250089Y134486D01*
X249957Y134494D01*
X249825Y134506D01*
X249693Y134521D01*
X249562Y134541D01*
X249431Y134564D01*
X249302Y134591D01*
X249173Y134622D01*
X249045Y134657D01*
X248918Y134695D01*
X248792Y134737D01*
X248668Y134783D01*
X248545Y134832D01*
X248423Y134885D01*
X248303Y134942D01*
X248185Y135002D01*
X248068Y135065D01*
X247954Y135132D01*
X247841Y135202D01*
X247731Y135276D01*
X247623Y135352D01*
X247517Y135432D01*
X247413Y135515D01*
X247312Y135601D01*
X247214Y135690D01*
X247118Y135781D01*
X247025Y135876D01*
X246935Y135973D01*
X246848Y136073D01*
X246763Y136175D01*
X246682Y136280D01*
X246604Y136387D01*
X246528Y136496D01*
X246457Y136607D01*
X246388Y136721D01*
X246323Y136836D01*
X246261Y136954D01*
X246203Y137073D01*
X246148Y137194D01*
X246097Y137316D01*
X246049Y137440D01*
X246005Y137565D01*
X245965Y137691D01*
X245929Y137819D01*
X245896Y137947D01*
X245867Y138076D01*
X245842Y138207D01*
X245821Y138337D01*
X245803Y138469D01*
X245790Y138601D01*
X245780Y138733D01*
X245774Y138865D01*
X245772Y138998D01*
X261859Y145319D02*
X261859Y129063D01*
X261859Y145319D02*
X266374Y145319D01*
X266478Y145317D01*
X266581Y145311D01*
X266685Y145301D01*
X266788Y145287D01*
X266890Y145269D01*
X266991Y145248D01*
X267092Y145222D01*
X267191Y145193D01*
X267290Y145160D01*
X267387Y145123D01*
X267482Y145082D01*
X267576Y145038D01*
X267668Y144990D01*
X267758Y144939D01*
X267847Y144884D01*
X267933Y144826D01*
X268016Y144764D01*
X268098Y144700D01*
X268176Y144632D01*
X268252Y144562D01*
X268326Y144489D01*
X268396Y144412D01*
X268464Y144334D01*
X268528Y144252D01*
X268590Y144169D01*
X268648Y144083D01*
X268703Y143994D01*
X268754Y143904D01*
X268802Y143812D01*
X268846Y143718D01*
X268887Y143623D01*
X268924Y143526D01*
X268957Y143427D01*
X268986Y143328D01*
X269012Y143227D01*
X269033Y143126D01*
X269051Y143024D01*
X269065Y142921D01*
X269075Y142817D01*
X269081Y142714D01*
X269083Y142610D01*
X269083Y137191D01*
X269081Y137090D01*
X269075Y136989D01*
X269066Y136888D01*
X269053Y136787D01*
X269036Y136687D01*
X269015Y136588D01*
X268991Y136490D01*
X268963Y136393D01*
X268931Y136296D01*
X268896Y136201D01*
X268857Y136108D01*
X268815Y136016D01*
X268769Y135925D01*
X268720Y135836D01*
X268668Y135750D01*
X268612Y135665D01*
X268554Y135582D01*
X268492Y135502D01*
X268427Y135424D01*
X268360Y135348D01*
X268290Y135275D01*
X268217Y135205D01*
X268141Y135138D01*
X268063Y135073D01*
X267983Y135011D01*
X267900Y134953D01*
X267815Y134897D01*
X267729Y134845D01*
X267640Y134796D01*
X267549Y134750D01*
X267457Y134708D01*
X267364Y134669D01*
X267269Y134634D01*
X267172Y134602D01*
X267075Y134574D01*
X266977Y134550D01*
X266878Y134529D01*
X266778Y134512D01*
X266677Y134499D01*
X266576Y134490D01*
X266475Y134484D01*
X266374Y134482D01*
X261859Y134482D01*
X278042Y134482D02*
X282557Y134482D01*
X278042Y134482D02*
X277941Y134484D01*
X277840Y134490D01*
X277739Y134499D01*
X277638Y134512D01*
X277538Y134529D01*
X277439Y134550D01*
X277341Y134574D01*
X277244Y134602D01*
X277147Y134634D01*
X277052Y134669D01*
X276959Y134708D01*
X276867Y134750D01*
X276776Y134796D01*
X276688Y134845D01*
X276601Y134897D01*
X276516Y134953D01*
X276433Y135011D01*
X276353Y135073D01*
X276275Y135138D01*
X276199Y135205D01*
X276126Y135275D01*
X276056Y135348D01*
X275989Y135424D01*
X275924Y135502D01*
X275862Y135582D01*
X275804Y135665D01*
X275748Y135750D01*
X275696Y135837D01*
X275647Y135925D01*
X275601Y136016D01*
X275559Y136108D01*
X275520Y136201D01*
X275485Y136296D01*
X275453Y136393D01*
X275425Y136490D01*
X275401Y136588D01*
X275380Y136687D01*
X275363Y136787D01*
X275350Y136888D01*
X275341Y136989D01*
X275335Y137090D01*
X275333Y137191D01*
X275332Y137191D02*
X275332Y141707D01*
X275333Y141707D02*
X275335Y141826D01*
X275341Y141946D01*
X275351Y142065D01*
X275365Y142183D01*
X275382Y142302D01*
X275404Y142419D01*
X275429Y142536D01*
X275459Y142651D01*
X275492Y142766D01*
X275529Y142880D01*
X275569Y142992D01*
X275614Y143103D01*
X275662Y143212D01*
X275713Y143320D01*
X275768Y143426D01*
X275827Y143530D01*
X275889Y143632D01*
X275954Y143732D01*
X276023Y143830D01*
X276095Y143926D01*
X276170Y144019D01*
X276247Y144109D01*
X276328Y144197D01*
X276412Y144282D01*
X276499Y144364D01*
X276588Y144444D01*
X276680Y144520D01*
X276774Y144594D01*
X276871Y144664D01*
X276969Y144731D01*
X277070Y144795D01*
X277174Y144855D01*
X277279Y144912D01*
X277386Y144965D01*
X277494Y145015D01*
X277604Y145061D01*
X277716Y145103D01*
X277829Y145142D01*
X277943Y145177D01*
X278058Y145208D01*
X278175Y145236D01*
X278292Y145259D01*
X278409Y145279D01*
X278528Y145295D01*
X278647Y145307D01*
X278766Y145315D01*
X278885Y145319D01*
X279005Y145319D01*
X279124Y145315D01*
X279243Y145307D01*
X279362Y145295D01*
X279481Y145279D01*
X279598Y145259D01*
X279715Y145236D01*
X279832Y145208D01*
X279947Y145177D01*
X280061Y145142D01*
X280174Y145103D01*
X280286Y145061D01*
X280396Y145015D01*
X280504Y144965D01*
X280611Y144912D01*
X280716Y144855D01*
X280820Y144795D01*
X280921Y144731D01*
X281019Y144664D01*
X281116Y144594D01*
X281210Y144520D01*
X281302Y144444D01*
X281391Y144364D01*
X281478Y144282D01*
X281562Y144197D01*
X281643Y144109D01*
X281720Y144019D01*
X281795Y143926D01*
X281867Y143830D01*
X281936Y143732D01*
X282001Y143632D01*
X282063Y143530D01*
X282122Y143426D01*
X282177Y143320D01*
X282228Y143212D01*
X282276Y143103D01*
X282321Y142992D01*
X282361Y142880D01*
X282398Y142766D01*
X282431Y142651D01*
X282461Y142536D01*
X282486Y142419D01*
X282508Y142302D01*
X282525Y142183D01*
X282539Y142065D01*
X282549Y141946D01*
X282555Y141826D01*
X282557Y141707D01*
X282557Y139901D01*
X275332Y139901D01*
X289400Y134482D02*
X289400Y145319D01*
X293916Y145319D01*
X294020Y145317D01*
X294123Y145311D01*
X294227Y145301D01*
X294330Y145287D01*
X294432Y145269D01*
X294533Y145248D01*
X294634Y145222D01*
X294733Y145193D01*
X294832Y145160D01*
X294929Y145123D01*
X295024Y145082D01*
X295118Y145038D01*
X295210Y144990D01*
X295300Y144939D01*
X295389Y144884D01*
X295475Y144826D01*
X295558Y144764D01*
X295640Y144700D01*
X295718Y144632D01*
X295794Y144562D01*
X295868Y144489D01*
X295938Y144412D01*
X296006Y144334D01*
X296070Y144252D01*
X296132Y144169D01*
X296190Y144083D01*
X296245Y143994D01*
X296296Y143904D01*
X296344Y143812D01*
X296388Y143718D01*
X296429Y143623D01*
X296466Y143526D01*
X296499Y143427D01*
X296528Y143328D01*
X296554Y143227D01*
X296575Y143126D01*
X296593Y143024D01*
X296607Y142921D01*
X296617Y142817D01*
X296623Y142714D01*
X296625Y142610D01*
X296625Y134482D01*
X304158Y134482D02*
X304158Y150738D01*
X304158Y134482D02*
X311383Y134482D01*
X317676Y138998D02*
X317676Y150738D01*
X317675Y138998D02*
X317677Y138865D01*
X317683Y138733D01*
X317693Y138601D01*
X317706Y138469D01*
X317724Y138337D01*
X317745Y138207D01*
X317770Y138076D01*
X317799Y137947D01*
X317832Y137819D01*
X317868Y137691D01*
X317908Y137565D01*
X317952Y137440D01*
X318000Y137316D01*
X318051Y137194D01*
X318106Y137073D01*
X318164Y136954D01*
X318226Y136836D01*
X318291Y136721D01*
X318360Y136607D01*
X318431Y136496D01*
X318507Y136387D01*
X318585Y136280D01*
X318666Y136175D01*
X318751Y136073D01*
X318838Y135973D01*
X318928Y135876D01*
X319021Y135781D01*
X319117Y135690D01*
X319215Y135601D01*
X319316Y135515D01*
X319420Y135432D01*
X319526Y135352D01*
X319634Y135276D01*
X319744Y135202D01*
X319857Y135132D01*
X319971Y135065D01*
X320088Y135002D01*
X320206Y134942D01*
X320326Y134885D01*
X320448Y134832D01*
X320571Y134783D01*
X320695Y134737D01*
X320821Y134695D01*
X320948Y134657D01*
X321076Y134622D01*
X321205Y134591D01*
X321334Y134564D01*
X321465Y134541D01*
X321596Y134521D01*
X321728Y134506D01*
X321860Y134494D01*
X321992Y134486D01*
X322125Y134482D01*
X322257Y134482D01*
X322390Y134486D01*
X322522Y134494D01*
X322654Y134506D01*
X322786Y134521D01*
X322917Y134541D01*
X323048Y134564D01*
X323177Y134591D01*
X323306Y134622D01*
X323434Y134657D01*
X323561Y134695D01*
X323687Y134737D01*
X323811Y134783D01*
X323934Y134832D01*
X324056Y134885D01*
X324176Y134942D01*
X324294Y135002D01*
X324411Y135065D01*
X324525Y135132D01*
X324638Y135202D01*
X324748Y135276D01*
X324856Y135352D01*
X324962Y135432D01*
X325066Y135515D01*
X325167Y135601D01*
X325265Y135690D01*
X325361Y135781D01*
X325454Y135876D01*
X325544Y135973D01*
X325631Y136073D01*
X325716Y136175D01*
X325797Y136280D01*
X325875Y136387D01*
X325951Y136496D01*
X326022Y136607D01*
X326091Y136721D01*
X326156Y136836D01*
X326218Y136954D01*
X326276Y137073D01*
X326331Y137194D01*
X326382Y137316D01*
X326430Y137440D01*
X326474Y137565D01*
X326514Y137691D01*
X326550Y137819D01*
X326583Y137947D01*
X326612Y138076D01*
X326637Y138207D01*
X326658Y138337D01*
X326676Y138469D01*
X326689Y138601D01*
X326699Y138733D01*
X326705Y138865D01*
X326707Y138998D01*
X326707Y150738D01*
X343762Y150738D02*
X332925Y134482D01*
X343762Y134482D02*
X332925Y150738D01*
X357796Y147126D02*
X362311Y150738D01*
X362311Y134482D01*
X357796Y134482D02*
X366827Y134482D01*
X372802Y134482D02*
X372802Y135385D01*
X373705Y135385D01*
X373705Y134482D01*
X372802Y134482D01*
X379680Y142610D02*
X379684Y142930D01*
X379695Y143249D01*
X379714Y143569D01*
X379741Y143887D01*
X379775Y144205D01*
X379817Y144522D01*
X379867Y144838D01*
X379924Y145153D01*
X379988Y145466D01*
X380060Y145778D01*
X380139Y146088D01*
X380226Y146395D01*
X380320Y146701D01*
X380421Y147004D01*
X380530Y147305D01*
X380645Y147603D01*
X380768Y147899D01*
X380898Y148191D01*
X381035Y148480D01*
X381034Y148481D02*
X381073Y148589D01*
X381116Y148696D01*
X381162Y148801D01*
X381213Y148905D01*
X381266Y149007D01*
X381323Y149107D01*
X381384Y149205D01*
X381448Y149300D01*
X381515Y149394D01*
X381586Y149485D01*
X381659Y149574D01*
X381736Y149660D01*
X381815Y149743D01*
X381897Y149824D01*
X381982Y149902D01*
X382070Y149976D01*
X382160Y150048D01*
X382252Y150116D01*
X382347Y150182D01*
X382444Y150244D01*
X382543Y150302D01*
X382645Y150358D01*
X382747Y150409D01*
X382852Y150457D01*
X382958Y150502D01*
X383066Y150543D01*
X383175Y150580D01*
X383285Y150613D01*
X383397Y150642D01*
X383509Y150668D01*
X383622Y150690D01*
X383736Y150707D01*
X383850Y150721D01*
X383965Y150731D01*
X384080Y150737D01*
X384195Y150739D01*
X384195Y150738D02*
X384310Y150736D01*
X384425Y150730D01*
X384540Y150720D01*
X384654Y150706D01*
X384768Y150689D01*
X384881Y150667D01*
X384993Y150641D01*
X385105Y150612D01*
X385215Y150579D01*
X385324Y150542D01*
X385432Y150501D01*
X385538Y150456D01*
X385643Y150408D01*
X385745Y150357D01*
X385846Y150301D01*
X385946Y150243D01*
X386043Y150181D01*
X386137Y150116D01*
X386230Y150047D01*
X386320Y149975D01*
X386408Y149901D01*
X386493Y149823D01*
X386575Y149742D01*
X386654Y149659D01*
X386731Y149573D01*
X386804Y149484D01*
X386875Y149393D01*
X386942Y149299D01*
X387006Y149204D01*
X387067Y149106D01*
X387124Y149006D01*
X387177Y148904D01*
X387228Y148800D01*
X387274Y148695D01*
X387317Y148588D01*
X387356Y148480D01*
X387355Y148480D02*
X387492Y148191D01*
X387622Y147899D01*
X387745Y147603D01*
X387860Y147305D01*
X387969Y147004D01*
X388070Y146701D01*
X388164Y146395D01*
X388251Y146088D01*
X388330Y145778D01*
X388402Y145466D01*
X388466Y145153D01*
X388523Y144838D01*
X388573Y144522D01*
X388615Y144205D01*
X388649Y143887D01*
X388676Y143569D01*
X388695Y143249D01*
X388706Y142930D01*
X388710Y142610D01*
X379680Y142610D02*
X379684Y142290D01*
X379695Y141971D01*
X379714Y141651D01*
X379741Y141333D01*
X379775Y141015D01*
X379817Y140698D01*
X379867Y140382D01*
X379924Y140067D01*
X379988Y139754D01*
X380060Y139442D01*
X380139Y139132D01*
X380226Y138825D01*
X380320Y138519D01*
X380421Y138216D01*
X380530Y137915D01*
X380645Y137617D01*
X380768Y137321D01*
X380898Y137029D01*
X381035Y136740D01*
X381034Y136740D02*
X381073Y136632D01*
X381116Y136525D01*
X381162Y136420D01*
X381213Y136316D01*
X381266Y136214D01*
X381323Y136114D01*
X381384Y136016D01*
X381448Y135921D01*
X381515Y135827D01*
X381586Y135736D01*
X381659Y135647D01*
X381736Y135561D01*
X381815Y135478D01*
X381897Y135397D01*
X381982Y135319D01*
X382070Y135245D01*
X382160Y135173D01*
X382253Y135104D01*
X382347Y135039D01*
X382444Y134977D01*
X382544Y134919D01*
X382645Y134863D01*
X382747Y134812D01*
X382852Y134764D01*
X382958Y134719D01*
X383066Y134678D01*
X383175Y134641D01*
X383285Y134608D01*
X383397Y134579D01*
X383509Y134553D01*
X383622Y134531D01*
X383736Y134514D01*
X383850Y134500D01*
X383965Y134490D01*
X384080Y134484D01*
X384195Y134482D01*
X387355Y136740D02*
X387492Y137029D01*
X387622Y137321D01*
X387745Y137617D01*
X387860Y137915D01*
X387969Y138216D01*
X388070Y138519D01*
X388164Y138825D01*
X388251Y139132D01*
X388330Y139442D01*
X388402Y139754D01*
X388466Y140067D01*
X388523Y140382D01*
X388573Y140698D01*
X388615Y141015D01*
X388649Y141333D01*
X388676Y141651D01*
X388695Y141971D01*
X388706Y142290D01*
X388710Y142610D01*
X387356Y136740D02*
X387317Y136632D01*
X387274Y136525D01*
X387228Y136420D01*
X387177Y136316D01*
X387124Y136214D01*
X387067Y136114D01*
X387006Y136016D01*
X386942Y135921D01*
X386875Y135827D01*
X386804Y135736D01*
X386731Y135647D01*
X386654Y135561D01*
X386575Y135478D01*
X386493Y135397D01*
X386408Y135319D01*
X386320Y135245D01*
X386230Y135173D01*
X386137Y135104D01*
X386043Y135039D01*
X385946Y134977D01*
X385846Y134919D01*
X385745Y134863D01*
X385642Y134812D01*
X385538Y134764D01*
X385432Y134719D01*
X385324Y134678D01*
X385215Y134641D01*
X385105Y134608D01*
X384993Y134579D01*
X384881Y134553D01*
X384768Y134531D01*
X384654Y134514D01*
X384540Y134500D01*
X384425Y134490D01*
X384310Y134484D01*
X384195Y134482D01*
X380583Y138094D02*
X387807Y147126D01*
D12*
X571500Y368300D03*
X546100Y368300D03*
X520700Y368300D03*
X495300Y368300D03*
X469900Y368300D03*
X444500Y368300D03*
X419100Y368300D03*
X393700Y368300D03*
X368300Y368300D03*
X342900Y368300D03*
X317500Y368300D03*
X292100Y368300D03*
X266700Y368300D03*
X241300Y368300D03*
X571500Y215900D03*
X546100Y215900D03*
X520700Y215900D03*
X495300Y215900D03*
X469900Y215900D03*
X444500Y215900D03*
X419100Y215900D03*
X393700Y215900D03*
X368300Y215900D03*
X342900Y215900D03*
X317500Y215900D03*
X292100Y215900D03*
X266700Y215900D03*
X241300Y215900D03*
X571500Y342900D03*
X571500Y317500D03*
X571500Y292100D03*
X571500Y266700D03*
X571500Y241300D03*
X368300Y342900D03*
X342900Y342900D03*
X317500Y342900D03*
X266700Y342900D03*
D13*
X214630Y215900D03*
X69850Y241300D03*
D14*
X139700Y281940D03*
X139700Y149860D03*
D13*
X69850Y190500D03*
X214630Y241300D03*
X214630Y190500D03*
D15*
X342900Y39370D03*
X368300Y36830D03*
X393700Y39370D03*
X419100Y36830D03*
X444500Y39370D03*
X469900Y36830D03*
X495300Y39370D03*
X520700Y36830D03*
D16*
X114300Y330200D03*
X139700Y330200D03*
X165100Y330200D03*
D17*
X221200Y50800D03*
X186200Y50800D03*
X68800Y50800D03*
X33800Y50800D03*
X145000Y50800D03*
X110000Y50800D03*
X297400Y50800D03*
X262400Y50800D03*
D18*
X88900Y114300D03*
X139700Y114300D03*
X454280Y279320D03*
X505080Y279320D03*
X403750Y316040D03*
X454550Y316040D03*
D19*
X30510Y298860D03*
X52870Y281340D03*
X24770Y242050D03*
X29300Y185540D03*
X87010Y75850D03*
X184590Y111510D03*
X151360Y244770D03*
X348630Y127990D03*
X390020Y99720D03*
X545310Y96700D03*
X438360Y289800D03*
X481560Y261700D03*
X318720Y287080D03*
X204260Y309280D03*
X347610Y289250D03*
X498680Y320600D03*
X495300Y63500D03*
X115000Y165000D03*
X115000Y175000D03*
X327320Y85770D03*
X165000Y110000D03*
X190500Y190500D03*
X155110Y121400D03*
X178120Y125620D03*
M02*
