G04 EAGLE Gerber RS-274X export*
G75*
%MOMM*%
%FSLAX34Y34*%
%LPD*%
%INSoldermask Bottom*%
%IPPOS*%
%AMOC8*
5,1,8,0,0,1.08239X$1,22.5*%
G01*
%ADD10C,3.203200*%
%ADD11C,2.082800*%
%ADD12C,1.727200*%
%ADD13C,3.505200*%
%ADD14P,2.144431X8X112.500000*%
%ADD15C,1.511200*%
%ADD16C,2.387600*%
%ADD17P,2.034460X8X22.500000*%
%ADD18C,0.959600*%


D10*
X43160Y346720D03*
X47110Y153900D03*
X567040Y41910D03*
X227290Y330870D03*
D11*
X571500Y368300D03*
X546100Y368300D03*
X520700Y368300D03*
X495300Y368300D03*
X469900Y368300D03*
X444500Y368300D03*
X419100Y368300D03*
X393700Y368300D03*
X368300Y368300D03*
X342900Y368300D03*
X317500Y368300D03*
X292100Y368300D03*
X266700Y368300D03*
X241300Y368300D03*
X571500Y215900D03*
X546100Y215900D03*
X520700Y215900D03*
X495300Y215900D03*
X469900Y215900D03*
X444500Y215900D03*
X419100Y215900D03*
X393700Y215900D03*
X368300Y215900D03*
X342900Y215900D03*
X317500Y215900D03*
X292100Y215900D03*
X266700Y215900D03*
X241300Y215900D03*
X571500Y342900D03*
X571500Y317500D03*
X571500Y292100D03*
X571500Y266700D03*
X571500Y241300D03*
X368300Y342900D03*
X342900Y342900D03*
X317500Y342900D03*
X266700Y342900D03*
D12*
X214630Y215900D03*
X69850Y241300D03*
D13*
X139700Y281940D03*
X139700Y149860D03*
D12*
X69850Y190500D03*
X214630Y241300D03*
X214630Y190500D03*
D14*
X342900Y39370D03*
X368300Y36830D03*
X393700Y39370D03*
X419100Y36830D03*
X444500Y39370D03*
X469900Y36830D03*
X495300Y39370D03*
X520700Y36830D03*
D15*
X114300Y330200D03*
X139700Y330200D03*
X165100Y330200D03*
D16*
X221200Y50800D03*
X186200Y50800D03*
X68800Y50800D03*
X33800Y50800D03*
X145000Y50800D03*
X110000Y50800D03*
X297400Y50800D03*
X262400Y50800D03*
D17*
X88900Y114300D03*
X139700Y114300D03*
X454280Y279320D03*
X505080Y279320D03*
X403750Y316040D03*
X454550Y316040D03*
D18*
X30510Y298860D03*
X52870Y281340D03*
X24770Y242050D03*
X29300Y185540D03*
X87010Y75850D03*
X184590Y111510D03*
X151360Y244770D03*
X348630Y127990D03*
X390020Y99720D03*
X545310Y96700D03*
X438360Y289800D03*
X481560Y261700D03*
X318720Y287080D03*
X204260Y309280D03*
X347610Y289250D03*
X498680Y320600D03*
X495300Y63500D03*
X115000Y165000D03*
X115000Y175000D03*
X327320Y85770D03*
X165000Y110000D03*
X190500Y190500D03*
X155110Y121400D03*
X178120Y125620D03*
M02*
