0
SECTION
2
HEADER
9
$INSUNITS
70
4
9
$ACADVER
1
AC1014
9
$HANDSEED
5
FFFF
0
ENDSEC
0
SECTION
2
TABLES
0
TABLE
2
VPORT
5
8
100
AcDbSymbolTable
0
ENDTAB
0
TABLE
2
LTYPE
5
5
100
AcDbSymbolTable
0
LTYPE
5
14
100
AcDbSymbolTableRecord
100
AcDbLinetypeTableRecord
2
BYBLOCK
70
0
0
LTYPE
5
15
100
AcDbSymbolTableRecord
100
AcDbLinetypeTableRecord
2
BYLAYER
70
0
0
ENDTAB
0
TABLE
2
LAYER
5
2
100
AcDbSymbolTable
70
2
0
LAYER
5
50
100
AcDbSymbolTableRecord
100
AcDbLayerTableRecord
2
0
70
0
6
CONTINUOUS
0
ENDTAB
0
TABLE
2
STYLE
5
3
100
AcDbSymbolTable
70
1
0
STYLE
5
11
100
AcDbSymbolTableRecord
100
AcDbTextStyleTableRecord
2
STANDARD
70
0
0
ENDTAB
0
TABLE
2
VIEW
5
6
100
AcDbSymbolTable
70
0
0
ENDTAB
0
TABLE
2
UCS
5
7
100
AcDbSymbolTable
70
0
0
ENDTAB
0
TABLE
2
APPID
5
9
100
AcDbSymbolTable
70
2
0
APPID
5
12
100
AcDbSymbolTableRecord
100
AcDbRegAppTableRecord
2
ACAD
70
0
0
ENDTAB
0
TABLE
2
DIMSTYLE
5
A
100
AcDbSymbolTable
70
1
0
ENDTAB
0
TABLE
2
BLOCK_RECORD
5
1
100
AcDbSymbolTable
70
1
0
BLOCK_RECORD
5
1F
100
AcDbSymbolTableRecord
100
AcDbBlockTableRecord
2
*MODEL_SPACE
0
BLOCK_RECORD
5
1B
100
AcDbSymbolTableRecord
100
AcDbBlockTableRecord
2
*PAPER_SPACE
0
ENDTAB
0
ENDSEC
0
SECTION
2
BLOCKS
0
BLOCK
5
20
100
AcDbEntity
100
AcDbBlockBegin
2
*MODEL_SPACE
0
ENDBLK
5
21
100
AcDbEntity
100
AcDbBlockEnd
0
BLOCK
5
1C
100
AcDbEntity
100
AcDbBlockBegin
2
*PAPER_SPACE
0
ENDBLK
5
1D
100
AcDbEntity
100
AcDbBlockEnd
0
ENDSEC
0
SECTION
2
ENTITIES
0
LWPOLYLINE
5
100
100
AcDbEntity
8
0
100
AcDbPolyline
90
20
70
1
43
0.0
10
-34.999999999999929
20
-43.360000000000021
10
-34.999999999999929
20
-62.45308345919095
42
0.29689876829277506
10
-33.511084161523144
20
-64.739501797622665
42
-0.29689876829277839
10
-31.575493571503316
20
-67.711845637583934
10
-31.57549357150333
20
-79.854506428496293
10
-20.525493571503368
20
-79.854506428496293
10
-20.525493571503382
20
-89.854506428496279
10
20.334506428496478
20
-89.854506428496308
10
20.334506428496489
20
-79.854506428496364
10
31.384506428496451
20
-79.854506428496393
10
31.384506428496472
20
-67.610000000000014
42
-0.30672915778691823
10
33.428046273259298
20
-64.592226997631371
42
0.30672915778691584
10
34.999999999999929
20
-62.270863149655483
10
34.999999999999901
20
-43.359999999999886
42
0.41421356237309503
10
31.499999999999901
20
-39.859999999999893
10
20.33450642849655
20
-39.859999999999893
10
20.334506428496553
20
-29.954506428496536
10
-20.525493571503304
20
-29.954506428496472
10
-20.525493571503304
20
-39.860000000000021
10
-31.499999999999929
20
-39.860000000000021
42
0.41421356237309503
0
CIRCLE
5
101
100
AcDbEntity
8
0
100
AcDbCircle
10
-34.999999999999964
20
-33.29999999999994
30
0
40
1.7800000000003013
210
-4.3012167608380553e-79
220
5.4738221262688167e-48
230
1
0
CIRCLE
5
102
100
AcDbEntity
8
0
100
AcDbCircle
10
35.000000000000007
20
-68.299999999999969
30
0
40
1.7800000000000302
210
-4.9303806576313249e-32
220
5.4738221262688179e-48
230
1
0
CIRCLE
5
103
100
AcDbEntity
8
0
100
AcDbCircle
10
35.000000000000064
20
-33.300000000000061
30
0
40
1.7800000000000482
210
-4.3012167608380547e-79
220
-5.0031202885126436e-126
230
1
0
CIRCLE
5
104
100
AcDbEntity
8
0
100
AcDbCircle
10
25.137082877254766
20
-85.487882454611253
30
0
40
2.250000000000032
210
-4.3012167608380553e-79
220
5.4738221262688167e-48
230
1
0
LWPOLYLINE
5
105
100
AcDbEntity
8
0
100
AcDbPolyline
90
2
70
1
43
0.0
10
-26.774703020146021
20
-34.580302431474536
42
-2.682068977683624
10
-26.0474193129944
20
-37.43519242406559
42
-0.54661961673173665
0
CIRCLE
5
106
100
AcDbEntity
8
0
100
AcDbCircle
10
25.137082877254599
20
-35.587882454610508
30
0
40
2.250000000000032
210
-4.3012167608380553e-79
220
5.4738221262688167e-48
230
1
0
CIRCLE
5
107
100
AcDbEntity
8
0
100
AcDbCircle
10
-35.000000000000036
20
-68.300000000000026
30
0
40
1.7799999999998972
210
-4.3012167608380553e-79
220
5.4738221262688167e-48
230
1
0
CIRCLE
5
108
100
AcDbEntity
8
0
100
AcDbCircle
10
-24.762917122745947
20
-85.487882454611423
30
0
40
2.250000000000032
210
-4.3012167608380553e-79
220
5.4738221262688167e-48
230
1
0
LWPOLYLINE
5
109
100
AcDbEntity
8
0
100
AcDbPolyline
90
38
70
1
43
0.0
10
34.499999999999716
20
-90.537882454610809
42
-0.28232150891866153
10
30.934009087285862
20
-92.725781792273821
10
-31.122938672157943
20
-92.725781792273821
42
-0.28262836593540963
10
-34.690987143006474
20
-90.533827729100523
42
-0.40183293822897165
10
-39.000000000000014
20
-86.037882454610823
10
-39.000000000000014
20
-66.840000000000018
42
0.99999999999999989
10
-39.000000000000014
20
-66.080000000000013
10
-38.999999999999972
20
-60.690000000000019
42
0.99999999999999989
10
-39.000000000000014
20
-59.930000000000007
10
-39.000000000000014
20
-54.540000000000013
42
0.99999999999999989
10
-39.000000000000014
20
-53.780000000000008
10
-39.000000000000014
20
-47.820000000000007
42
0.99999999999999989
10
-39.000000000000014
20
-47.060000000000002
10
-39.000000000000014
20
-41.670000000000009
42
0.99999999999999989
10
-39.000000000000014
20
-40.910000000000004
10
-39.000000000000014
20
-35.520000000000003
42
0.99999999999999989
10
-39.000000000000014
20
-34.759999999999998
10
-38.999999999999901
20
-33.300000000000011
42
-0.4142135623730957
10
-35.000000000000028
20
-29.300000000000004
10
-34.690987143006467
20
-29.300000000000011
42
-0.28064540558599271
10
-31.136322100214709
20
-27.134218207726182
10
30.945334957207958
20
-27.134218207726217
42
-0.28064540558599665
10
34.499999999999723
20
-29.300000000000082
10
35.000000000000007
20
-29.300000000000402
42
-0.41421356237309537
10
38.999999999999716
20
-33.300000000000011
10
38.999999999999723
20
-34.760000000000005
42
0.99999999999999989
10
38.999999999999716
20
-35.52000000000001
10
38.999999999999723
20
-40.910000000000004
42
0.99999999999999989
10
38.999999999999716
20
-41.670000000000016
10
38.999999999999723
20
-47.060000000000002
42
0.99999999999999989
10
38.999999999999716
20
-47.820000000000007
10
38.999999999999723
20
-53.780000000000008
42
0.99999999999999989
10
38.999999999999716
20
-54.540000000000013
10
38.999999999999723
20
-59.930000000000014
42
0.99999999999999989
10
38.999999999999716
20
-60.690000000000019
10
38.999999999999723
20
-66.080000000000013
42
0.99999999999999989
10
38.999999999999716
20
-66.840000000000018
10
38.99999999999973
20
-86.037882454610823
42
-0.41421356237309853
0
ENDSEC
0
SECTION
2
OBJECTS
0
DICTIONARY
5
C
100
AcDbDictionary
3
ACAD_GROUP
350
D
3
ACAD_MLINESTYLE
350
17
0
DICTIONARY
5
D
100
AcDbDictionary
0
DICTIONARY
5
1A
330
C
100
AcDbDictionary
0
DICTIONARY
5
17
100
AcDbDictionary
0
ENDSEC
0
EOF
