M48
;GenerationSoftware,Autodesk,EAGLE,9.5.0*%
;CreationDate,2020-01-17T00:34:05Z*%
FMAT,2
ICI,OFF
METRIC,TZ,000.000
T7C0.350
T6C0.800
T5C0.813
T4C1.000
T3C1.016
T2C2.286
T1C3.000
%
G90
M71
T1
X4316Y34672
X22729Y33087
X4711Y15390
X56704Y4191
T2
X13970Y14986
X13970Y28194
T3
X21463Y19050
X21463Y24130
X6985Y19050
X6985Y24130
X21463Y21590
X26670Y34290
X31750Y34290
X34290Y34290
X36830Y34290
X41910Y21590
X57150Y24130
X57150Y26670
X57150Y29210
X57150Y31750
X57150Y34290
X24130Y21590
X26670Y21590
X29210Y21590
X31750Y21590
X34290Y21590
X36830Y21590
X39370Y21590
X57150Y36830
X54610Y36830
X52070Y36830
X49530Y36830
X46990Y36830
X44450Y36830
X41910Y36830
X39370Y36830
X36830Y36830
X34290Y36830
X31750Y36830
X29210Y36830
X26670Y36830
X24130Y36830
X57150Y21590
X54610Y21590
X52070Y21590
X49530Y21590
X46990Y21590
X44450Y21590
X34290Y3937
X36830Y3683
X39370Y3937
X41910Y3683
X44450Y3937
X46990Y3683
X49530Y3937
X52070Y3683
T4
X18620Y5080
X22120Y5080
X6880Y5080
X3380Y5080
X14500Y5080
X11000Y5080
X29740Y5080
X26240Y5080
T5
X45455Y31604
X40375Y31604
X50508Y27932
X45428Y27932
X13970Y11430
X8890Y11430
T6
X16510Y33020
X11430Y33020
X13970Y33020
T7
X34863Y12799
X15136Y24477
X18459Y11151
X8701Y7585
X2930Y18554
X2477Y24205
X5287Y28134
X31872Y28708
X17812Y12562
X15511Y12140
X49530Y6350
X3051Y29886
X49868Y32060
X34761Y28925
X20426Y30928
X48156Y26170
X43836Y28980
X54531Y9670
X11500Y16500
X11500Y17500
X32732Y8577
X16500Y11000
X19050Y19050
X39002Y9972
M30